<svg width="150" height="50" viewBox="0 0 150 50" fill="none" xmlns="http://www.w3.org/2000/svg">
<path d="M8.48812 49.0458L8.49289 49.0459C8.87428 49.0545 9.24867 49.0595 9.63189 49.0595L138.988 49.062H138.989L140.367 49.0595H140.368C140.742 49.0595 141.128 49.0545 141.497 49.0459L141.503 49.0458C142.274 49.0363 143.043 48.9688 143.804 48.8437C144.492 48.7261 145.159 48.5047 145.781 48.1871C146.393 47.8742 146.95 47.4642 147.432 46.9727L147.436 46.9688C147.919 46.4866 148.323 45.9306 148.635 45.3213C148.948 44.6944 149.163 44.0227 149.274 43.3297L149.274 43.3268C149.4 42.5661 149.471 41.7972 149.485 41.0261C149.485 41.0257 149.485 41.0253 149.485 41.0248L149.985 41.0342C149.99 40.6414 149.99 40.2598 149.99 39.8432L8.48812 49.0458ZM8.48812 49.0458C7.71723 49.0357 6.94814 48.9682 6.18713 48.8438C5.50398 48.7251 4.84211 48.5046 4.2233 48.1894C3.61347 47.8786 3.05711 47.4709 2.57557 46.9819L2.5756 46.9819L2.57094 46.9773C2.083 46.4946 1.67665 45.9347 1.36807 45.3196L1.36766 45.3188C1.05395 44.6963 0.836802 44.029 0.723833 43.3401L0.723768 43.3397C0.596991 42.5704 0.528398 41.7926 0.518584 41.0129H0.518658L0.5184 41.0042C0.514511 40.874 0.509904 40.586 0.506238 40.326C0.504418 40.197 0.50285 40.0764 0.501736 39.988L0.500433 39.8826L0.500085 39.8537L0.5 39.8495V39.8466M8.48812 49.0458L0.5 39.8466M140.368 49.5595C140.746 49.5595 141.136 49.5545 141.509 49.5457C142.306 49.536 143.101 49.4661 143.887 49.3368L140.368 49.5595ZM140.368 49.5595L138.989 49.562L140.368 49.5595ZM0.5 39.8466V10.2614L0.500087 10.2546L0.500455 10.2261L0.501828 10.1224L0.506499 9.79018C0.510258 9.53499 0.514883 9.25245 0.518482 9.12658L0.518551 9.12658L0.51865 9.11832C0.528047 8.33992 0.596233 7.56337 0.722616 6.7954L0.722674 6.79505C0.8359 6.10395 1.05331 5.43441 1.36732 4.80962L1.36775 4.80877C1.67543 4.19366 2.07985 3.63288 2.56523 3.14813L2.56523 3.14813L2.56709 3.14625C3.05291 2.65589 3.61195 2.24538 4.22378 1.92958C4.84057 1.61591 5.50053 1.39727 6.18159 1.28093C6.94526 1.15523 7.7172 1.08727 8.49093 1.07761L8.49151 1.07761L9.63591 1.06201H140.358H140.361L141.516 1.07823L141.517 1.07824C142.283 1.08741 143.048 1.15474 143.804 1.27966C144.493 1.39757 145.16 1.61789 145.785 1.93344C147.01 2.56999 148.008 3.57657 148.638 4.813C148.946 5.43299 149.16 6.09647 149.272 6.78097L149.272 6.78193C149.4 7.55674 149.471 8.33992 149.486 9.12524C149.486 9.12592 149.486 9.1266 149.486 9.12729L149.986 9.11793M0.5 39.8466L149.99 10.2582C149.99 9.87037 149.99 9.4807 149.986 9.11793M149.986 9.11793C149.971 8.30776 149.897 7.49978 149.765 6.70045L149.986 9.11793Z" stroke="#43454C"/>
<path d="M33.4231 24.5446C33.436 23.5401 33.7009 22.5553 34.1933 21.6816C34.6857 20.808 35.3895 20.074 36.2393 19.5479C35.6995 18.7715 34.9873 18.1325 34.1593 17.6818C33.3314 17.231 32.4104 16.9809 31.4697 16.9513C29.4629 16.7392 27.5174 18.1605 26.4948 18.1605C25.4524 18.1605 23.8779 16.9723 22.1824 17.0075C21.0857 17.0431 20.017 17.3643 19.0802 17.9396C18.1434 18.5149 17.3706 19.3247 16.837 20.2902C14.5258 24.3198 16.2498 30.2419 18.4637 33.4991C19.5714 35.0941 20.866 36.8757 22.5599 36.8125C24.2176 36.7433 24.8366 35.7481 26.8375 35.7481C28.8198 35.7481 29.4007 36.8125 31.129 36.7724C32.9077 36.7433 34.0283 35.1703 35.0972 33.5602C35.893 32.4238 36.5055 31.1677 36.9118 29.8386C35.8784 29.3985 34.9965 28.6618 34.3762 27.7204C33.7558 26.7789 33.4243 25.6744 33.4231 24.5446Z" fill="#111218"/>
<path d="M30.1591 14.8091C31.1289 13.6367 31.6067 12.1298 31.491 10.6084C30.0094 10.7651 28.6407 11.4782 27.6578 12.6056C27.1772 13.1564 26.8091 13.7971 26.5746 14.4912C26.3401 15.1853 26.2437 15.9192 26.291 16.6508C27.0321 16.6585 27.7653 16.4967 28.4353 16.1777C29.1053 15.8587 29.6947 15.3907 30.1591 14.8091Z" fill="#111218"/>
<path d="M54.3761 32.7745H48.7195L47.361 36.8138H44.9651L50.323 21.8696H52.8123L58.1702 36.8138H55.7334L54.3761 32.7745ZM49.3053 30.9106H53.7892L51.5788 24.3552H51.5169L49.3053 30.9106Z" fill="#111218"/>
<path d="M69.7412 31.3666C69.7412 34.7524 67.9416 36.9277 65.2259 36.9277C64.5379 36.964 63.8538 36.8044 63.2517 36.4673C62.6496 36.1301 62.154 35.6291 61.8216 35.0215H61.7702V40.4181H59.5493V25.9183H61.6991V27.7304H61.7399C62.0876 27.1258 62.5916 26.6273 63.1982 26.2881C63.8049 25.949 64.4915 25.7817 65.185 25.8043C67.931 25.8043 69.7412 27.9902 69.7412 31.3666ZM67.4584 31.3666C67.4584 29.1607 66.3264 27.7105 64.5992 27.7105C62.9023 27.7105 61.7609 29.1912 61.7609 31.3666C61.7609 33.5619 62.9023 35.0321 64.5992 35.0321C66.3264 35.0321 67.4584 33.5924 67.4584 31.3666Z" fill="#111218"/>
<path d="M81.6501 31.3666C81.6501 34.7524 79.8505 36.9277 77.1348 36.9277C76.4469 36.9639 75.7627 36.8044 75.1606 36.4672C74.5586 36.1301 74.063 35.6291 73.7305 35.0215H73.6791V40.4181H71.4583V25.9182H73.6079V27.7304H73.6488C73.9965 27.1258 74.5005 26.6273 75.1071 26.2881C75.7138 25.949 76.4004 25.7817 77.0939 25.8043C79.84 25.8043 81.6501 27.9902 81.6501 31.3666ZM79.3674 31.3666C79.3674 29.1607 78.2353 27.7105 76.5081 27.7105C74.8112 27.7105 73.6698 29.1912 73.6698 31.3666C73.6698 33.5619 74.8112 35.0321 76.5081 35.0321C78.2353 35.0321 79.3674 33.5924 79.3674 31.3666Z" fill="#111218"/>
<path d="M89.5208 32.6501C89.6853 34.1321 91.115 35.1051 93.0686 35.1051C94.9405 35.1051 96.2873 34.132 96.2873 32.7958C96.2873 31.6358 95.475 30.9413 93.5517 30.4653L91.6285 29.9988C88.9034 29.3359 87.6383 28.0526 87.6383 25.9701C87.6383 23.3917 89.8697 21.6206 93.0382 21.6206C96.1741 21.6206 98.3238 23.3917 98.3961 25.9701H96.1542C96.02 24.4787 94.7958 23.5785 93.0067 23.5785C91.2176 23.5785 89.9934 24.4893 89.9934 25.815C89.9934 26.8715 90.7753 27.4932 92.6881 27.9691L94.3231 28.3734C97.3679 29.0985 98.633 30.3302 98.633 32.516C98.633 35.3119 96.4215 37.063 92.904 37.063C89.6129 37.063 87.3909 35.353 87.2473 32.65L89.5208 32.6501Z" fill="#111218"/>
<path d="M103.426 23.3398V25.9183H105.483V27.6893H103.426V33.6959C103.426 34.629 103.838 35.0638 104.742 35.0638C104.986 35.0595 105.23 35.0423 105.473 35.0121V36.7726C105.066 36.8491 104.653 36.8837 104.239 36.876C102.049 36.876 101.194 36.0475 101.194 33.9344V27.6893H99.6211V25.9183H101.194V23.3398H103.426Z" fill="#111218"/>
<path d="M106.675 31.367C106.675 27.9388 108.68 25.7847 111.807 25.7847C114.944 25.7847 116.939 27.9388 116.939 31.367C116.939 34.8045 114.954 36.9493 111.807 36.9493C108.66 36.9493 106.675 34.8045 106.675 31.367ZM114.676 31.367C114.676 29.0153 113.606 27.6274 111.807 27.6274C110.007 27.6274 108.938 29.0259 108.938 31.367C108.938 33.728 110.007 35.1053 111.807 35.1053C113.606 35.1053 114.676 33.728 114.676 31.367Z" fill="#111218"/>
<path d="M118.77 25.9186H120.888V27.7731H120.939C121.083 27.1939 121.42 26.6821 121.894 26.3236C122.368 25.9651 122.95 25.7819 123.542 25.8046C123.798 25.8037 124.053 25.8317 124.303 25.8881V27.98C123.98 27.8805 123.643 27.8349 123.305 27.8448C122.982 27.8316 122.661 27.8889 122.362 28.0127C122.063 28.1366 121.795 28.324 121.575 28.5621C121.355 28.8003 121.189 29.0835 121.088 29.3924C120.987 29.7013 120.954 30.0285 120.991 30.3516V36.8141H118.77L118.77 25.9186Z" fill="#111218"/>
<path d="M134.543 33.614C134.244 35.5919 132.331 36.9493 129.884 36.9493C126.736 36.9493 124.783 34.8256 124.783 31.4187C124.783 28.0011 126.747 25.7847 129.791 25.7847C132.784 25.7847 134.666 27.8554 134.666 31.1589V31.9252H127.025V32.0603C126.989 32.4613 127.039 32.8653 127.171 33.2454C127.303 33.6254 127.513 33.973 127.788 34.2649C128.064 34.5568 128.397 34.7863 128.768 34.9383C129.138 35.0903 129.536 35.1613 129.935 35.1465C130.46 35.196 130.987 35.0736 131.437 34.7975C131.887 34.5213 132.237 34.1063 132.434 33.614L134.543 33.614ZM127.035 30.3621H132.444C132.464 30.0016 132.41 29.6408 132.285 29.3024C132.16 28.964 131.967 28.6553 131.717 28.3956C131.468 28.1359 131.168 27.931 130.837 27.7935C130.505 27.656 130.149 27.5891 129.791 27.5969C129.429 27.5947 129.07 27.6647 128.736 27.8027C128.401 27.9408 128.097 28.1443 127.841 28.4014C127.584 28.6585 127.381 28.9641 127.243 29.3006C127.105 29.6372 127.034 29.9979 127.035 30.3621Z" fill="#111218"/>
<path d="M49.0271 10.6214C49.4927 10.5878 49.9599 10.6586 50.395 10.8288C50.8302 10.999 51.2224 11.2644 51.5434 11.6057C51.8643 11.947 52.1061 12.3558 52.2512 12.8026C52.3962 13.2494 52.441 13.723 52.3823 14.1894C52.3823 16.4834 51.1511 17.8021 49.0271 17.8021H46.4514V10.6214H49.0271ZM47.5589 16.7866H48.9034C49.2361 16.8066 49.569 16.7517 49.878 16.6258C50.187 16.4999 50.4642 16.3062 50.6894 16.0588C50.9147 15.8114 51.0823 15.5166 51.1802 15.1957C51.278 14.8749 51.3036 14.5361 51.255 14.204C51.3 13.8733 51.2719 13.5366 51.1726 13.2181C51.0732 12.8996 50.9052 12.6072 50.6804 12.3617C50.4557 12.1163 50.1798 11.924 49.8726 11.7986C49.5654 11.6731 49.2344 11.6177 48.9034 11.6362H47.5589V16.7866Z" fill="#111218"/>
<path d="M53.6336 15.09C53.5998 14.7339 53.6402 14.3746 53.7524 14.0351C53.8645 13.6957 54.0459 13.3836 54.2848 13.1188C54.5237 12.8541 54.815 12.6426 55.1399 12.4978C55.4647 12.3531 55.8161 12.2783 56.1713 12.2783C56.5266 12.2783 56.8779 12.3531 57.2028 12.4978C57.5277 12.6426 57.8189 12.8541 58.0579 13.1188C58.2968 13.3836 58.4782 13.6957 58.5903 14.0351C58.7024 14.3746 58.7429 14.7339 58.7091 15.09C58.7435 15.4465 58.7036 15.8063 58.5917 16.1463C58.4799 16.4863 58.2986 16.7989 58.0596 17.0642C57.8206 17.3294 57.5292 17.5414 57.2039 17.6864C56.8787 17.8315 56.527 17.9064 56.1713 17.9064C55.8157 17.9064 55.4639 17.8315 55.1387 17.6864C54.8135 17.5414 54.522 17.3294 54.283 17.0642C54.044 16.7989 53.8628 16.4863 53.7509 16.1463C53.6391 15.8063 53.5991 15.4465 53.6336 15.09ZM57.6167 15.09C57.6167 13.9153 57.0927 13.2284 56.1731 13.2284C55.2499 13.2284 54.7306 13.9153 54.7306 15.09C54.7306 16.274 55.25 16.9556 56.1731 16.9556C57.0927 16.9556 57.6167 16.2693 57.6167 15.09Z" fill="#111218"/>
<path d="M65.4555 17.8018H64.3538L63.2416 13.8107H63.1576L62.0501 17.8018H60.9589L59.4756 12.3828H60.5528L61.5168 16.5178H61.5961L62.7025 12.3828H63.7213L64.8277 16.5178H64.9117L65.871 12.3828H66.933L65.4555 17.8018Z" fill="#111218"/>
<path d="M68.1812 12.3829H69.2035V13.2437H69.2828C69.4175 12.9345 69.6445 12.6754 69.9324 12.5023C70.2203 12.3292 70.5546 12.2509 70.8887 12.2783C71.1505 12.2585 71.4135 12.2982 71.658 12.3946C71.9025 12.491 72.1223 12.6415 72.3012 12.8351C72.4801 13.0287 72.6134 13.2603 72.6913 13.5128C72.7692 13.7653 72.7897 14.0322 72.7513 14.2938V17.8018H71.6893V14.5623C71.6893 13.6915 71.3135 13.2584 70.5281 13.2584C70.3503 13.2501 70.1728 13.2806 70.0079 13.3477C69.8429 13.4149 69.6943 13.5172 69.5722 13.6477C69.4502 13.7781 69.3576 13.9336 69.3008 14.1034C69.244 14.2733 69.2243 14.4535 69.2432 14.6317V17.8018H68.1812L68.1812 12.3829Z" fill="#111218"/>
<path d="M74.4431 10.2676H75.5051V17.8019H74.4431V10.2676Z" fill="#111218"/>
<path d="M76.9812 15.0901C76.9474 14.7339 76.9879 14.3746 77.1001 14.0352C77.2122 13.6957 77.3936 13.3836 77.6326 13.1188C77.8716 12.8541 78.1628 12.6426 78.4877 12.4978C78.8126 12.3531 79.164 12.2783 79.5193 12.2783C79.8745 12.2783 80.2259 12.3531 80.5508 12.4978C80.8757 12.6426 81.167 12.8541 81.4059 13.1188C81.6449 13.3836 81.8263 13.6957 81.9384 14.0352C82.0506 14.3746 82.0911 14.7339 82.0573 15.0901C82.0917 15.4466 82.0517 15.8064 81.9398 16.1464C81.8279 16.4864 81.6467 16.799 81.4076 17.0643C81.1686 17.3295 80.8771 17.5415 80.5519 17.6865C80.2267 17.8316 79.8749 17.9065 79.5193 17.9065C79.1636 17.9065 78.8118 17.8316 78.4866 17.6865C78.1614 17.5415 77.8699 17.3295 77.6309 17.0643C77.3918 16.799 77.2106 16.4864 77.0987 16.1464C76.9868 15.8064 76.9468 15.4466 76.9812 15.0901ZM80.9643 15.0901C80.9643 13.9155 80.4403 13.2285 79.5207 13.2285C78.5976 13.2285 78.0783 13.9155 78.0783 15.0901C78.0783 16.2741 78.5976 16.9557 79.5207 16.9557C80.4403 16.9557 80.9643 16.2694 80.9643 15.0901Z" fill="#111218"/>
<path d="M83.175 16.2694C83.175 15.2939 83.8963 14.7316 85.1765 14.6517L86.6342 14.5671V14.0993C86.6342 13.527 86.2584 13.2038 85.5325 13.2038C84.9396 13.2038 84.5288 13.423 84.411 13.8061H83.3828C83.4913 12.8753 84.3608 12.2783 85.5815 12.2783C86.9306 12.2783 87.6915 12.9546 87.6915 14.0993V17.8018H86.6692V17.0403H86.5852C86.4146 17.3135 86.1751 17.5362 85.8911 17.6856C85.6072 17.8351 85.2889 17.906 84.9688 17.8911C84.7429 17.9148 84.5146 17.8905 84.2986 17.8199C84.0825 17.7492 83.8836 17.6338 83.7146 17.481C83.5456 17.3282 83.4103 17.1414 83.3173 16.9328C83.2244 16.7241 83.1759 16.4981 83.175 16.2694ZM86.6342 15.8063V15.3533L85.3201 15.4379C84.579 15.4878 84.2429 15.7417 84.2429 16.2194C84.2429 16.7071 84.663 16.9909 85.2408 16.9909C85.41 17.0082 85.581 16.991 85.7436 16.9403C85.9061 16.8897 86.0568 16.8066 86.1869 16.6961C86.3169 16.5856 86.4235 16.4498 86.5003 16.297C86.5772 16.1441 86.6227 15.9773 86.6342 15.8063Z" fill="#111218"/>
<path d="M89.0879 15.0901C89.0879 13.3778 89.962 12.2931 91.3216 12.2931C91.6579 12.2775 91.9917 12.3586 92.2839 12.5269C92.5761 12.6953 92.8147 12.9439 92.9718 13.2438H93.0512V10.2676H94.1132V17.8019H93.0955V16.9458H93.0115C92.8423 17.2436 92.5954 17.4891 92.2975 17.6558C91.9996 17.8224 91.6622 17.9039 91.3216 17.8912C89.9527 17.8913 89.0879 16.8065 89.0879 15.0901ZM90.185 15.0901C90.185 16.2395 90.723 16.9311 91.6228 16.9311C92.5179 16.9311 93.0711 16.2295 93.0711 15.0948C93.0711 13.9654 92.5121 13.2538 91.6228 13.2538C90.7288 13.2538 90.185 13.9501 90.185 15.0901Z" fill="#111218"/>
<path d="M98.5066 15.09C98.4728 14.7339 98.5133 14.3746 98.6254 14.0351C98.7375 13.6957 98.9189 13.3836 99.1578 13.1188C99.3968 12.8541 99.688 12.6426 100.013 12.4978C100.338 12.3531 100.689 12.2783 101.044 12.2783C101.4 12.2783 101.751 12.3531 102.076 12.4978C102.401 12.6426 102.692 12.8541 102.931 13.1188C103.17 13.3836 103.351 13.6957 103.463 14.0351C103.575 14.3746 103.616 14.7339 103.582 15.09C103.617 15.4465 103.577 15.8063 103.465 16.1463C103.353 16.4863 103.172 16.7989 102.933 17.0642C102.694 17.3294 102.402 17.5414 102.077 17.6864C101.752 17.8315 101.4 17.9064 101.044 17.9064C100.689 17.9064 100.337 17.8315 100.012 17.6864C99.6865 17.5414 99.3951 17.3294 99.1561 17.0642C98.9171 16.7989 98.7358 16.4863 98.624 16.1463C98.5121 15.8063 98.4722 15.4465 98.5066 15.09ZM102.49 15.09C102.49 13.9153 101.966 13.2284 101.046 13.2284C100.123 13.2284 99.6037 13.9153 99.6037 15.09C99.6037 16.274 100.123 16.9556 101.046 16.9556C101.966 16.9556 102.49 16.2693 102.49 15.09Z" fill="#111218"/>
<path d="M105.007 12.3829H106.029V13.2437H106.109C106.243 12.9345 106.47 12.6754 106.758 12.5023C107.046 12.3292 107.38 12.2509 107.715 12.2783C107.976 12.2585 108.239 12.2982 108.484 12.3946C108.728 12.491 108.948 12.6415 109.127 12.8351C109.306 13.0287 109.439 13.2603 109.517 13.5128C109.595 13.7653 109.616 14.0322 109.577 14.2938V17.8018H108.515V14.5623C108.515 13.6915 108.139 13.2584 107.354 13.2584C107.176 13.2501 106.999 13.2806 106.834 13.3477C106.669 13.4149 106.52 13.5172 106.398 13.6477C106.276 13.7781 106.184 13.9336 106.127 14.1034C106.07 14.2733 106.05 14.4535 106.069 14.6317V17.8018H105.007V12.3829Z" fill="#111218"/>
<path d="M115.579 11.0337V12.4075H116.744V13.3083H115.579V16.0948C115.579 16.6624 115.811 16.911 116.34 16.911C116.475 16.9105 116.61 16.9023 116.744 16.8863V17.7771C116.554 17.8115 116.361 17.8297 116.167 17.8317C114.986 17.8317 114.515 17.4134 114.515 16.3686V13.3083H113.661V12.4075H114.515V11.0337H115.579Z" fill="#111218"/>
<path d="M118.195 10.2676H119.248V13.2538H119.332C119.473 12.9417 119.706 12.6811 120 12.5074C120.293 12.3337 120.633 12.2553 120.972 12.2831C121.233 12.2688 121.493 12.3126 121.735 12.4113C121.977 12.5101 122.194 12.6613 122.371 12.8543C122.548 13.0472 122.68 13.2771 122.759 13.5276C122.838 13.7781 122.86 14.0429 122.826 14.3033V17.8019H121.763V14.5671C121.763 13.7016 121.362 13.2632 120.612 13.2632C120.429 13.2481 120.246 13.2734 120.074 13.3372C119.902 13.4011 119.746 13.502 119.617 13.6328C119.488 13.7637 119.389 13.9214 119.327 14.0948C119.264 14.2683 119.241 14.4533 119.257 14.637V17.8019H118.195L118.195 10.2676Z" fill="#111218"/>
<path d="M129.018 16.3388C128.874 16.834 128.561 17.2624 128.135 17.549C127.709 17.8356 127.196 17.9622 126.686 17.9065C126.332 17.916 125.98 17.8476 125.654 17.7061C125.328 17.5647 125.037 17.3536 124.801 17.0875C124.564 16.8213 124.388 16.5066 124.284 16.165C124.181 15.8235 124.152 15.4633 124.201 15.1095C124.153 14.7546 124.183 14.3937 124.286 14.0511C124.389 13.7085 124.564 13.3923 124.8 13.1239C125.035 12.8554 125.325 12.641 125.65 12.4951C125.974 12.3493 126.326 12.2754 126.682 12.2784C128.179 12.2784 129.082 13.3085 129.082 15.0102V15.3834H125.283V15.4433C125.266 15.6421 125.291 15.8423 125.355 16.0309C125.42 16.2196 125.523 16.3925 125.658 16.5387C125.793 16.6849 125.957 16.801 126.139 16.8797C126.321 16.9584 126.517 16.9979 126.716 16.9957C126.97 17.0264 127.227 16.9804 127.455 16.8634C127.683 16.7464 127.871 16.5638 127.996 16.3388L129.018 16.3388ZM125.282 14.5924H128.001C128.014 14.4105 127.989 14.2279 127.928 14.0561C127.868 13.8844 127.772 13.7273 127.647 13.5951C127.522 13.4629 127.371 13.3585 127.204 13.2885C127.037 13.2184 126.857 13.1844 126.676 13.1886C126.492 13.1863 126.31 13.221 126.14 13.2908C125.97 13.3605 125.815 13.4638 125.685 13.5946C125.555 13.7255 125.453 13.8812 125.384 14.0525C125.315 14.2239 125.28 14.4075 125.282 14.5924Z" fill="#111218"/>
</svg>
