<svg width="136" height="35" viewBox="0 0 136 35" fill="none" xmlns="http://www.w3.org/2000/svg">
<path d="M20.2211 16.7903C20.2358 15.6519 20.5388 14.5356 21.1019 13.5455C21.6649 12.5553 22.4698 11.7234 23.4416 11.1271C22.8242 10.2471 22.0098 9.52296 21.063 9.01208C20.1162 8.50121 19.063 8.21772 17.9873 8.18413C15.6924 7.94372 13.4676 9.55467 12.2982 9.55467C11.1062 9.55467 9.30566 8.208 7.36682 8.24781C6.11272 8.28825 4.8905 8.65223 3.81925 9.30427C2.748 9.95632 1.86425 10.8742 1.2541 11.9685C-1.38891 16.5356 0.582539 23.2477 3.11433 26.9394C4.38103 28.7471 5.86145 30.7663 7.79854 30.6947C9.69411 30.6163 10.4021 29.4883 12.6902 29.4883C14.957 29.4883 15.6212 30.6947 17.5976 30.6492C19.6317 30.6162 20.9132 28.8335 22.1355 27.0086C23.0456 25.7206 23.7459 24.297 24.2106 22.7906C23.0288 22.2917 22.0204 21.4568 21.311 20.3897C20.6015 19.3227 20.2225 18.0709 20.2211 16.7903Z" fill="#F9F9FB"/>
<path d="M16.4885 5.75616C17.5976 4.42738 18.1439 2.71947 18.0116 0.995117C16.3173 1.17273 14.7522 1.98095 13.6281 3.25875C13.0786 3.88298 12.6577 4.6092 12.3895 5.39589C12.1213 6.18257 12.0111 7.0143 12.0651 7.84353C12.9126 7.85223 13.751 7.6689 14.5172 7.30734C15.2834 6.94577 15.9575 6.41539 16.4885 5.75616Z" fill="#F9F9FB"/>
<path d="M44.1819 26.1181H37.7133L36.1598 30.6961H33.4199L39.547 13.7585H42.3936L48.5206 30.6961H45.734L44.1819 26.1181ZM38.3832 24.0055H43.5107L40.983 16.5757H40.9123L38.3832 24.0055Z" fill="#F9F9FB"/>
<path d="M61.7525 24.5224C61.7525 28.3599 59.6946 30.8253 56.5891 30.8253C55.8024 30.8664 55.02 30.6856 54.3315 30.3035C53.643 29.9214 53.0763 29.3535 52.6961 28.6648H52.6374V34.7813H50.0977V18.3473H52.556V20.4012H52.6027C53.0003 19.7159 53.5767 19.151 54.2704 18.7665C54.9641 18.3821 55.7493 18.1926 56.5424 18.2181C59.6826 18.2181 61.7525 20.6956 61.7525 24.5224ZM59.1421 24.5224C59.1421 22.0223 57.8476 20.3786 55.8724 20.3786C53.9319 20.3786 52.6267 22.0569 52.6267 24.5224C52.6267 27.0105 53.9319 28.6769 55.8724 28.6769C57.8476 28.6769 59.1421 27.0452 59.1421 24.5224Z" fill="#F9F9FB"/>
<path d="M75.3709 24.5224C75.3709 28.3598 73.313 30.8253 70.2075 30.8253C69.4208 30.8664 68.6384 30.6855 67.9499 30.3034C67.2614 29.9214 66.6947 29.3535 66.3145 28.6648H66.2558V34.7813H63.7161V18.3473H66.1743V20.4012H66.2211C66.6187 19.7159 67.195 19.1509 67.8887 18.7665C68.5825 18.3821 69.3677 18.1926 70.1607 18.2181C73.301 18.2181 75.3709 20.6956 75.3709 24.5224ZM72.7605 24.5224C72.7605 22.0223 71.466 20.3786 69.4908 20.3786C67.5503 20.3786 66.2451 22.0569 66.2451 24.5224C66.2451 27.0105 67.5503 28.6769 69.4908 28.6769C71.466 28.6769 72.7605 27.0452 72.7605 24.5224Z" fill="#F9F9FB"/>
<path d="M84.3715 25.9768C84.5597 27.6565 86.1946 28.7593 88.4286 28.7593C90.5693 28.7593 92.1094 27.6564 92.1094 26.1419C92.1094 24.8273 91.1805 24.0401 88.9811 23.5006L86.7818 22.9718C83.6655 22.2206 82.2189 20.766 82.2189 18.4058C82.2189 15.4834 84.7706 13.4761 88.3939 13.4761C91.9799 13.4761 94.4382 15.4834 94.521 18.4058H91.9572C91.8037 16.7155 90.4038 15.6952 88.3579 15.6952C86.312 15.6952 84.912 16.7275 84.912 18.2299C84.912 19.4274 85.8062 20.132 87.9935 20.6714L89.8633 21.1296C93.3452 21.9515 94.7919 23.3474 94.7919 25.8249C94.7919 28.9937 92.2628 30.9783 88.2404 30.9783C84.4769 30.9783 81.9359 29.0403 81.7717 25.9767L84.3715 25.9768Z" fill="#F9F9FB"/>
<path d="M100.273 15.4248V18.3472H102.625V20.3545H100.273V27.1623C100.273 28.2199 100.744 28.7127 101.778 28.7127C102.057 28.7078 102.336 28.6883 102.613 28.654V30.6494C102.148 30.7361 101.676 30.7753 101.203 30.7666C98.6978 30.7666 97.7209 29.8275 97.7209 27.4326V20.3545H95.9219V18.3472H97.7208V15.4248H100.273Z" fill="#F9F9FB"/>
<path d="M103.988 24.5222C103.988 20.6368 106.281 18.1953 109.857 18.1953C113.444 18.1953 115.726 20.6368 115.726 24.5222C115.726 28.4183 113.456 30.8492 109.857 30.8492C106.258 30.8492 103.988 28.4183 103.988 24.5222ZM113.138 24.5222C113.138 21.8569 111.914 20.2839 109.857 20.2839C107.799 20.2839 106.576 21.8689 106.576 24.5222C106.576 27.1982 107.799 28.7593 109.857 28.7593C111.914 28.7593 113.138 27.1982 113.138 24.5222Z" fill="#F9F9FB"/>
<path d="M117.819 18.3472H120.242V20.449H120.3C120.464 19.7926 120.85 19.2125 121.392 18.8062C121.934 18.3999 122.599 18.1922 123.276 18.218C123.569 18.2169 123.861 18.2487 124.147 18.3125V20.6835C123.777 20.5708 123.392 20.5191 123.005 20.5303C122.637 20.5154 122.269 20.5803 121.927 20.7206C121.586 20.861 121.279 21.0734 121.027 21.3433C120.776 21.6132 120.586 21.9342 120.471 22.2843C120.355 22.6344 120.317 23.0052 120.359 23.3714V30.696H117.819L117.819 18.3472Z" fill="#F9F9FB"/>
<path d="M135.856 27.069C135.515 29.3107 133.327 30.8492 130.529 30.8492C126.93 30.8492 124.695 28.4423 124.695 24.5808C124.695 20.7074 126.942 18.1953 130.422 18.1953C133.845 18.1953 135.998 20.5423 135.998 24.2865V25.1549H127.259V25.3081C127.219 25.7626 127.276 26.2204 127.426 26.6512C127.577 27.082 127.818 27.4759 128.132 27.8067C128.447 28.1375 128.829 28.3977 129.252 28.57C129.676 28.7423 130.131 28.8227 130.588 28.8059C131.188 28.862 131.79 28.7233 132.305 28.4103C132.82 28.0974 133.22 27.627 133.445 27.069L135.856 27.069ZM127.271 23.3834H133.457C133.48 22.9748 133.418 22.5658 133.275 22.1823C133.132 21.7987 132.911 21.4488 132.626 21.1545C132.341 20.8602 131.998 20.6279 131.619 20.4721C131.239 20.3163 130.832 20.2404 130.422 20.2492C130.009 20.2468 129.599 20.3261 129.216 20.4826C128.833 20.6391 128.485 20.8697 128.192 21.1611C127.899 21.4525 127.667 21.7989 127.509 22.1803C127.351 22.5617 127.27 22.9706 127.271 23.3834Z" fill="#F9F9FB"/>
<path d="M38.065 1.00972C38.5975 0.971588 39.1318 1.05187 39.6294 1.24478C40.127 1.43769 40.5755 1.73841 40.9425 2.12526C41.3096 2.51211 41.586 2.97545 41.7519 3.48184C41.9178 3.98824 41.9691 4.52507 41.9019 5.05363C41.9019 7.65366 40.494 9.14821 38.065 9.14821H35.1196V1.00972H38.065ZM36.3861 7.99725H37.9236C38.304 8.01995 38.6848 7.95769 39.0381 7.815C39.3914 7.67231 39.7084 7.45279 39.966 7.17241C40.2236 6.89202 40.4153 6.55784 40.5272 6.19419C40.6391 5.83053 40.6683 5.44656 40.6127 5.07021C40.6643 4.69535 40.6321 4.31376 40.5185 3.95277C40.4049 3.59178 40.2127 3.26033 39.9557 2.98218C39.6987 2.70403 39.3832 2.48606 39.0319 2.34389C38.6806 2.20171 38.3021 2.13886 37.9236 2.15982H36.3861V7.99725Z" fill="#F9F9FB"/>
<path d="M43.3328 6.07441C43.2941 5.67079 43.3404 5.26355 43.4686 4.87882C43.5969 4.4941 43.8043 4.14037 44.0775 3.84032C44.3508 3.54027 44.6838 3.30054 45.0553 3.13649C45.4268 2.97244 45.8286 2.8877 46.2349 2.8877C46.6411 2.8877 47.0429 2.97244 47.4144 3.13649C47.7859 3.30054 48.119 3.54027 48.3922 3.84032C48.6654 4.14037 48.8728 4.4941 49.0011 4.87882C49.1293 5.26355 49.1756 5.67079 49.1369 6.07441C49.1763 6.47844 49.1306 6.88623 49.0027 7.27159C48.8748 7.65694 48.6675 8.01132 48.3942 8.31195C48.1209 8.61259 47.7876 8.85282 47.4157 9.01723C47.0438 9.18163 46.6416 9.26656 46.2349 9.26656C45.8281 9.26656 45.4259 9.18163 45.054 9.01723C44.6821 8.85282 44.3488 8.61259 44.0755 8.31195C43.8022 8.01132 43.5949 7.65694 43.467 7.27159C43.3391 6.88623 43.2934 6.47844 43.3328 6.07441ZM47.8877 6.07441C47.8877 4.74309 47.2885 3.96455 46.2369 3.96455C45.1812 3.96455 44.5874 4.74309 44.5874 6.07442C44.5874 7.4164 45.1812 8.18894 46.2369 8.18894C47.2885 8.18893 47.8877 7.41105 47.8877 6.07441Z" fill="#F9F9FB"/>
<path d="M56.8518 9.14813H55.592L54.3201 4.6247H54.224L52.9575 9.14813H51.7097L50.0134 3.00635H51.2452L52.3476 7.69289H52.4384L53.7035 3.00635H54.8686L56.1338 7.69289H56.2299L57.3269 3.00635H58.5414L56.8518 9.14813Z" fill="#F9F9FB"/>
<path d="M59.9685 3.00619H61.1376V3.98187H61.2284C61.3823 3.63144 61.642 3.33768 61.9711 3.14154C62.3003 2.94539 62.6826 2.85664 63.0647 2.88764C63.3641 2.86517 63.6648 2.91023 63.9444 3.01948C64.224 3.12872 64.4754 3.29936 64.68 3.51874C64.8845 3.73813 65.037 4.00063 65.1261 4.28682C65.2152 4.573 65.2387 4.87553 65.1947 5.17199V9.14791H63.9802V5.47637C63.9802 4.48937 63.5505 3.99852 62.6523 3.99852C62.449 3.98907 62.2461 4.02361 62.0574 4.09976C61.8688 4.17591 61.6988 4.29187 61.5593 4.4397C61.4197 4.58754 61.3138 4.76374 61.2489 4.95623C61.1839 5.14873 61.1614 5.35297 61.183 5.55494V9.14798H59.9685L59.9685 3.00619Z" fill="#F9F9FB"/>
<path d="M67.1296 0.608643H68.3441V9.148H67.1296V0.608643Z" fill="#F9F9FB"/>
<path d="M70.032 6.07452C69.9933 5.67087 70.0396 5.26362 70.1679 4.87888C70.2962 4.49413 70.5036 4.14039 70.7769 3.84034C71.0501 3.54028 71.3832 3.30054 71.7548 3.13649C72.1263 2.97244 72.5281 2.8877 72.9344 2.8877C73.3407 2.8877 73.7424 2.97244 74.114 3.13649C74.4855 3.30054 74.8186 3.54028 75.0919 3.84034C75.3651 4.14039 75.5726 4.49413 75.7008 4.87888C75.8291 5.26362 75.8754 5.67087 75.8367 6.07452C75.8761 6.47857 75.8304 6.88637 75.7024 7.27172C75.5745 7.65707 75.3672 8.01144 75.0938 8.31207C74.8205 8.61269 74.4872 8.85292 74.1153 9.01732C73.7434 9.18171 73.3411 9.26664 72.9344 9.26664C72.5276 9.26664 72.1254 9.18171 71.7535 9.01732C71.3816 8.85292 71.0483 8.61269 70.7749 8.31207C70.5016 8.01144 70.2943 7.65707 70.1663 7.27172C70.0384 6.88637 69.9926 6.47857 70.032 6.07452ZM74.5869 6.07452C74.5869 4.74321 73.9877 3.96466 72.936 3.96466C71.8804 3.96466 71.2866 4.74321 71.2866 6.07453C71.2866 7.41651 71.8804 8.18906 72.936 8.18906C73.9877 8.18904 74.5869 7.41117 74.5869 6.07452Z" fill="#F9F9FB"/>
<path d="M77.115 7.41111C77.115 6.30556 77.9398 5.66821 79.4038 5.57763L81.0707 5.48173V4.9516C81.0707 4.30292 80.6409 3.93663 79.8108 3.93663C79.1329 3.93663 78.6631 4.18505 78.5283 4.61927H77.3525C77.4767 3.56434 78.4709 2.8877 79.8669 2.8877C81.4097 2.8877 82.2798 3.65424 82.2798 4.9516V9.14802H81.1107V8.2849H81.0146C80.8196 8.59451 80.5457 8.8469 80.221 9.01632C79.8962 9.18574 79.5323 9.26611 79.1662 9.24921C78.9079 9.27603 78.6468 9.24852 78.3998 9.16846C78.1527 9.0884 77.9253 8.95756 77.732 8.78438C77.5387 8.6112 77.384 8.39952 77.2777 8.16299C77.1714 7.92646 77.116 7.67033 77.115 7.41111ZM81.0707 6.8863V6.37283L79.5679 6.46873C78.7205 6.52533 78.3361 6.81304 78.3361 7.35449C78.3361 7.90726 78.8166 8.22894 79.4772 8.22894C79.6708 8.24849 79.8663 8.22899 80.0522 8.17158C80.2381 8.11417 80.4105 8.02003 80.5591 7.89476C80.7078 7.76949 80.8297 7.61566 80.9176 7.44241C81.0055 7.26916 81.0575 7.08004 81.0707 6.8863Z" fill="#F9F9FB"/>
<path d="M83.8765 6.07447C83.8765 4.13376 84.8761 2.90434 86.4308 2.90434C86.8154 2.88665 87.1971 2.97859 87.5313 3.1694C87.8655 3.36021 88.1383 3.64201 88.3179 3.98186H88.4087V0.608643H89.6231V9.148H88.4594V8.17764H88.3633C88.1698 8.51521 87.8874 8.7935 87.5468 8.98238C87.2062 9.17127 86.8203 9.26354 86.4309 9.24922C84.8654 9.24928 83.8765 8.01983 83.8765 6.07447ZM85.131 6.07447C85.131 7.37715 85.7463 8.16103 86.7752 8.16103C87.7988 8.16103 88.4314 7.36584 88.4314 6.0798C88.4314 4.79976 87.7922 3.99324 86.7752 3.99324C85.7529 3.99324 85.131 4.78243 85.131 6.07447Z" fill="#F9F9FB"/>
<path d="M94.6473 6.07441C94.6086 5.67079 94.6548 5.26355 94.7831 4.87882C94.9113 4.4941 95.1187 4.14037 95.392 3.84032C95.6652 3.54027 95.9983 3.30054 96.3698 3.13649C96.7413 2.97244 97.1431 2.8877 97.5493 2.8877C97.9556 2.8877 98.3573 2.97244 98.7288 3.13649C99.1003 3.30054 99.4334 3.54027 99.7066 3.84032C99.9799 4.14037 100.187 4.4941 100.316 4.87882C100.444 5.26355 100.49 5.67079 100.451 6.07441C100.491 6.47844 100.445 6.88623 100.317 7.27159C100.189 7.65694 99.982 8.01132 99.7087 8.31195C99.4353 8.61259 99.102 8.85282 98.7302 9.01723C98.3583 9.18163 97.956 9.26656 97.5493 9.26656C97.1426 9.26656 96.7403 9.18163 96.3684 9.01723C95.9966 8.85282 95.6633 8.61259 95.3899 8.31195C95.1166 8.01132 94.9094 7.65694 94.7815 7.27159C94.6536 6.88623 94.6079 6.47844 94.6473 6.07441ZM99.2022 6.07441C99.2022 4.74309 98.6029 3.96455 97.5513 3.96455C96.4957 3.96455 95.9018 4.74309 95.9018 6.07442C95.9018 7.4164 96.4957 8.18894 97.5513 8.18894C98.603 8.18893 99.2022 7.41105 99.2022 6.07441Z" fill="#F9F9FB"/>
<path d="M102.081 3.00619H103.25V3.98187H103.341C103.495 3.63144 103.754 3.33768 104.083 3.14154C104.413 2.94539 104.795 2.85664 105.177 2.88764C105.476 2.86517 105.777 2.91023 106.057 3.01948C106.336 3.12872 106.588 3.29936 106.792 3.51874C106.997 3.73813 107.149 4.00063 107.238 4.28682C107.328 4.573 107.351 4.87553 107.307 5.17199V9.14791H106.093V5.47637C106.093 4.48937 105.663 3.99852 104.765 3.99852C104.561 3.98907 104.358 4.02361 104.17 4.09976C103.981 4.17591 103.811 4.29187 103.672 4.4397C103.532 4.58754 103.426 4.76374 103.361 4.95623C103.296 5.14873 103.274 5.35297 103.295 5.55494V9.14798H102.081V3.00619Z" fill="#F9F9FB"/>
<path d="M114.17 1.47705V3.03414H115.503V4.05511H114.17V7.21325C114.17 7.8566 114.435 8.13831 115.04 8.13831C115.195 8.13782 115.349 8.12848 115.503 8.11034V9.11998C115.285 9.15892 115.064 9.17963 114.843 9.18191C113.492 9.18191 112.954 8.70772 112.954 7.52359V4.05506H111.977V3.03408H112.954V1.47705H114.17Z" fill="#F9F9FB"/>
<path d="M117.162 0.608643H118.366V3.99322H118.462C118.623 3.63952 118.89 3.3441 119.226 3.14722C119.562 2.95034 119.95 2.86157 120.338 2.893C120.636 2.87683 120.934 2.92646 121.21 3.03836C121.487 3.15026 121.735 3.32167 121.937 3.54037C122.14 3.75906 122.291 4.01965 122.381 4.30353C122.471 4.58742 122.497 4.88761 122.457 5.18269V9.14801H121.242V5.48171C121.242 4.5007 120.784 4.00386 119.926 4.00386C119.717 3.98678 119.507 4.01542 119.311 4.08778C119.114 4.16014 118.936 4.27448 118.788 4.42279C118.641 4.5711 118.527 4.74981 118.456 4.94641C118.385 5.143 118.358 5.35274 118.376 5.56095V9.14798H117.162L117.162 0.608643Z" fill="#F9F9FB"/>
<path d="M129.539 7.48956C129.374 8.05088 129.016 8.53642 128.529 8.86125C128.041 9.18607 127.455 9.3295 126.872 9.26642C126.467 9.2771 126.064 9.1996 125.692 9.0393C125.319 8.87899 124.986 8.63973 124.716 8.33811C124.445 8.03649 124.244 7.67973 124.125 7.29262C124.007 6.9055 123.974 6.49728 124.03 6.09631C123.976 5.6941 124.009 5.285 124.127 4.89672C124.245 4.50845 124.446 4.15004 124.715 3.84578C124.984 3.54152 125.315 3.2985 125.686 3.13318C126.058 2.96786 126.46 2.88409 126.867 2.88755C128.579 2.88755 129.612 4.0551 129.612 5.98373V6.40667H125.267V6.4746C125.248 6.69999 125.276 6.92685 125.35 7.14065C125.424 7.35445 125.542 7.55047 125.696 7.71613C125.851 7.88179 126.038 8.01344 126.246 8.10263C126.454 8.19183 126.679 8.23661 126.906 8.2341C127.196 8.26891 127.49 8.2167 127.751 8.08411C128.012 7.95153 128.227 7.74456 128.37 7.48952L129.539 7.48956ZM125.267 5.51023H128.375C128.39 5.3041 128.362 5.09705 128.293 4.90239C128.223 4.70773 128.113 4.52976 127.971 4.37992C127.828 4.23008 127.656 4.11168 127.464 4.03233C127.273 3.95299 127.067 3.91444 126.86 3.91918C126.65 3.91655 126.442 3.95591 126.247 4.03494C126.053 4.11397 125.876 4.23108 125.727 4.37936C125.579 4.52764 125.462 4.70409 125.383 4.89831C125.303 5.09253 125.264 5.30059 125.267 5.51023Z" fill="#F9F9FB"/>
</svg>
