<svg width="136" height="35" viewBox="0 0 136 35" fill="none" xmlns="http://www.w3.org/2000/svg">
<path d="M20.2211 16.2542C20.2358 15.1157 20.5388 13.9995 21.1019 13.0093C21.6649 12.0192 22.4698 11.1873 23.4416 10.591C22.8242 9.711 22.0098 8.98682 21.063 8.47595C20.1162 7.96508 19.063 7.68159 17.9873 7.648C15.6924 7.40759 13.4676 9.01854 12.2982 9.01854C11.1062 9.01854 9.30566 7.67186 7.36682 7.71168C6.11272 7.75212 4.8905 8.11609 3.81925 8.76814C2.748 9.42019 1.86425 10.3381 1.2541 11.4324C-1.38891 15.9995 0.582539 22.7115 3.11433 26.4032C4.38103 28.2109 5.86145 30.2302 7.79854 30.1586C9.69411 30.0801 10.4021 28.9522 12.6902 28.9522C14.957 28.9522 15.6212 30.1586 17.5976 30.1131C19.6317 30.0801 20.9132 28.2973 22.1355 26.4725C23.0456 25.1844 23.7459 23.7608 24.2106 22.2544C23.0288 21.7556 22.0204 20.9206 21.311 19.8536C20.6015 18.7866 20.2225 17.5348 20.2211 16.2542Z" fill="#111218"/>
<path d="M16.4885 5.22003C17.5976 3.89125 18.1439 2.18334 18.0116 0.458984C16.3173 0.636599 14.7522 1.44482 13.6281 2.72261C13.0786 3.34685 12.6577 4.07307 12.3895 4.85975C12.1213 5.64644 12.0111 6.47817 12.0651 7.30739C12.9126 7.3161 13.751 7.13277 14.5172 6.7712C15.2834 6.40964 15.9575 5.87926 16.4885 5.22003Z" fill="#111218"/>
<path d="M44.1819 25.5819H37.7133L36.1598 30.16H33.4199L39.547 13.2224H42.3936L48.5206 30.16H45.734L44.1819 25.5819ZM38.3832 23.4694H43.5107L40.983 16.0396H40.9123L38.3832 23.4694Z" fill="#111218"/>
<path d="M61.7525 23.9863C61.7525 27.8237 59.6946 30.2892 56.5891 30.2892C55.8024 30.3303 55.02 30.1494 54.3315 29.7673C53.643 29.3852 53.0763 28.8174 52.6961 28.1287H52.6374V34.2452H50.0977V17.8112H52.556V19.8651H52.6027C53.0003 19.1798 53.5767 18.6148 54.2704 18.2304C54.9641 17.846 55.7493 17.6564 56.5424 17.682C59.6826 17.682 61.7525 20.1595 61.7525 23.9863ZM59.1421 23.9863C59.1421 21.4861 57.8476 19.8425 55.8724 19.8425C53.9319 19.8425 52.6267 21.5208 52.6267 23.9863C52.6267 26.4744 53.9319 28.1407 55.8724 28.1407C57.8476 28.1407 59.1421 26.509 59.1421 23.9863Z" fill="#111218"/>
<path d="M75.3709 23.9863C75.3709 27.8237 73.313 30.2892 70.2075 30.2892C69.4208 30.3303 68.6384 30.1494 67.9499 29.7673C67.2614 29.3852 66.6947 28.8173 66.3145 28.1287H66.2558V34.2452H63.7161V17.8112H66.1743V19.8651H66.2211C66.6187 19.1797 67.195 18.6148 67.8887 18.2304C68.5825 17.846 69.3677 17.6564 70.1607 17.682C73.301 17.682 75.3709 20.1594 75.3709 23.9863ZM72.7605 23.9863C72.7605 21.4861 71.466 19.8424 69.4908 19.8424C67.5503 19.8424 66.2451 21.5207 66.2451 23.9863C66.2451 26.4744 67.5503 28.1407 69.4908 28.1407C71.466 28.1407 72.7605 26.509 72.7605 23.9863Z" fill="#111218"/>
<path d="M84.3715 25.4407C84.5597 27.1203 86.1946 28.2232 88.4286 28.2232C90.5693 28.2232 92.1094 27.1203 92.1094 25.6058C92.1094 24.2911 91.1805 23.5039 88.9811 22.9645L86.7818 22.4357C83.6655 21.6844 82.2189 20.2299 82.2189 17.8696C82.2189 14.9472 84.7706 12.9399 88.3939 12.9399C91.9799 12.9399 94.4382 14.9472 94.521 17.8696H91.9572C91.8037 16.1793 90.4038 15.159 88.3579 15.159C86.312 15.159 84.912 16.1913 84.912 17.6938C84.912 18.8913 85.8062 19.5959 87.9935 20.1353L89.8633 20.5935C93.3452 21.4153 94.7919 22.8113 94.7919 25.2887C94.7919 28.4575 92.2628 30.4422 88.2404 30.4422C84.4769 30.4422 81.9359 28.5041 81.7717 25.4406L84.3715 25.4407Z" fill="#111218"/>
<path d="M100.273 14.8887V17.8111H102.625V19.8184H100.273V26.6261C100.273 27.6837 100.744 28.1766 101.778 28.1766C102.057 28.1717 102.336 28.1521 102.613 28.1179V30.1132C102.148 30.1999 101.676 30.2392 101.203 30.2304C98.6978 30.2304 97.7209 29.2914 97.7209 26.8965V19.8184H95.9219V17.8111H97.7208V14.8887H100.273Z" fill="#111218"/>
<path d="M103.988 23.9861C103.988 20.1007 106.281 17.6592 109.857 17.6592C113.444 17.6592 115.726 20.1007 115.726 23.9861C115.726 27.8822 113.456 30.313 109.857 30.313C106.258 30.313 103.988 27.8822 103.988 23.9861ZM113.138 23.9861C113.138 21.3208 111.914 19.7477 109.857 19.7477C107.799 19.7477 106.576 21.3328 106.576 23.9861C106.576 26.6621 107.799 28.2232 109.857 28.2232C111.914 28.2232 113.138 26.6621 113.138 23.9861Z" fill="#111218"/>
<path d="M117.819 17.8111H120.242V19.9129H120.3C120.464 19.2565 120.85 18.6763 121.392 18.27C121.934 17.8637 122.599 17.656 123.276 17.6818C123.569 17.6808 123.861 17.7125 124.147 17.7764V20.1473C123.777 20.0347 123.392 19.9829 123.005 19.9942C122.637 19.9792 122.269 20.0442 121.927 20.1845C121.586 20.3248 121.279 20.5372 121.027 20.8071C120.776 21.0771 120.586 21.3981 120.471 21.7482C120.355 22.0983 120.317 22.4691 120.359 22.8353V30.1599H117.819L117.819 17.8111Z" fill="#111218"/>
<path d="M135.856 26.5329C135.515 28.7746 133.327 30.313 130.529 30.313C126.93 30.313 124.695 27.9061 124.695 24.0447C124.695 20.1713 126.942 17.6592 130.422 17.6592C133.845 17.6592 135.998 20.0061 135.998 23.7503V24.6188H127.259V24.772C127.219 25.2264 127.276 25.6843 127.426 26.1151C127.577 26.5459 127.818 26.9397 128.132 27.2706C128.447 27.6014 128.829 27.8616 129.252 28.0339C129.676 28.2061 130.131 28.2865 130.588 28.2698C131.188 28.3259 131.79 28.1872 132.305 27.8742C132.82 27.5613 133.22 27.0908 133.445 26.5329L135.856 26.5329ZM127.271 22.8473H133.457C133.48 22.4386 133.418 22.0297 133.275 21.6461C133.132 21.2626 132.911 20.9127 132.626 20.6184C132.341 20.3241 131.998 20.0918 131.619 19.936C131.239 19.7802 130.832 19.7043 130.422 19.7131C130.009 19.7106 129.599 19.7899 129.216 19.9464C128.833 20.103 128.485 20.3336 128.192 20.6249C127.899 20.9163 127.667 21.2627 127.509 21.6442C127.351 22.0256 127.27 22.4345 127.271 22.8473Z" fill="#111218"/>
<path d="M38.065 0.473591C38.5975 0.435455 39.1318 0.515738 39.6294 0.708646C40.127 0.901553 40.5755 1.20228 40.9425 1.58913C41.3096 1.97598 41.586 2.43931 41.7519 2.94571C41.9178 3.45211 41.9691 3.98894 41.9019 4.51749C41.9019 7.11753 40.494 8.61208 38.065 8.61208H35.1196V0.473591H38.065ZM36.3861 7.46112H37.9236C38.304 7.48382 38.6848 7.42156 39.0381 7.27887C39.3914 7.13618 39.7084 6.91665 39.966 6.63627C40.2236 6.35589 40.4153 6.02171 40.5272 5.65806C40.6391 5.2944 40.6683 4.91042 40.6127 4.53408C40.6643 4.15922 40.6321 3.77762 40.5185 3.41663C40.4049 3.05565 40.2127 2.7242 39.9557 2.44605C39.6987 2.1679 39.3832 1.94993 39.0319 1.80775C38.6806 1.66558 38.3021 1.60272 37.9236 1.62369H36.3861V7.46112Z" fill="#111218"/>
<path d="M43.3328 5.53827C43.2941 5.13465 43.3404 4.72742 43.4686 4.34269C43.5969 3.95796 43.8043 3.60423 44.0775 3.30419C44.3508 3.00414 44.6838 2.76441 45.0553 2.60035C45.4268 2.4363 45.8286 2.35156 46.2349 2.35156C46.6411 2.35156 47.0429 2.4363 47.4144 2.60035C47.7859 2.76441 48.119 3.00414 48.3922 3.30419C48.6654 3.60423 48.8728 3.95796 49.0011 4.34269C49.1293 4.72742 49.1756 5.13465 49.1369 5.53827C49.1763 5.94231 49.1306 6.3501 49.0027 6.73545C48.8748 7.1208 48.6675 7.47518 48.3942 7.77582C48.1209 8.07645 47.7876 8.31669 47.4157 8.48109C47.0438 8.6455 46.6416 8.73043 46.2349 8.73043C45.8281 8.73043 45.4259 8.6455 45.054 8.48109C44.6821 8.31669 44.3488 8.07645 44.0755 7.77582C43.8022 7.47518 43.5949 7.1208 43.467 6.73545C43.3391 6.3501 43.2934 5.94231 43.3328 5.53827ZM47.8877 5.53827C47.8877 4.20696 47.2885 3.42842 46.2369 3.42842C45.1812 3.42842 44.5874 4.20696 44.5874 5.53829C44.5874 6.88027 45.1812 7.65281 46.2369 7.65281C47.2885 7.6528 47.8877 6.87492 47.8877 5.53827Z" fill="#111218"/>
<path d="M56.8518 8.612H55.592L54.3201 4.08857H54.224L52.9575 8.612H51.7097L50.0134 2.47021H51.2452L52.3476 7.15676H52.4384L53.7035 2.47021H54.8686L56.1338 7.15676H56.2299L57.3269 2.47021H58.5414L56.8518 8.612Z" fill="#111218"/>
<path d="M59.9685 2.47006H61.1376V3.44574H61.2284C61.3823 3.09531 61.642 2.80155 61.9711 2.60541C62.3003 2.40926 62.6826 2.3205 63.0647 2.3515C63.3641 2.32904 63.6648 2.3741 63.9444 2.48334C64.224 2.59259 64.4754 2.76323 64.68 2.98261C64.8845 3.20199 65.037 3.4645 65.1261 3.75069C65.2152 4.03687 65.2387 4.3394 65.1947 4.63585V8.61178H63.9802V4.94023C63.9802 3.95324 63.5505 3.46239 62.6523 3.46239C62.449 3.45294 62.2461 3.48747 62.0574 3.56362C61.8688 3.63977 61.6988 3.75574 61.5593 3.90357C61.4197 4.0514 61.3138 4.2276 61.2489 4.4201C61.1839 4.6126 61.1614 4.81683 61.183 5.01881V8.61185H59.9685L59.9685 2.47006Z" fill="#111218"/>
<path d="M67.1296 0.0725098H68.3441V8.61186H67.1296V0.0725098Z" fill="#111218"/>
<path d="M70.032 5.53839C69.9933 5.13474 70.0396 4.72749 70.1679 4.34274C70.2962 3.958 70.5036 3.60426 70.7769 3.3042C71.0501 3.00415 71.3832 2.76441 71.7548 2.60036C72.1263 2.43631 72.5281 2.35156 72.9344 2.35156C73.3407 2.35156 73.7424 2.43631 74.114 2.60036C74.4855 2.76441 74.8186 3.00415 75.0919 3.3042C75.3651 3.60426 75.5726 3.958 75.7008 4.34274C75.8291 4.72749 75.8754 5.13474 75.8367 5.53839C75.8761 5.94244 75.8304 6.35024 75.7024 6.73559C75.5745 7.12094 75.3672 7.47531 75.0938 7.77593C74.8205 8.07656 74.4872 8.31679 74.1153 8.48119C73.7434 8.64558 73.3411 8.73051 72.9344 8.73051C72.5276 8.73051 72.1254 8.64558 71.7535 8.48119C71.3816 8.31679 71.0483 8.07656 70.7749 7.77593C70.5016 7.47531 70.2943 7.12094 70.1663 6.73559C70.0384 6.35024 69.9926 5.94244 70.032 5.53839ZM74.5869 5.53839C74.5869 4.20707 73.9877 3.42853 72.936 3.42853C71.8804 3.42853 71.2866 4.20707 71.2866 5.5384C71.2866 6.88038 71.8804 7.65292 72.936 7.65292C73.9877 7.65291 74.5869 6.87503 74.5869 5.53839Z" fill="#111218"/>
<path d="M77.115 6.87498C77.115 5.76942 77.9398 5.13208 79.4038 5.0415L81.0707 4.9456V4.41547C81.0707 3.76679 80.6409 3.4005 79.8108 3.4005C79.1329 3.4005 78.6631 3.64891 78.5283 4.08314H77.3525C77.4767 3.02821 78.4709 2.35156 79.8669 2.35156C81.4097 2.35156 82.2798 3.11811 82.2798 4.41547V8.61189H81.1107V7.74877H81.0146C80.8196 8.05837 80.5457 8.31077 80.221 8.48019C79.8962 8.64961 79.5323 8.72997 79.1662 8.71308C78.9079 8.7399 78.6468 8.71239 78.3998 8.63233C78.1527 8.55227 77.9253 8.42143 77.732 8.24825C77.5387 8.07507 77.384 7.86339 77.2777 7.62686C77.1714 7.39033 77.116 7.1342 77.115 6.87498ZM81.0707 6.35017V5.83669L79.5679 5.93259C78.7205 5.9892 78.3361 6.27691 78.3361 6.81836C78.3361 7.37113 78.8166 7.6928 79.4772 7.6928C79.6708 7.71236 79.8663 7.69285 80.0522 7.63544C80.2381 7.57803 80.4105 7.48389 80.5591 7.35863C80.7078 7.23336 80.8297 7.07953 80.9176 6.90628C81.0055 6.73303 81.0575 6.54391 81.0707 6.35017Z" fill="#111218"/>
<path d="M83.8765 5.53833C83.8765 3.59763 84.8761 2.36821 86.4308 2.36821C86.8154 2.35052 87.1971 2.44246 87.5313 2.63326C87.8655 2.82407 88.1383 3.10588 88.3179 3.44573H88.4087V0.0725098H89.6231V8.61186H88.4594V7.64151H88.3633C88.1698 7.97907 87.8874 8.25737 87.5468 8.44625C87.2062 8.63513 86.8203 8.72741 86.4309 8.71308C84.8654 8.71315 83.8765 7.4837 83.8765 5.53833ZM85.131 5.53833C85.131 6.84102 85.7463 7.62489 86.7752 7.62489C87.7988 7.62489 88.4314 6.82971 88.4314 5.54367C88.4314 4.26362 87.7922 3.4571 86.7752 3.4571C85.7529 3.4571 85.131 4.2463 85.131 5.53833Z" fill="#111218"/>
<path d="M94.6473 5.53827C94.6086 5.13465 94.6548 4.72742 94.7831 4.34269C94.9113 3.95796 95.1187 3.60423 95.392 3.30419C95.6652 3.00414 95.9983 2.76441 96.3698 2.60035C96.7413 2.4363 97.1431 2.35156 97.5493 2.35156C97.9556 2.35156 98.3573 2.4363 98.7288 2.60035C99.1003 2.76441 99.4334 3.00414 99.7066 3.30419C99.9799 3.60423 100.187 3.95796 100.316 4.34269C100.444 4.72742 100.49 5.13465 100.451 5.53827C100.491 5.94231 100.445 6.3501 100.317 6.73545C100.189 7.1208 99.982 7.47518 99.7087 7.77582C99.4353 8.07645 99.102 8.31669 98.7302 8.48109C98.3583 8.6455 97.956 8.73043 97.5493 8.73043C97.1426 8.73043 96.7403 8.6455 96.3684 8.48109C95.9966 8.31669 95.6633 8.07645 95.3899 7.77582C95.1166 7.47518 94.9094 7.1208 94.7815 6.73545C94.6536 6.3501 94.6079 5.94231 94.6473 5.53827ZM99.2022 5.53827C99.2022 4.20696 98.6029 3.42842 97.5513 3.42842C96.4957 3.42842 95.9018 4.20696 95.9018 5.53829C95.9018 6.88027 96.4957 7.65281 97.5513 7.65281C98.603 7.6528 99.2022 6.87492 99.2022 5.53827Z" fill="#111218"/>
<path d="M102.081 2.47006H103.25V3.44574H103.341C103.495 3.09531 103.754 2.80155 104.083 2.60541C104.413 2.40926 104.795 2.3205 105.177 2.3515C105.476 2.32904 105.777 2.3741 106.057 2.48334C106.336 2.59259 106.588 2.76323 106.792 2.98261C106.997 3.20199 107.149 3.4645 107.238 3.75069C107.328 4.03687 107.351 4.3394 107.307 4.63585V8.61178H106.093V4.94023C106.093 3.95324 105.663 3.46239 104.765 3.46239C104.561 3.45294 104.358 3.48747 104.17 3.56362C103.981 3.63977 103.811 3.75574 103.672 3.90357C103.532 4.0514 103.426 4.2276 103.361 4.4201C103.296 4.6126 103.274 4.81683 103.295 5.01881V8.61185H102.081V2.47006Z" fill="#111218"/>
<path d="M114.17 0.940918V2.49801H115.503V3.51898H114.17V6.67712C114.17 7.32047 114.435 7.60218 115.04 7.60218C115.195 7.60168 115.349 7.59234 115.503 7.5742V8.58384C115.285 8.62278 115.064 8.6435 114.843 8.64578C113.492 8.64578 112.954 8.17159 112.954 6.98746V3.51893H111.977V2.49795H112.954V0.940918H114.17Z" fill="#111218"/>
<path d="M117.162 0.0725098H118.366V3.45709H118.462C118.623 3.10339 118.89 2.80797 119.226 2.61109C119.562 2.4142 119.95 2.32543 120.338 2.35687C120.636 2.34069 120.934 2.39033 121.21 2.50223C121.487 2.61413 121.735 2.78554 121.937 3.00424C122.14 3.22293 122.291 3.48352 122.381 3.7674C122.471 4.05129 122.497 4.35148 122.457 4.64655V8.61188H121.242V4.94557C121.242 3.96456 120.784 3.46773 119.926 3.46773C119.717 3.45064 119.507 3.47928 119.311 3.55165C119.114 3.62401 118.936 3.73835 118.788 3.88666C118.641 4.03497 118.527 4.21368 118.456 4.41027C118.385 4.60687 118.358 4.81661 118.376 5.02482V8.61185H117.162L117.162 0.0725098Z" fill="#111218"/>
<path d="M129.539 6.95343C129.374 7.51475 129.016 8.00029 128.529 8.32512C128.041 8.64994 127.455 8.79336 126.872 8.73029C126.467 8.74097 126.064 8.66347 125.692 8.50316C125.319 8.34286 124.986 8.1036 124.716 7.80198C124.445 7.50035 124.244 7.1436 124.125 6.75648C124.007 6.36936 123.974 5.96115 124.03 5.56018C123.976 5.15796 124.009 4.74887 124.127 4.36059C124.245 3.97231 124.446 3.61391 124.715 3.30965C124.984 3.00539 125.315 2.76237 125.686 2.59705C126.058 2.43173 126.46 2.34796 126.867 2.35142C128.579 2.35142 129.612 3.51896 129.612 5.44759V5.87054H125.267V5.93847C125.248 6.16385 125.276 6.39072 125.35 6.60452C125.424 6.81832 125.542 7.01433 125.696 7.17999C125.851 7.34565 126.038 7.4773 126.246 7.5665C126.454 7.6557 126.679 7.70048 126.906 7.69797C127.196 7.73277 127.49 7.68057 127.751 7.54798C128.012 7.41539 128.227 7.20842 128.37 6.95338L129.539 6.95343ZM125.267 4.9741H128.375C128.39 4.76797 128.362 4.56092 128.293 4.36626C128.223 4.1716 128.113 3.99363 127.971 3.84379C127.828 3.69395 127.656 3.57555 127.464 3.4962C127.273 3.41685 127.067 3.37831 126.86 3.38305C126.65 3.38041 126.442 3.41977 126.247 3.49881C126.053 3.57784 125.876 3.69495 125.727 3.84323C125.579 3.99151 125.462 4.16796 125.383 4.36218C125.303 4.5564 125.264 4.76446 125.267 4.9741Z" fill="#111218"/>
</svg>
