<svg width="109" height="119" viewBox="0 0 109 119" fill="none" xmlns="http://www.w3.org/2000/svg">
<path d="M0.817055 44.3281C1.27116 41.6866 3.39496 39.636 6.06369 39.2606L10.2903 38.6628V38.489C10.2903 25.2608 20.4902 14.5003 33.0234 14.5003H61.618V3.08635C61.618 1.3833 63.0082 0 64.7198 0C66.4315 0 67.8217 1.3833 67.8217 3.08635V9.59967L72.712 4.7338C73.9276 3.53123 75.8908 3.53123 77.0994 4.7338C78.308 5.93636 78.308 7.89661 77.0994 9.09918L71.4406 14.7297C82.5067 16.3354 91.0648 26.373 91.0648 38.489V58.6129L106.721 76.7834C108.209 78.5143 108.621 80.9125 107.797 83.0395C106.972 85.1597 105.037 86.6611 102.767 86.9322L90.457 88.4268C88.0817 98.9926 79.0625 106.875 68.3387 106.875H61.0171L64.657 113.701C65.4604 115.21 64.8875 117.08 63.3715 117.872C62.9104 118.116 62.4074 118.234 61.9184 118.234C60.8076 118.234 59.7317 117.636 59.1728 116.593L53.989 106.875H46.7653L41.5815 116.593C41.0226 117.636 39.9468 118.234 38.836 118.234C38.3469 118.234 37.8509 118.116 37.3828 117.872C35.8668 117.073 35.294 115.203 36.0974 113.701L39.7372 106.875H33.0234C20.4902 106.875 10.2903 96.1148 10.2903 82.8866V54.0807L4.05865 50.8344C1.66937 49.5902 0.362953 46.9556 0.817055 44.3142V44.3281ZM16.4941 50.3548V82.8936C16.4941 92.6879 23.9274 100.71 33.0165 100.71H68.3317C77.4207 100.71 84.8541 92.6948 84.8541 82.8936L102.005 80.8082L84.8541 60.8998V38.489C84.8541 28.6947 77.4207 20.673 68.3317 20.673H33.0165C23.9274 20.673 16.4941 28.6878 16.4941 38.489V44.0222L6.92999 45.3708L16.4941 50.3479V50.3548Z" fill="#111218"/>
<path d="M33.6656 100.312H68.7725C77.8079 100.312 85.1973 92.3397 85.1973 82.5906L102.247 80.5163L85.1973 60.7139V38.4224C85.1973 28.6802 77.8079 20.7012 68.7725 20.7012H33.6656C24.6302 20.7012 17.2408 28.6733 17.2408 38.4224V43.9261L7.73312 45.2675L17.2408 50.2181V82.5837C17.2408 92.3259 24.6302 100.305 33.6656 100.305V100.312Z" fill="#F4991A"/>
<path d="M36.8742 42.5917C35.3093 42.5917 34.0407 41.3287 34.0407 39.7707C34.0407 38.2127 35.3093 36.9497 36.8742 36.9497C38.4391 36.9497 39.7078 38.2127 39.7078 39.7707C39.7078 41.3287 38.4391 42.5917 36.8742 42.5917Z" fill="white"/>
<path d="M36.8737 36.9497C35.3111 36.9497 34.0401 38.215 34.0401 39.7707C34.0401 41.3264 35.3111 42.5918 36.8737 42.5918C38.4363 42.5918 39.7072 41.3264 39.7072 39.7707C39.7072 38.215 38.4363 36.9497 36.8737 36.9497ZM36.8737 32.0337C41.1587 32.0337 44.6382 35.5046 44.6382 39.7638C44.6382 44.023 41.1518 47.494 36.8737 47.494C32.5956 47.494 29.1092 44.023 29.1092 39.7638C29.1092 35.5046 32.5956 32.0337 36.8737 32.0337Z" fill="#242422"/>
</svg>
