<svg width="136" height="35" viewBox="0 0 136 35" fill="none" xmlns="http://www.w3.org/2000/svg">
<path fill-rule="evenodd" clip-rule="evenodd" d="M0 16.1817V3.14062C0 2.39542 0.621002 1.77441 1.242 1.77441C1.86301 1.77441 2.11141 1.89861 2.48401 2.14701L26.4547 15.3123C26.9515 15.5607 27.1999 15.9333 27.1999 16.3059C27.1999 16.6785 26.9515 17.0511 26.4547 17.2995L2.48401 30.4647C2.23561 30.5889 1.86301 30.8373 1.242 30.8373C0.621002 30.8373 0 30.2163 0 29.4711V16.1817Z" fill="url(#paint0_linear_220_824)"/>
<path fill-rule="evenodd" clip-rule="evenodd" d="M15.5251 16.3059L0.993652 1.77441C1.11785 1.77441 1.11785 1.77441 1.24205 1.77441C1.86305 1.77441 2.11145 1.89861 2.48405 2.14701L20.1205 11.8346L15.5251 16.3059Z" fill="url(#paint1_linear_220_824)"/>
<path fill-rule="evenodd" clip-rule="evenodd" d="M19.9964 20.6531L15.5251 16.1818L20.1206 11.5864L26.4548 15.064C26.9516 15.3124 27.2 15.685 27.2 16.0576C27.2 16.4302 26.9516 16.8028 26.4548 17.0512L19.9964 20.6531Z" fill="url(#paint2_linear_220_824)"/>
<path fill-rule="evenodd" clip-rule="evenodd" d="M1.11841 30.5889L15.5257 16.1816L19.9969 20.6529L2.48462 30.2163C2.11202 30.4647 1.86361 30.5889 1.11841 30.5889C1.24261 30.5889 1.24261 30.5889 1.11841 30.5889Z" fill="url(#paint3_linear_220_824)"/>
<path fill-rule="evenodd" clip-rule="evenodd" d="M129.79 31.955H129.665V31.8308H129.79H129.665V31.955H129.79Z" fill="white"/>
<path fill-rule="evenodd" clip-rule="evenodd" d="M130.037 31.955C130.037 31.8308 130.037 31.8308 130.037 31.955C129.913 31.8308 129.913 31.8308 130.037 31.955C129.913 31.955 129.913 31.955 130.037 31.955ZM130.037 31.8308C130.037 31.955 130.037 31.955 130.037 31.8308C129.913 31.955 130.037 31.955 130.037 31.8308Z" fill="white"/>
<path fill-rule="evenodd" clip-rule="evenodd" d="M130.162 31.8308H130.038H130.162V31.955V31.8308Z" fill="white"/>
<path fill-rule="evenodd" clip-rule="evenodd" d="M76.1351 33.1614C75.5141 32.6646 75.0173 31.7952 74.7689 31.2984L76.7561 30.429C76.8803 30.6774 77.1287 31.05 77.3771 31.4226C77.8739 31.9194 78.6191 32.4162 79.3643 32.4162C80.1095 32.4162 80.9789 32.0436 81.4757 31.4226C81.8483 30.8016 82.0967 30.1806 82.0967 29.3112V28.566C80.6063 30.429 77.5013 30.1806 75.7625 28.1934C73.8995 26.2062 73.8995 22.8528 75.7625 20.8656C77.6255 19.0026 80.3579 18.7542 81.9725 20.493V19.6236H84.0839V28.9386C84.0839 31.2984 83.2145 32.6646 82.0967 33.534C81.3515 34.1551 80.2337 34.4035 79.2401 34.4035C78.1223 34.2793 77.0045 33.9067 76.1351 33.1614ZM128.175 33.6582L130.286 28.6902L126.56 20.1204H128.672L131.28 26.2062L133.888 20.1204H136L130.286 33.6582H128.175ZM118.115 28.9386C117.494 28.3176 117.245 27.4482 117.245 26.5788C117.245 25.8336 117.494 25.0884 117.991 24.5916C118.86 23.7222 120.102 23.3496 121.468 23.3496C122.338 23.3496 123.083 23.4738 123.704 23.8464C123.704 22.356 122.462 21.735 121.468 21.735C120.599 21.735 119.729 22.2318 119.357 23.1012L117.494 22.356C117.866 21.4866 118.86 19.872 121.344 19.872C122.586 19.872 123.828 20.2446 124.573 21.114C125.318 21.9834 125.567 22.977 125.567 24.3432V29.5596H123.455V28.6902C123.207 29.0628 122.71 29.3112 122.338 29.5596C121.841 29.808 121.22 29.9322 120.599 29.9322C119.854 29.808 118.736 29.5596 118.115 28.9386ZM51.916 24.4674C51.916 21.9834 53.779 19.251 57.1324 19.251C60.3616 19.251 62.3488 21.9834 62.3488 24.4674C62.3488 26.9514 60.4858 29.6838 57.1324 29.6838C53.779 29.6838 51.916 26.9514 51.916 24.4674ZM63.0941 24.4674C63.0941 21.9834 64.9571 19.251 68.3105 19.251C71.5397 19.251 73.5269 21.9834 73.5269 24.4674C73.5269 26.9514 71.6639 29.6838 68.3105 29.6838C65.0813 29.6838 63.0941 26.9514 63.0941 24.4674ZM37.8814 27.1998C34.7764 24.0948 34.9005 19.0026 38.0056 15.7734C39.6202 14.1588 41.6074 13.4136 43.7188 13.4136C45.706 13.4136 47.6932 14.1588 49.1836 15.6492L47.6932 17.2638C45.4576 15.0282 41.8558 15.1524 39.7444 17.388C37.5088 19.7478 37.5088 23.3496 39.7444 25.7094C41.98 28.0692 45.706 28.1934 47.9416 25.8336C48.6868 25.0884 48.9352 24.0948 49.0594 23.1012H43.843V20.8656H51.1708C51.295 21.3624 51.295 21.9834 51.295 22.6044C51.295 24.4674 50.5498 26.3304 49.3078 27.5724C47.9416 28.9386 45.9544 29.6838 43.9672 29.6838C41.7316 29.5596 39.496 28.8144 37.8814 27.1998ZM90.4182 28.0692C88.5551 26.082 88.5551 22.7286 90.4182 20.6172C92.2812 18.63 95.3862 18.63 97.125 20.6172C97.746 21.2382 98.1186 22.1076 98.4912 22.977L91.6602 25.8336C92.0328 26.703 92.9022 27.4482 94.1442 27.4482C95.262 27.4482 96.0072 27.0756 96.7524 25.9578L98.6154 27.1998C98.367 27.4482 98.1186 27.6966 97.9944 27.945C95.883 30.0564 92.2812 30.0564 90.4182 28.0692ZM103.335 29.5596V15.7734H107.806C110.414 15.7734 112.526 17.6364 112.526 19.872C112.526 22.1076 110.663 23.9706 108.303 23.9706H105.571V29.4354H103.335V29.5596ZM113.768 29.5596V15.7734H115.879V29.5596H113.768ZM85.6985 29.3112V13.9104H87.9341V29.3112H85.6985ZM123.58 25.461C123.083 25.0884 122.338 24.9642 121.592 24.9642C120.102 24.9642 119.233 25.7094 119.233 26.5788C119.233 27.4482 120.102 27.945 120.971 27.945C122.213 27.945 123.58 26.9514 123.58 25.461ZM59.989 24.4674C59.989 22.977 58.9954 21.3624 57.1324 21.3624C55.2694 21.3624 54.2758 22.977 54.2758 24.4674C54.2758 25.9578 55.2694 27.5724 57.1324 27.5724C58.8712 27.5724 59.989 25.9578 59.989 24.4674ZM71.1671 24.4674C71.1671 22.977 70.1735 21.3624 68.3105 21.3624C66.4475 21.3624 65.4539 22.977 65.4539 24.4674C65.4539 25.9578 66.4475 27.5724 68.3105 27.5724C70.1735 27.5724 71.1671 25.9578 71.1671 24.4674ZM82.2209 25.3368C82.2209 25.2126 82.2209 25.0884 82.3451 24.9642C82.3451 24.84 82.3451 24.5916 82.3451 24.4674C82.3451 24.3432 82.3451 24.0948 82.3451 23.9706V23.8464C82.3451 23.7222 82.2209 23.4738 82.2209 23.3496C81.8483 22.1076 80.7305 21.2382 79.6127 21.2382C78.1223 21.2382 76.8803 22.7286 76.8803 24.3432C76.8803 26.082 78.1223 27.4482 79.7369 27.4482C80.7305 27.5724 81.7241 26.703 82.2209 25.3368ZM91.2875 24.219L95.883 22.2318C95.3862 21.3624 94.641 21.114 94.02 21.114C92.157 21.2382 91.0391 23.2254 91.2875 24.219ZM110.29 19.9962C110.29 18.7542 109.297 17.8848 107.93 17.8848H105.446V22.2318H108.055C109.297 22.2318 110.29 21.2382 110.29 19.9962Z" fill="#111218"/>
<path d="M36.1431 3.60181C36.1431 1.3662 37.7577 0 39.7449 0C41.1111 0 41.9805 0.621001 42.6015 1.4904L41.6079 2.11141C41.2353 1.6146 40.6143 1.242 39.7449 1.242C38.3787 1.242 37.3851 2.23561 37.3851 3.72601C37.3851 5.21642 38.3787 6.21002 39.7449 6.21002C40.4901 6.21002 41.1111 5.83742 41.3595 5.58902V4.47121H39.3723V3.35341H42.7257V5.96162C42.1047 6.70682 41.1111 7.20363 39.8691 7.20363C37.7577 7.20363 36.1431 5.71322 36.1431 3.60181Z" fill="#111218"/>
<path d="M44.2156 7.07974V0.124512H48.9352V1.24232H45.3334V2.98112H48.811V4.09893H45.3334V6.08613H48.9352V7.20394L44.2156 7.07974Z" fill="#111218"/>
<path d="M52.4122 7.07974V1.24232H50.3008V0.124512H55.7656V1.24232H53.6542V7.07974H52.4122Z" fill="#111218"/>
<path d="M59.9884 7.07974V0.124512H61.2304V7.07974H59.9884Z" fill="#111218"/>
<path d="M64.5837 7.07974V1.24232H62.4723V0.124512H67.9371V1.24232H65.8257V7.07974H64.5837Z" fill="#111218"/>
<path d="M71.9121 3.60181C71.9121 1.4904 73.4025 0 75.5139 0C77.6253 0 79.1157 1.4904 79.1157 3.60181C79.1157 5.71322 77.6253 7.20363 75.5139 7.20363C73.4025 7.20363 71.9121 5.58902 71.9121 3.60181ZM77.7495 3.60181C77.7495 2.11141 76.8801 1.1178 75.3897 1.1178C74.0235 1.1178 73.0299 2.23561 73.0299 3.60181C73.0299 5.09222 73.8993 6.08582 75.3897 6.08582C76.8801 6.08582 77.7495 4.96802 77.7495 3.60181Z" fill="#111218"/>
<path d="M85.325 7.07974L81.7232 2.11172V7.07974H80.4812V0.124512H81.7232L85.325 4.96833V0.124512H86.567V7.07974H85.325Z" fill="#111218"/>
<defs>
<linearGradient id="paint0_linear_220_824" x1="8.03254" y1="0.00281851" x2="14.9855" y2="28.5576" gradientUnits="userSpaceOnUse">
<stop stop-color="#006884"/>
<stop offset="1" stop-color="#8AD1D0"/>
</linearGradient>
<linearGradient id="paint1_linear_220_824" x1="-0.446203" y1="4.06442" x2="18.5018" y2="14.3078" gradientUnits="userSpaceOnUse">
<stop stop-color="#24BBB6"/>
<stop offset="1" stop-color="#DBE692"/>
</linearGradient>
<linearGradient id="paint2_linear_220_824" x1="21.3556" y1="21.1748" x2="21.3556" y2="11.3029" gradientUnits="userSpaceOnUse">
<stop stop-color="#FCC072"/>
<stop offset="1" stop-color="#F58A5B"/>
</linearGradient>
<linearGradient id="paint3_linear_220_824" x1="3.22323" y1="33.1587" x2="18.1915" y2="17.9253" gradientUnits="userSpaceOnUse">
<stop stop-color="#712B8F"/>
<stop offset="1" stop-color="#EA1D27"/>
</linearGradient>
</defs>
</svg>
