<svg width="150" height="50" viewBox="0 0 150 50" fill="none" xmlns="http://www.w3.org/2000/svg">
<path d="M8.48812 49.0458L8.49288 49.0459C8.87427 49.0545 9.24866 49.0594 9.63189 49.0594L138.988 49.062H138.989L140.367 49.0594H140.368C140.742 49.0594 141.128 49.0545 141.497 49.0459L141.503 49.0458C142.274 49.0363 143.043 48.9688 143.804 48.8437C144.492 48.7261 145.159 48.5047 145.781 48.1871C146.393 47.8743 146.95 47.4642 147.432 46.9727L147.436 46.9688C147.918 46.4868 148.323 45.9311 148.634 45.3221C148.948 44.6949 149.163 44.023 149.274 43.3297L149.274 43.3268C149.4 42.5661 149.471 41.7972 149.485 41.0261C149.485 41.0257 149.485 41.0253 149.485 41.0248L149.985 41.0342C149.99 40.6414 149.99 40.2598 149.99 39.8432L8.48812 49.0458ZM8.48812 49.0458C7.71712 49.0357 6.94792 48.9681 6.1868 48.8437C5.50376 48.725 4.84201 48.5045 4.2233 48.1894C3.61348 47.8786 3.05711 47.4709 2.57557 46.9819L2.5756 46.9819L2.57094 46.9773C2.083 46.4946 1.67665 45.9347 1.36806 45.3196L1.36766 45.3188C1.05395 44.6963 0.836802 44.029 0.723833 43.3401L0.723768 43.3397C0.596991 42.5704 0.528398 41.7926 0.518584 41.0129H0.518658L0.5184 41.0042C0.514511 40.874 0.509904 40.586 0.506238 40.326C0.504418 40.197 0.50285 40.0764 0.501736 39.988L0.500433 39.8826L0.500085 39.8537L0.5 39.8495V39.8465M8.48812 49.0458L0.5 39.8465M140.368 49.5594C140.746 49.5594 141.136 49.5545 141.509 49.5457C142.306 49.536 143.101 49.4661 143.887 49.3368L140.368 49.5594ZM140.368 49.5594L138.989 49.562L140.368 49.5594ZM0.5 39.8465V10.2614L0.500087 10.2546L0.500455 10.2261L0.501828 10.1224L0.506499 9.79018C0.510258 9.53499 0.514883 9.25245 0.518482 9.12658L0.518551 9.12658L0.51865 9.11832C0.528047 8.33992 0.596233 7.56337 0.722616 6.7954L0.722674 6.79505C0.8359 6.10395 1.05331 5.43441 1.36732 4.80962L1.36775 4.80877C1.67543 4.19366 2.07985 3.63288 2.56523 3.14813L2.56523 3.14813L2.56709 3.14625C3.05291 2.6559 3.61193 2.24539 4.22375 1.92959C4.84055 1.61591 5.50052 1.39728 6.18159 1.28093C6.94526 1.15523 7.7172 1.08727 8.49093 1.07761L8.49151 1.07761L9.63591 1.06201H140.358H140.361L141.516 1.07823L141.517 1.07824C142.283 1.08741 143.047 1.15472 143.804 1.2796C144.492 1.3975 145.16 1.61784 145.785 1.93344C147.01 2.56999 148.008 3.57657 148.638 4.813C148.946 5.43299 149.16 6.09647 149.272 6.78097L149.272 6.78194C149.4 7.55674 149.471 8.33992 149.486 9.12524C149.486 9.12592 149.486 9.1266 149.486 9.12729L149.986 9.11793M0.5 39.8465L149.99 10.2582C149.99 9.87037 149.99 9.4807 149.986 9.11793M149.986 9.11793C149.971 8.30776 149.897 7.49978 149.765 6.70045L149.986 9.11793Z" stroke="#43454C"/>
<path fill-rule="evenodd" clip-rule="evenodd" d="M15.7402 25.4269V13.9207C15.7402 13.2632 16.2833 12.7153 16.8263 12.7153C17.3694 12.7153 17.5866 12.8249 17.9124 13.0441L38.8741 24.6599C39.3085 24.879 39.5257 25.2078 39.5257 25.5365C39.5257 25.8653 39.3085 26.194 38.8741 26.4132L17.9124 38.029C17.6952 38.1386 17.3694 38.3577 16.8263 38.3577C16.2833 38.3577 15.7402 37.8098 15.7402 37.1523V25.4269Z" fill="url(#paint0_linear_368_4322)"/>
<path fill-rule="evenodd" clip-rule="evenodd" d="M29.3167 25.5365L16.6094 12.7153C16.718 12.7153 16.718 12.7153 16.8266 12.7153C17.3696 12.7153 17.5869 12.8249 17.9127 13.0441L33.3352 21.5915L29.3167 25.5365Z" fill="url(#paint1_linear_368_4322)"/>
<path fill-rule="evenodd" clip-rule="evenodd" d="M33.2263 29.3721L29.3164 25.4271L33.335 21.3726L38.8741 24.4409C39.3085 24.66 39.5257 24.9888 39.5257 25.3175C39.5257 25.6463 39.3085 25.975 38.8741 26.1942L33.2263 29.3721Z" fill="url(#paint2_linear_368_4322)"/>
<path fill-rule="evenodd" clip-rule="evenodd" d="M16.7183 38.1384L29.317 25.4268L33.2269 29.3717L17.913 37.8096C17.5871 38.0288 17.3699 38.1384 16.7183 38.1384C16.8269 38.1384 16.8269 38.1384 16.7183 38.1384Z" fill="url(#paint3_linear_368_4322)"/>
<path fill-rule="evenodd" clip-rule="evenodd" d="M129.237 39.344H129.129V39.2344H129.237H129.129V39.344H129.237Z" fill="white"/>
<path fill-rule="evenodd" clip-rule="evenodd" d="M129.454 39.344C129.454 39.2344 129.454 39.2344 129.454 39.344C129.345 39.2344 129.345 39.2344 129.454 39.344C129.345 39.344 129.345 39.344 129.454 39.344ZM129.454 39.2344C129.454 39.344 129.454 39.344 129.454 39.2344C129.345 39.344 129.454 39.344 129.454 39.2344Z" fill="white"/>
<path fill-rule="evenodd" clip-rule="evenodd" d="M129.563 39.2344H129.455H129.563V39.344V39.2344Z" fill="white"/>
<path fill-rule="evenodd" clip-rule="evenodd" d="M82.3185 40.4085C81.7754 39.9702 81.341 39.2031 81.1238 38.7648L82.8615 37.9977C82.9702 38.2169 83.1874 38.5456 83.4046 38.8744C83.839 39.3127 84.4907 39.751 85.1424 39.751C85.794 39.751 86.5543 39.4223 86.9887 38.8744C87.3145 38.3265 87.5317 37.7786 87.5317 37.0115V36.354C86.2284 37.9977 83.5132 37.7786 81.9926 36.0252C80.3635 34.2719 80.3635 31.3132 81.9926 29.5598C83.6218 27.9161 86.0112 27.6969 87.4231 29.2311V28.464H89.2695V36.6827C89.2695 38.7648 88.5092 39.9702 87.5317 40.7373C86.8801 41.2852 85.9026 41.5044 85.0337 41.5044C84.0563 41.3948 83.0788 41.066 82.3185 40.4085ZM127.826 40.8469L129.672 36.4636L126.414 28.9023H128.26L130.541 34.2719L132.822 28.9023H134.668L129.672 40.8469H127.826ZM119.029 36.6827C118.485 36.1348 118.268 35.3677 118.268 34.6007C118.268 33.9432 118.485 33.2857 118.92 32.8473C119.68 32.0802 120.766 31.7515 121.961 31.7515C122.721 31.7515 123.373 31.8611 123.916 32.1898C123.916 30.8748 122.83 30.3269 121.961 30.3269C121.201 30.3269 120.44 30.7652 120.115 31.5323L118.485 30.8748C118.811 30.1078 119.68 28.6832 121.852 28.6832C122.938 28.6832 124.025 29.0119 124.676 29.779C125.328 30.5461 125.545 31.4227 125.545 32.6282V37.2306H123.699V36.4636C123.482 36.7923 123.047 37.0115 122.721 37.2306C122.287 37.4498 121.744 37.5594 121.201 37.5594C120.549 37.4498 119.572 37.2306 119.029 36.6827ZM61.1396 32.7377C61.1396 30.5461 62.7688 28.1353 65.7012 28.1353C68.5251 28.1353 70.2628 30.5461 70.2628 32.7377C70.2628 34.9294 68.6337 37.3402 65.7012 37.3402C62.7688 37.3402 61.1396 34.9294 61.1396 32.7377ZM70.9145 32.7377C70.9145 30.5461 72.5436 28.1353 75.4761 28.1353C78.2999 28.1353 80.0377 30.5461 80.0377 32.7377C80.0377 34.9294 78.4085 37.3402 75.4761 37.3402C72.6522 37.3402 70.9145 34.9294 70.9145 32.7377ZM48.8667 35.1486C46.1515 32.409 46.2601 27.9161 48.9753 25.0669C50.3873 23.6424 52.125 22.9849 53.9714 22.9849C55.7091 22.9849 57.4469 23.6424 58.7502 24.9574L57.4469 26.3819C55.4919 24.4094 52.3422 24.519 50.4959 26.4915C48.5409 28.5736 48.5409 31.7515 50.4959 33.8336C52.4509 35.9156 55.7091 36.0252 57.6641 33.9432C58.3158 33.2857 58.533 32.409 58.6416 31.5323H54.08V29.5598H60.488C60.5966 29.9982 60.5966 30.5461 60.5966 31.094C60.5966 32.7377 59.9449 34.3815 58.8588 35.4773C57.6641 36.6827 55.9264 37.3402 54.1886 37.3402C52.2336 37.2306 50.2787 36.5731 48.8667 35.1486ZM94.8086 35.9156C93.1795 34.1623 93.1795 31.2036 94.8086 29.3407C96.4377 27.5873 99.153 27.5873 100.674 29.3407C101.217 29.8886 101.542 30.6557 101.868 31.4227L95.8947 33.9432C96.2205 34.7102 96.9808 35.3677 98.0669 35.3677C99.0444 35.3677 99.696 35.039 100.348 34.0527L101.977 35.1486C101.76 35.3677 101.542 35.5869 101.434 35.8061C99.5874 37.669 96.4377 37.669 94.8086 35.9156ZM106.104 37.2306V25.0669H110.014C112.295 25.0669 114.141 26.7107 114.141 28.6832C114.141 30.6557 112.512 32.2994 110.448 32.2994H108.059V37.1211H106.104V37.2306ZM115.227 37.2306V25.0669H117.074V37.2306H115.227ZM90.6814 37.0115V23.4232H92.6364V37.0115H90.6814ZM123.807 33.6144C123.373 33.2857 122.721 33.1761 122.07 33.1761C120.766 33.1761 120.006 33.8336 120.006 34.6007C120.006 35.3677 120.766 35.8061 121.527 35.8061C122.613 35.8061 123.807 34.9294 123.807 33.6144ZM68.1992 32.7377C68.1992 31.4227 67.3304 29.9982 65.7012 29.9982C64.0721 29.9982 63.2032 31.4227 63.2032 32.7377C63.2032 34.0527 64.0721 35.4773 65.7012 35.4773C67.2218 35.4773 68.1992 34.0527 68.1992 32.7377ZM77.9741 32.7377C77.9741 31.4227 77.1052 29.9982 75.4761 29.9982C73.8469 29.9982 72.9781 31.4227 72.9781 32.7377C72.9781 34.0527 73.8469 35.4773 75.4761 35.4773C77.1052 35.4773 77.9741 34.0527 77.9741 32.7377ZM87.6404 33.5048C87.6404 33.3952 87.6404 33.2857 87.749 33.1761C87.749 33.0665 87.749 32.8473 87.749 32.7377C87.749 32.6282 87.749 32.409 87.749 32.2994V32.1898C87.749 32.0802 87.6404 31.8611 87.6404 31.7515C87.3145 30.6557 86.337 29.8886 85.3596 29.8886C84.0562 29.8886 82.9702 31.2036 82.9702 32.6282C82.9702 34.1623 84.0562 35.3677 85.4682 35.3677C86.337 35.4773 87.2059 34.7102 87.6404 33.5048ZM95.5688 32.5186L99.5874 30.7652C99.153 29.9982 98.5013 29.779 97.9583 29.779C96.3291 29.8886 95.3516 31.6419 95.5688 32.5186ZM112.186 28.7928C112.186 27.6969 111.317 26.9298 110.123 26.9298H107.95V30.7652H110.231C111.317 30.7652 112.186 29.8886 112.186 28.7928Z" fill="#111218"/>
<path d="M47.3467 14.3278C47.3467 12.3553 48.7586 11.1499 50.4964 11.1499C51.6911 11.1499 52.4513 11.6978 52.9944 12.4649L52.1255 13.0128C51.7997 12.5745 51.2566 12.2457 50.4964 12.2457C49.3017 12.2457 48.4328 13.1224 48.4328 14.4374C48.4328 15.7524 49.3017 16.629 50.4964 16.629C51.148 16.629 51.6911 16.3003 51.9083 16.0811V15.0949H50.1705V14.1086H53.103V16.4099C52.5599 17.0674 51.6911 17.5057 50.605 17.5057C48.7586 17.5057 47.3467 16.1907 47.3467 14.3278Z" fill="#111218"/>
<path d="M54.4058 17.3964V11.2598H58.5329V12.246H55.3833V13.7802H58.4243V14.7664H55.3833V16.5197H58.5329V17.506L54.4058 17.3964Z" fill="#111218"/>
<path d="M61.5734 17.3964V12.246H59.7271V11.2598H64.5059V12.246H62.6595V17.3964H61.5734Z" fill="#111218"/>
<path d="M68.1987 17.3964V11.2598H69.2848V17.3964H68.1987Z" fill="#111218"/>
<path d="M72.217 17.3964V12.246H70.3706V11.2598H75.1494V12.246H73.3031V17.3964H72.217Z" fill="#111218"/>
<path d="M78.6255 14.3278C78.6255 12.4649 79.9288 11.1499 81.7752 11.1499C83.6215 11.1499 84.9248 12.4649 84.9248 14.3278C84.9248 16.1907 83.6215 17.5057 81.7752 17.5057C79.9288 17.5057 78.6255 16.0811 78.6255 14.3278ZM83.7301 14.3278C83.7301 13.0128 82.9699 12.1361 81.6666 12.1361C80.4719 12.1361 79.603 13.1224 79.603 14.3278C79.603 15.6428 80.3632 16.5195 81.6666 16.5195C82.9699 16.5195 83.7301 15.5332 83.7301 14.3278Z" fill="#111218"/>
<path d="M90.3549 17.3964L87.2052 13.0131V17.3964H86.1191V11.2598H87.2052L90.3549 15.5335V11.2598H91.441V17.3964H90.3549Z" fill="#111218"/>
<defs>
<linearGradient id="paint0_linear_368_4322" x1="22.7645" y1="11.1522" x2="28.9479" y2="36.321" gradientUnits="userSpaceOnUse">
<stop stop-color="#006884"/>
<stop offset="1" stop-color="#8AD1D0"/>
</linearGradient>
<linearGradient id="paint1_linear_368_4322" x1="15.3503" y1="14.7358" x2="31.9863" y2="23.6495" gradientUnits="userSpaceOnUse">
<stop stop-color="#24BBB6"/>
<stop offset="1" stop-color="#DBE692"/>
</linearGradient>
<linearGradient id="paint2_linear_368_4322" x1="34.415" y1="29.8325" x2="34.415" y2="21.1224" gradientUnits="userSpaceOnUse">
<stop stop-color="#FCC072"/>
<stop offset="1" stop-color="#F58A5B"/>
</linearGradient>
<linearGradient id="paint3_linear_368_4322" x1="18.5589" y1="40.4058" x2="31.767" y2="27.083" gradientUnits="userSpaceOnUse">
<stop stop-color="#712B8F"/>
<stop offset="1" stop-color="#EA1D27"/>
</linearGradient>
</defs>
</svg>
