<svg width="16" height="16" viewBox="0 0 16 16" fill="none" xmlns="http://www.w3.org/2000/svg">
<g id="Frame 60938" clip-path="url(#clip0_671_11734)">
<g id="Group 378">
<path id="Vector" opacity="0.5" d="M15.3438 8.82932C15.3438 7.94693 15.3437 7.50574 15.0296 7.24846C14.9181 7.1571 14.7826 7.08398 14.6315 7.03366C14.2061 6.89198 13.6469 7.0315 12.5286 7.31054C11.6748 7.52358 11.2479 7.63006 10.8165 7.61902C10.6581 7.61502 10.5006 7.59918 10.3463 7.5719C9.92628 7.49758 9.55189 7.31078 8.80302 6.9371L7.69719 6.3852C6.73792 5.90653 6.25832 5.66719 5.70777 5.612C5.15721 5.55682 4.61042 5.69326 3.51675 5.96614L2.58492 6.19865C1.79292 6.39626 1.39693 6.49511 1.17037 6.7303C0.943893 6.9655 0.943893 7.27798 0.943893 7.90293V12.7704C0.943893 13.6528 0.943892 14.094 1.25797 14.3513C1.36949 14.4426 1.50509 14.5157 1.65613 14.5661C2.08156 14.7077 2.64076 14.5682 3.75906 14.2892C4.6129 14.0761 5.03977 13.9697 5.47113 13.9807C5.62953 13.9847 5.78705 14.0006 5.94128 14.0278C6.36136 14.1021 6.73576 14.2889 7.48463 14.6626L8.59046 15.2145C9.54973 15.6932 10.0293 15.9325 10.5799 15.9877C11.1304 16.0429 11.6772 15.9065 12.7709 15.6336L13.7027 15.4011C14.4947 15.2035 14.8907 15.1046 15.1172 14.8694C15.3438 14.6342 15.3438 14.3217 15.3438 13.6968V8.82932Z" fill="#F4991A"/>
<path id="Vector_2" fill-rule="evenodd" clip-rule="evenodd" d="M8.14145 0C10.7924 0 12.9414 2.04167 12.9414 4.5602C12.9414 7.05897 11.4094 9.97486 9.01921 11.0176C8.46201 11.2607 7.8209 11.2607 7.2637 11.0176C4.87349 9.97486 3.3415 7.05897 3.3415 4.5602C3.3415 2.04167 5.49052 0 8.14145 0ZM8.14145 6.39994C7.25778 6.39994 6.54147 5.6836 6.54147 4.79995C6.54147 3.9163 7.25778 3.19997 8.14145 3.19997C9.02513 3.19997 9.74144 3.9163 9.74144 4.79995C9.74144 5.6836 9.02513 6.39994 8.14145 6.39994Z" fill="#F4991A"/>
</g>
</g>
<defs>
<clipPath id="clip0_671_11734">
<rect width="16" height="16" fill="white"/>
</clipPath>
</defs>
</svg>
