<svg width="136" height="35" viewBox="0 0 136 35" fill="none" xmlns="http://www.w3.org/2000/svg"><path d="M20.221 16.79a6.74 6.74 0 013.22-5.663 6.919 6.919 0 00-5.454-2.943c-2.295-.24-4.52 1.37-5.689 1.37-1.192 0-2.992-1.346-4.931-1.306a7.274 7.274 0 00-6.113 3.72c-2.643 4.568-.671 11.28 1.86 14.971 1.267 1.808 2.747 3.827 4.685 3.756 1.895-.079 2.603-1.207 4.891-1.207 2.267 0 2.931 1.207 4.908 1.161 2.034-.033 3.315-1.816 4.538-3.64a14.942 14.942 0 002.075-4.218 6.532 6.532 0 01-2.9-2.401 6.513 6.513 0 01-1.09-3.6zM16.488 5.756a6.637 6.637 0 001.524-4.76 6.78 6.78 0 00-4.384 2.263 6.322 6.322 0 00-1.563 4.585 5.611 5.611 0 004.423-2.088zm27.694 20.362h-6.469l-1.553 4.578h-2.74l6.127-16.938h2.847l6.127 16.938h-2.787l-1.552-4.578zm-5.799-2.112h5.128l-2.528-7.43h-.07l-2.53 7.43zm23.369.516c0 3.838-2.057 6.303-5.163 6.303a4.2 4.2 0 01-3.893-2.16h-.059v6.116h-2.54V18.347h2.459v2.054h.047a4.386 4.386 0 013.94-2.183c3.14 0 5.21 2.478 5.21 6.304zm-2.61 0c0-2.5-1.294-4.143-3.27-4.143-1.94 0-3.245 1.678-3.245 4.143 0 2.489 1.305 4.155 3.245 4.155 1.976 0 3.27-1.632 3.27-4.155zm16.228 0c0 3.838-2.057 6.303-5.163 6.303a4.201 4.201 0 01-3.892-2.16h-.06v6.116h-2.539V18.347h2.458v2.054h.047a4.385 4.385 0 013.94-2.183c3.14 0 5.21 2.478 5.21 6.304zm-2.61 0c0-2.5-1.294-4.143-3.27-4.143-1.94 0-3.245 1.678-3.245 4.143 0 2.489 1.305 4.155 3.246 4.155 1.975 0 3.27-1.632 3.27-4.155zm11.611 1.455c.189 1.68 1.824 2.782 4.058 2.782 2.14 0 3.68-1.103 3.68-2.617 0-1.315-.928-2.102-3.128-2.641l-2.2-.53c-3.116-.75-4.562-2.205-4.562-4.565 0-2.923 2.552-4.93 6.175-4.93 3.586 0 6.044 2.007 6.127 4.93h-2.564c-.153-1.69-1.553-2.71-3.6-2.71-2.045 0-3.445 1.031-3.445 2.534 0 1.197.894 1.902 3.081 2.441l1.87.459c3.482.822 4.929 2.217 4.929 4.695 0 3.169-2.53 5.153-6.552 5.153-3.763 0-6.304-1.938-6.468-5.001h2.6zm15.902-10.552v2.922h2.352v2.008h-2.352v6.807c0 1.058.471 1.55 1.505 1.55.279-.004.558-.024.835-.058v1.995a6.988 6.988 0 01-1.41.118c-2.505 0-3.482-.94-3.482-3.334v-7.078h-1.8v-2.008h1.8v-2.922h2.552zm3.715 9.097c0-3.885 2.293-6.327 5.869-6.327 3.587 0 5.869 2.442 5.869 6.327 0 3.896-2.27 6.327-5.869 6.327-3.599 0-5.869-2.43-5.869-6.327zm9.15 0c0-2.665-1.224-4.238-3.281-4.238-2.058 0-3.281 1.585-3.281 4.238 0 2.676 1.223 4.237 3.281 4.237 2.057 0 3.281-1.56 3.281-4.237zm4.681-6.175h2.423v2.102h.058a2.947 2.947 0 012.976-2.231c.293-.001.585.03.871.095v2.37a3.562 3.562 0 00-1.142-.153 2.568 2.568 0 00-1.978.813 2.552 2.552 0 00-.668 2.028v7.325h-2.54V18.347zm18.037 8.722c-.341 2.242-2.529 3.78-5.327 3.78-3.599 0-5.834-2.407-5.834-6.268 0-3.874 2.247-6.386 5.727-6.386 3.423 0 5.576 2.347 5.576 6.091v.869h-8.739v.153a3.225 3.225 0 00.873 2.499 3.229 3.229 0 002.456.999 2.803 2.803 0 002.857-1.737h2.411zm-8.585-3.686h6.186a2.962 2.962 0 00-.831-2.229 2.978 2.978 0 00-2.204-.905 3.14 3.14 0 00-2.23.912 3.123 3.123 0 00-.921 2.222zM38.065 1.01a3.614 3.614 0 012.878 1.115 3.598 3.598 0 01.959 2.929c0 2.6-1.408 4.094-3.837 4.094H35.12V1.01h2.945zm-1.679 6.987h1.538a2.568 2.568 0 002.603-1.803 2.56 2.56 0 00.086-1.124 2.56 2.56 0 00-1.581-2.726 2.575 2.575 0 00-1.108-.184h-1.538v5.837zm6.947-1.923a2.905 2.905 0 011.722-2.938 2.92 2.92 0 013.946 1.743c.128.385.175.792.136 1.195a2.905 2.905 0 01-1.721 2.943 2.92 2.92 0 01-3.949-1.745 2.905 2.905 0 01-.134-1.198zm4.555 0c0-1.33-.6-2.11-1.651-2.11-1.056 0-1.65.78-1.65 2.11 0 1.342.594 2.115 1.65 2.115 1.051 0 1.65-.778 1.65-2.115zm8.964 3.074h-1.26L54.32 4.625h-.096l-1.266 4.523H51.71l-1.697-6.142h1.232l1.103 4.687h.09l1.265-4.687h1.166l1.265 4.687h.096l1.097-4.687h1.214l-1.69 6.142zm3.116-6.142h1.17v.976h.09a1.84 1.84 0 011.837-1.094 2.005 2.005 0 012.061 1.399c.09.286.113.589.069.885v3.976H63.98V5.476C63.98 4.49 63.55 4 62.652 4a1.414 1.414 0 00-1.403.957 1.405 1.405 0 00-.066.599v3.593h-1.215V3.006zM67.13.609h1.214v8.539H67.13V.608zm2.902 5.466a2.903 2.903 0 011.723-2.939A2.92 2.92 0 0175.7 4.88c.128.385.174.792.136 1.196a2.904 2.904 0 01-1.722 2.942 2.921 2.921 0 01-3.949-1.745 2.905 2.905 0 01-.134-1.197zm4.555 0c0-1.332-.6-2.11-1.651-2.11-1.056 0-1.65.778-1.65 2.11 0 1.342.594 2.114 1.65 2.114 1.052 0 1.65-.778 1.65-2.114zm2.528 1.336c0-1.105.825-1.743 2.289-1.833l1.667-.096v-.53c0-.65-.43-1.015-1.26-1.015-.678 0-1.148.248-1.283.682h-1.175c.124-1.055 1.118-1.731 2.514-1.731 1.543 0 2.413.766 2.413 2.064v4.196h-1.17v-.863h-.095a2.069 2.069 0 01-1.849.964 1.862 1.862 0 01-1.888-1.086 1.852 1.852 0 01-.163-.752zm3.956-.525v-.513l-1.503.096c-.847.056-1.232.344-1.232.885 0 .553.48.875 1.141.875a1.454 1.454 0 001.594-1.343zm2.805-.812c0-1.94 1-3.17 2.555-3.17a2.031 2.031 0 011.887 1.078h.09V.609h1.215v8.539H88.46v-.97h-.096a2.134 2.134 0 01-1.932 1.071c-1.566 0-2.555-1.23-2.555-3.175zm1.255 0c0 1.303.615 2.087 1.644 2.087 1.024 0 1.656-.795 1.656-2.081 0-1.28-.639-2.087-1.656-2.087-1.022 0-1.644.79-1.644 2.081zm9.516 0a2.903 2.903 0 011.723-2.938 2.92 2.92 0 013.946 1.743c.128.385.174.792.135 1.195a2.893 2.893 0 01-.742 2.238 2.917 2.917 0 01-5.062-2.238zm4.555 0c0-1.33-.6-2.11-1.65-2.11-1.056 0-1.65.78-1.65 2.11 0 1.342.594 2.115 1.65 2.115 1.051 0 1.65-.778 1.65-2.115zm2.879-3.068h1.169v.976h.091a1.84 1.84 0 011.836-1.094 2.008 2.008 0 011.615.63 1.99 1.99 0 01.515 1.654v3.976h-1.214V5.476c0-.987-.43-1.477-1.328-1.477a1.41 1.41 0 00-1.47 1.556v3.593h-1.214V3.006zm12.089-1.529v1.557h1.333v1.021h-1.333v3.158c0 .644.265.925.87.925.155 0 .309-.01.463-.028v1.01a3.99 3.99 0 01-.66.062c-1.351 0-1.889-.474-1.889-1.658V4.055h-.977v-1.02h.977V1.476h1.216zm2.992-.868h1.204v3.384h.096a1.887 1.887 0 011.876-1.1 2.03 2.03 0 012.043 1.41c.09.284.116.585.076.88v3.965h-1.215V5.482c0-.981-.458-1.478-1.316-1.478a1.438 1.438 0 00-1.55 1.557v3.587h-1.214V.608zm12.377 6.881a2.496 2.496 0 01-2.667 1.776 2.797 2.797 0 01-2.747-1.973 2.783 2.783 0 01-.095-1.197 2.83 2.83 0 012.837-3.208c1.712 0 2.745 1.167 2.745 3.096v.423h-4.345v.068a1.62 1.62 0 00.979 1.628c.208.089.433.134.66.131a1.477 1.477 0 001.464-.744h1.169zm-4.272-1.98h3.108a1.495 1.495 0 00-.082-.608 1.496 1.496 0 00-.829-.87 1.487 1.487 0 00-.604-.113 1.578 1.578 0 00-1.477.98c-.08.194-.119.402-.116.611z" fill="#F9F9FB"/></svg>