<svg width="150" height="50" viewBox="0 0 150 50" fill="none" xmlns="http://www.w3.org/2000/svg"><path d="M8.488 49.046h.005c.381.008.756.014 1.139.014l129.356.002h.001l1.378-.002h.001c.374 0 .76-.006 1.129-.014h.006a15.35 15.35 0 002.301-.202 6.908 6.908 0 001.977-.657 6.38 6.38 0 001.651-1.214l.004-.004a6.536 6.536 0 001.199-1.648 6.901 6.901 0 00.639-1.991v-.003c.126-.76.197-1.53.211-2.3v-.002l.5.01c.005-.394.005-.775.005-1.192L8.488 49.046zm0 0c-.77-.01-1.54-.078-2.3-.202a6.947 6.947 0 01-1.965-.655 6.376 6.376 0 01-1.647-1.207h0l-.005-.005a6.314 6.314 0 01-1.203-1.657v-.001a6.866 6.866 0 01-.644-1.979h0a15.51 15.51 0 01-.205-2.327h0v-.009a58.9 58.9 0 01-.017-1.016L.5 39.883v-.036m7.988 9.199L.5 39.846m139.868 9.714c.378 0 .768-.006 1.141-.014.797-.01 1.592-.08 2.378-.21l-3.519.224zm0 0l-1.379.002 1.379-.002zM.5 39.846v-29.62l.002-.104.004-.332.012-.663h0v-.009c.01-.778.078-1.555.205-2.323h0c.113-.691.33-1.36.644-1.985v-.001a6.381 6.381 0 011.198-1.66h0l.002-.003c.486-.49 1.045-.9 1.657-1.216a6.871 6.871 0 011.958-.65 15.402 15.402 0 012.309-.202h0l1.145-.016H140.36l1.155.016h.001c.766.01 1.531.077 2.287.202a7.022 7.022 0 011.981.653 6.641 6.641 0 012.853 2.88 6.94 6.94 0 01.634 1.968h0c.128.776.199 1.559.214 2.344v.002l.5-.01M.5 39.848l149.49-29.589c0-.388 0-.777-.004-1.14m0 0a16.74 16.74 0 00-.221-2.418l.221 2.418z" stroke="#43454C"/><path d="M33.423 24.545a5.988 5.988 0 01.77-2.863 5.937 5.937 0 012.046-2.134 6.067 6.067 0 00-2.08-1.866 6.02 6.02 0 00-2.69-.73c-2.006-.213-3.952 1.208-4.974 1.208-1.043 0-2.617-1.188-4.313-1.152a6.319 6.319 0 00-3.102.932 6.377 6.377 0 00-2.243 2.35c-2.311 4.03-.587 9.952 1.627 13.21 1.107 1.594 2.402 3.376 4.096 3.313 1.658-.07 2.277-1.065 4.277-1.065 1.983 0 2.564 1.065 4.292 1.024 1.779-.029 2.9-1.602 3.968-3.212a13.231 13.231 0 001.815-3.721 5.724 5.724 0 01-2.536-2.119 5.784 5.784 0 01-.953-3.175zM30.16 14.81a5.891 5.891 0 001.331-4.202 5.911 5.911 0 00-3.833 1.998 5.589 5.589 0 00-1.367 4.045 4.87 4.87 0 002.144-.473 4.905 4.905 0 001.724-1.369zm24.216 17.965H48.72l-1.358 4.039h-2.396l5.358-14.944h2.49l5.357 14.944h-2.437l-1.357-4.04zm-5.07-1.864h4.483l-2.21-6.556h-.062l-2.212 6.556zm20.435.456c0 3.385-1.8 5.56-4.515 5.56a3.647 3.647 0 01-1.974-.46 3.681 3.681 0 01-1.43-1.445h-.052v5.396h-2.22v-14.5h2.15v1.812h.04a3.852 3.852 0 011.458-1.442 3.817 3.817 0 011.987-.484c2.746 0 4.556 2.186 4.556 5.563zm-2.283 0c0-2.206-1.132-3.657-2.859-3.657-1.697 0-2.838 1.481-2.838 3.657 0 2.195 1.141 3.665 2.838 3.665 1.727 0 2.86-1.44 2.86-3.665zm14.192 0c0 3.385-1.8 5.56-4.515 5.56a3.647 3.647 0 01-1.974-.46 3.682 3.682 0 01-1.43-1.445h-.052v5.396h-2.22v-14.5h2.149v1.812h.04a3.852 3.852 0 011.46-1.442 3.817 3.817 0 011.986-.484c2.746 0 4.556 2.186 4.556 5.563zm-2.283 0c0-2.206-1.132-3.657-2.859-3.657-1.697 0-2.838 1.481-2.838 3.657 0 2.195 1.141 3.665 2.838 3.665 1.727 0 2.86-1.44 2.86-3.665zM89.52 32.65c.165 1.482 1.595 2.455 3.549 2.455 1.871 0 3.218-.973 3.218-2.31 0-1.16-.812-1.854-2.735-2.33L91.628 30c-2.725-.663-3.99-1.946-3.99-4.029 0-2.578 2.232-4.35 5.4-4.35 3.136 0 5.286 1.772 5.358 4.35h-2.242c-.134-1.491-1.358-2.392-3.147-2.392-1.79 0-3.014.911-3.014 2.237 0 1.056.782 1.678 2.695 2.154l1.635.404c3.045.726 4.31 1.957 4.31 4.143 0 2.796-2.212 4.547-5.729 4.547-3.291 0-5.513-1.71-5.657-4.413h2.274zm13.906-9.31v2.578h2.057v1.771h-2.057v6.007c0 .933.412 1.368 1.316 1.368.244-.005.488-.022.731-.052v1.76a6.01 6.01 0 01-1.234.104c-2.19 0-3.045-.828-3.045-2.942V27.69h-1.573v-1.77h1.573v-2.58h2.232zm3.249 8.027c0-3.428 2.005-5.582 5.132-5.582 3.137 0 5.132 2.154 5.132 5.582 0 3.437-1.985 5.582-5.132 5.582-3.147 0-5.132-2.145-5.132-5.582zm8.001 0c0-2.352-1.07-3.74-2.869-3.74-1.8 0-2.869 1.399-2.869 3.74 0 2.361 1.069 3.738 2.869 3.738 1.799 0 2.869-1.377 2.869-3.738zm4.094-5.448h2.118v1.854h.051c.144-.58.481-1.09.955-1.45a2.569 2.569 0 011.648-.518c.256-.001.511.027.761.083v2.092c-.323-.1-.66-.145-.998-.135a2.225 2.225 0 00-1.73.717 2.257 2.257 0 00-.584 1.79v6.462h-2.221V25.92zm15.773 7.695c-.299 1.978-2.212 3.335-4.659 3.335-3.148 0-5.101-2.123-5.101-5.53 0-3.418 1.964-5.634 5.008-5.634 2.993 0 4.875 2.07 4.875 5.374v.766h-7.641v.135a2.839 2.839 0 001.743 2.878c.37.152.768.223 1.167.209a2.435 2.435 0 001.502-.35c.45-.276.8-.69.997-1.183h2.109zm-7.508-3.252h5.409a2.637 2.637 0 00-.727-1.966 2.603 2.603 0 00-1.926-.8 2.72 2.72 0 00-1.95.805 2.779 2.779 0 00-.806 1.96zM49.027 10.621a3.135 3.135 0 012.516.985 3.182 3.182 0 01.84 2.583c0 2.294-1.232 3.613-3.356 3.613h-2.576v-7.18h2.576zm-1.468 6.166h1.344a2.228 2.228 0 001.786-.728 2.262 2.262 0 00.566-1.855 2.28 2.28 0 00-.575-1.842 2.247 2.247 0 00-1.777-.726H47.56v5.15zm6.075-1.697a2.584 2.584 0 01.65-1.971 2.55 2.55 0 011.887-.84 2.535 2.535 0 011.887.84 2.572 2.572 0 01.651 1.971 2.585 2.585 0 01-.65 1.974 2.55 2.55 0 01-1.888.842 2.534 2.534 0 01-1.888-.842 2.573 2.573 0 01-.65-1.974zm3.983 0c0-1.175-.524-1.862-1.444-1.862-.923 0-1.442.687-1.442 1.862 0 1.184.519 1.866 1.442 1.866.92 0 1.444-.687 1.444-1.866zm7.839 2.712h-1.102l-1.112-3.991h-.084L62.05 17.8h-1.09l-1.483-5.418h1.077l.964 4.135h.08l1.105-4.135h1.02l1.106 4.135h.084l.959-4.135h1.062l-1.478 5.419zm2.725-5.419h1.023v.86h.079c.135-.309.361-.568.65-.74.287-.174.622-.252.956-.225a1.74 1.74 0 011.412.557 1.765 1.765 0 01.45 1.459v3.508H71.69v-3.24c0-.87-.375-1.304-1.16-1.304a1.228 1.228 0 00-.957.39 1.245 1.245 0 00-.329.984v3.17h-1.062v-5.42zm6.262-2.115h1.062v7.534h-1.062v-7.534zm2.538 4.822a2.584 2.584 0 01.652-1.971 2.552 2.552 0 011.886-.84 2.535 2.535 0 011.887.84 2.57 2.57 0 01.651 1.971 2.585 2.585 0 01-.65 1.974 2.55 2.55 0 01-1.888.843 2.534 2.534 0 01-1.888-.843 2.572 2.572 0 01-.65-1.974zm3.983 0c0-1.175-.524-1.861-1.443-1.861-.923 0-1.443.687-1.443 1.861 0 1.184.52 1.866 1.443 1.866.92 0 1.443-.687 1.443-1.866zm2.211 1.18c0-.976.721-1.538 2.002-1.618l1.457-.085V14.1c0-.572-.376-.895-1.102-.895-.592 0-1.003.219-1.121.602h-1.028c.108-.93.978-1.528 2.199-1.528 1.349 0 2.11.677 2.11 1.821v3.703h-1.023v-.762h-.084a1.815 1.815 0 01-1.616.851 1.615 1.615 0 01-1.254-.41 1.638 1.638 0 01-.54-1.212zm3.46-.464v-.453l-1.315.085c-.741.05-1.077.304-1.077.781 0 .488.42.772.998.772a1.259 1.259 0 00.946-.295 1.276 1.276 0 00.447-.89zm2.453-.716c0-1.712.874-2.797 2.234-2.797a1.764 1.764 0 011.65.95h.08v-2.975h1.061v7.534h-1.017v-.856h-.085a1.857 1.857 0 01-1.69.945c-1.368 0-2.233-1.084-2.233-2.8zm1.097 0c0 1.15.538 1.841 1.438 1.841.895 0 1.448-.701 1.448-1.836 0-1.13-.559-1.841-1.448-1.841-.894 0-1.438.696-1.438 1.836zm8.322 0a2.586 2.586 0 01.65-1.971 2.551 2.551 0 011.887-.84 2.535 2.535 0 011.887.84 2.568 2.568 0 01.651 1.971 2.573 2.573 0 01-1.505 2.596 2.534 2.534 0 01-2.92-.622 2.571 2.571 0 01-.65-1.974zm3.983 0c0-1.175-.524-1.862-1.444-1.862-.923 0-1.442.687-1.442 1.862 0 1.184.519 1.866 1.442 1.866.92 0 1.444-.687 1.444-1.866zm2.517-2.707h1.022v.86h.08a1.613 1.613 0 011.606-.965 1.741 1.741 0 011.412.557 1.765 1.765 0 01.45 1.459v3.508h-1.062v-3.24c0-.87-.376-1.304-1.161-1.304a1.227 1.227 0 00-.956.39 1.247 1.247 0 00-.329.984v3.17h-1.062v-5.42zm10.572-1.349v1.373h1.165v.901h-1.165v2.787c0 .567.232.816.761.816.135 0 .27-.009.404-.025v.891a3.48 3.48 0 01-.577.055c-1.181 0-1.652-.419-1.652-1.463v-3.06h-.854v-.901h.854v-1.374h1.064zm2.616-.766h1.053v2.986h.084a1.66 1.66 0 011.64-.97 1.763 1.763 0 011.399.57 1.792 1.792 0 01.455 1.45v3.498h-1.063v-3.235c0-.865-.401-1.304-1.151-1.304a1.249 1.249 0 00-.995.37 1.265 1.265 0 00-.36 1.004v3.165h-1.062v-7.534zm10.823 6.071a2.199 2.199 0 01-.883 1.21 2.173 2.173 0 01-1.449.358 2.428 2.428 0 01-1.885-.82 2.467 2.467 0 01-.6-1.977 2.509 2.509 0 01.599-1.986 2.479 2.479 0 011.882-.846c1.497 0 2.4 1.03 2.4 2.732v.373h-3.799v.06a1.446 1.446 0 00.375 1.096 1.424 1.424 0 001.058.457 1.28 1.28 0 001.28-.657h1.022zm-3.736-1.747h2.719a1.321 1.321 0 00-.354-.997 1.303 1.303 0 00-.971-.406 1.365 1.365 0 00-.991.406 1.406 1.406 0 00-.403.998z" fill="#111218"/></svg>