<svg width="109" height="119" viewBox="0 0 109 119" fill="none" xmlns="http://www.w3.org/2000/svg"><path d="M.817 44.328a6.192 6.192 0 015.247-5.067l4.226-.598v-.174c0-13.228 10.2-23.989 22.733-23.989h28.595V3.086A3.096 3.096 0 0164.72 0a3.096 3.096 0 013.102 3.086V9.6l4.89-4.866a3.119 3.119 0 014.387 0 3.081 3.081 0 010 4.365l-5.658 5.63c11.066 1.606 19.624 11.644 19.624 23.76v20.124l15.656 18.17a6.166 6.166 0 011.076 6.257 6.186 6.186 0 01-5.03 3.892l-12.31 1.495c-2.375 10.566-11.394 18.448-22.118 18.448h-7.322l3.64 6.826a3.07 3.07 0 01-1.285 4.171 3.115 3.115 0 01-4.2-1.279l-5.183-9.718h-7.224l-5.184 9.718a3.114 3.114 0 01-4.198 1.279 3.074 3.074 0 01-1.286-4.171l3.64-6.826h-6.714c-12.533 0-22.733-10.76-22.733-23.988V54.08l-6.23-3.246a6.173 6.173 0 01-3.242-6.52v.014zm15.677 6.027v32.539c0 9.794 7.433 17.816 16.523 17.816h35.315c9.089 0 16.522-8.015 16.522-17.816l17.151-2.086L84.855 60.9V38.489c0-9.794-7.434-17.816-16.523-17.816H33.017c-9.09 0-16.523 8.015-16.523 17.816v5.533L6.93 45.371l9.564 4.977v.007z" fill="#111218"/><path d="M33.666 100.312h35.106c9.036 0 16.425-7.972 16.425-17.721l17.05-2.075-17.05-19.802V38.422c0-9.742-7.39-17.72-16.425-17.72H33.666c-9.036 0-16.425 7.971-16.425 17.72v5.504l-9.508 1.341 9.508 4.951v32.366c0 9.742 7.39 17.721 16.425 17.721v.007z" fill="#F4991A"/><path d="M36.874 42.592a2.827 2.827 0 01-2.833-2.821 2.827 2.827 0 012.833-2.821 2.827 2.827 0 012.834 2.82 2.827 2.827 0 01-2.834 2.822z" fill="#fff"/><path d="M36.874 36.95a2.83 2.83 0 00-2.834 2.82 2.83 2.83 0 002.834 2.822 2.83 2.83 0 002.833-2.821 2.83 2.83 0 00-2.833-2.821zm0-4.916c4.285 0 7.764 3.47 7.764 7.73 0 4.259-3.486 7.73-7.764 7.73-4.278 0-7.765-3.471-7.765-7.73 0-4.26 3.487-7.73 7.765-7.73z" fill="#242422"/></svg>