<svg width="13" height="13" viewBox="0 0 13 13" fill="none" xmlns="http://www.w3.org/2000/svg">
<path d="M4.73568 1.34028V2.27778H8.48568V1.34028C8.48568 1.03559 8.74609 0.777779 9.11068 0.777779C9.44922 0.777779 9.73568 1.03559 9.73568 1.34028V2.27778H10.7773C11.6888 2.27778 12.444 2.95747 12.444 3.77778V4.15278V5.27778V11.2778C12.444 12.1215 11.6888 12.7778 10.7773 12.7778H2.44401C1.50651 12.7778 0.777344 12.1215 0.777344 11.2778V5.27778V4.15278V3.77778C0.777344 2.95747 1.50651 2.27778 2.44401 2.27778H3.48568V1.34028C3.48568 1.03559 3.74609 0.777779 4.11068 0.777779C4.44922 0.777779 4.73568 1.03559 4.73568 1.34028ZM2.02734 5.27778V11.2778C2.02734 11.4887 2.20964 11.6528 2.44401 11.6528H10.7773C10.9857 11.6528 11.194 11.4887 11.194 11.2778V5.27778H2.02734Z" fill="#585A61"/>
</svg>
