<svg width="24" height="24" viewBox="0 0 24 24" fill="none" xmlns="http://www.w3.org/2000/svg">
<path d="M19.4828 6.90406L13.9134 12.4735L19.4828 18.0959C20.1724 18.7324 20.1724 19.8463 19.4828 20.4828C18.8463 21.1724 17.7324 21.1724 17.0959 20.4828L11.5265 14.9134L5.90406 20.4828C5.26755 21.1724 4.15367 21.1724 3.51716 20.4828C2.82761 19.8463 2.82761 18.7324 3.51716 18.0959L9.08658 12.4735L3.51716 6.90406C2.82761 6.26755 2.82761 5.15367 3.51716 4.51716C4.15367 3.82761 5.26755 3.82761 5.90406 4.51716L11.5265 10.0866L17.0959 4.51716C17.7324 3.82761 18.8463 3.82761 19.4828 4.51716C20.1724 5.15367 20.1724 6.26755 19.4828 6.90406Z" fill="#F9F9FB"/>
</svg>
