<svg width="24" height="25" viewBox="0 0 24 25" fill="none" xmlns="http://www.w3.org/2000/svg">
<g id="xmark">
<path id="icon" d="M19.4828 7.40406L13.9134 12.9735L19.4828 18.5959C20.1724 19.2324 20.1724 20.3463 19.4828 20.9828C18.8463 21.6724 17.7324 21.6724 17.0959 20.9828L11.5265 15.4134L5.90406 20.9828C5.26755 21.6724 4.15367 21.6724 3.51716 20.9828C2.82761 20.3463 2.82761 19.2324 3.51716 18.5959L9.08658 12.9735L3.51716 7.40406C2.82761 6.76755 2.82761 5.65367 3.51716 5.01716C4.15367 4.32761 5.26755 4.32761 5.90406 5.01716L11.5265 10.5866L17.0959 5.01716C17.7324 4.32761 18.8463 4.32761 19.4828 5.01716C20.1724 5.65367 20.1724 6.76755 19.4828 7.40406Z" fill="#43454C"/>
</g>
</svg>
