<svg width="22" height="23" viewBox="0 0 22 23" fill="none" xmlns="http://www.w3.org/2000/svg">
<path d="M1.5853 15.5482L1.58553 15.5487C2.07591 16.784 2.769 17.8573 3.66499 18.767C4.5613 19.677 5.63053 20.3848 6.87084 20.8908C8.11332 21.3977 9.48325 21.65 10.9787 21.65C11.7437 21.65 12.5432 21.5606 13.3767 21.3827C14.2124 21.2043 14.9644 20.9435 15.6317 20.5992L15.7458 20.5403L15.7052 20.4185L15.2361 19.0103L15.1802 18.8426L15.0238 18.9251C14.3971 19.2556 13.7284 19.4929 13.0172 19.6368L13.0172 19.6368L13.0143 19.6374C12.2987 19.7967 11.6202 19.8759 10.9787 19.8759C9.7306 19.8759 8.59886 19.6661 7.58142 19.249L7.58038 19.2486C6.57546 18.8453 5.7045 18.2699 4.96599 17.5222L4.96597 17.5222C4.24238 16.7899 3.68481 15.9132 3.29377 14.8902C2.90291 13.8529 2.7065 12.7124 2.7065 11.467C2.7065 10.2367 2.90278 9.11124 3.29332 8.08902C3.69834 7.06609 4.2699 6.18934 5.00761 5.45683L5.00864 5.45579C5.74679 4.70846 6.62456 4.13305 7.64369 3.72968L7.64369 3.72969L7.64472 3.72927C8.67679 3.3119 9.81592 3.10214 11.064 3.10214C12.3133 3.10214 13.4389 3.29768 14.4427 3.6861L14.4427 3.68612L14.4451 3.687C15.464 4.06148 16.3412 4.60789 17.0787 5.32586L17.0797 5.32682C17.8312 6.04483 18.4019 6.89917 18.7922 7.89153L18.7922 7.89154L18.7931 7.89393C19.1969 8.8708 19.4001 9.96574 19.4001 11.181C19.4001 12.0824 19.3225 12.855 19.1696 13.5006L19.1691 13.5029C19.0303 14.133 18.8116 14.5963 18.5233 14.9074L18.5232 14.9074L18.5209 14.91C18.2479 15.2185 17.9321 15.3654 17.5672 15.3654C17.2653 15.3654 17.0121 15.2634 16.7991 15.0574C16.6145 14.8655 16.5018 14.5056 16.5018 13.9312V6.01045V5.86045H16.3518H14.4968H14.3468V6.01045V7.35783C14.0319 6.99447 13.6665 6.69254 13.2506 6.45306C12.4854 5.99773 11.5984 5.77244 10.5949 5.77244C9.56094 5.77244 8.63784 6.02065 7.83024 6.52043C7.02436 7.00448 6.38795 7.68485 5.92126 8.55755C5.45287 9.41873 5.221 10.412 5.221 11.533C5.221 12.64 5.45313 13.6329 5.92103 14.508C6.38752 15.3805 7.02325 16.0748 7.82765 16.588L7.82935 16.589C8.63716 17.0892 9.56056 17.3376 10.5949 17.3376C11.6126 17.3376 12.5071 17.1123 13.2729 16.6564L13.2729 16.6564L13.2748 16.6553C13.7847 16.3416 14.2188 15.9404 14.577 15.4532C14.6984 15.8808 14.897 16.2452 15.1765 16.5423L15.1764 16.5423L15.178 16.5439C15.6938 17.0761 16.3745 17.3376 17.2047 17.3376C18.0473 17.3376 18.7657 17.0849 19.3503 16.5745L19.3505 16.5743C19.9435 16.0542 20.3897 15.3326 20.6945 14.4188C20.9995 13.5047 21.15 12.417 21.15 11.159C21.15 9.71907 20.9054 8.40135 20.4139 7.20781C19.923 6.00122 19.2221 4.96413 18.311 4.09836C17.4147 3.2184 16.3527 2.54047 15.1268 2.06425C13.8992 1.58733 12.5443 1.35 11.064 1.35C9.55503 1.35 8.1716 1.59473 6.91548 2.08639C5.66052 2.5776 4.57669 3.27809 3.66583 4.18817L3.66499 4.18902C2.769 5.09868 2.07591 6.17197 1.58553 7.40725C1.09452 8.64414 0.85 9.99796 0.85 11.467C0.85 12.9361 1.09453 14.297 1.5853 15.5482ZM13.9173 13.5736L13.9167 13.5747C13.6167 14.1375 13.2026 14.5713 12.6735 14.8794C12.1587 15.1728 11.5668 15.3214 10.8934 15.3214C10.2071 15.3214 9.60178 15.1661 9.07321 14.8589C8.55767 14.5364 8.14993 14.0952 7.84946 13.5319C7.56407 12.9704 7.41866 12.3056 7.41866 11.533C7.41866 10.7452 7.56425 10.0733 7.84947 9.51208C8.14976 8.94918 8.5566 8.52376 9.07005 8.23097L9.0712 8.2303C9.60024 7.92234 10.2062 7.76661 10.8934 7.76661C11.567 7.76661 12.1592 7.91533 12.6741 8.20896L12.6741 8.20897L12.6755 8.20978C13.2034 8.50308 13.6168 8.92882 13.9167 9.49135L13.9166 9.49136L13.918 9.49381C14.23 10.0537 14.3894 10.7315 14.3894 11.533C14.3894 12.3192 14.2303 12.9978 13.9173 13.5736Z" fill="#F4991A" stroke="#F4991A" stroke-width="0.3"/>
</svg>
