<svg width="32" height="32" viewBox="0 0 32 32" fill="none" xmlns="http://www.w3.org/2000/svg">
<path d="M13.36 31.84C5.76 30.48 0 23.92 0 16C0 7.2 7.2 0 16 0C24.8 0 32 7.2 32 16C32 23.92 26.24 30.48 18.64 31.84L17.76 31.12H14.24L13.36 31.84Z" fill="url(#paint0_linear_6_468)"/>
<path d="M22.24 20.48L22.96 16H18.72V12.88C18.72 11.6 19.2 10.64 21.12 10.64H23.2V6.56C22.08 6.4 20.8 6.24 19.68 6.24C16 6.24 13.44 8.48 13.44 12.48V16H9.44V20.48H13.44V31.76C14.32 31.92 15.2 32 16.08 32C16.96 32 17.84 31.92 18.72 31.76V20.48H22.24Z" fill="white"/>
<path d="M16.08 31.75C15.401 31.75 14.7219 31.7015 14.0426 31.6046L14.3292 31.37H17.6708L17.9805 31.6235C17.3468 31.7078 16.7133 31.75 16.08 31.75ZM31.75 16C31.75 23.6644 26.269 30.038 18.97 31.5224V20.73H22.24H22.453L22.4868 20.5197L23.2068 16.0397L23.2534 15.75H22.96H18.97V12.88C18.97 12.2635 19.0871 11.7792 19.3858 11.4472C19.6801 11.1203 20.1978 10.89 21.12 10.89H23.2H23.45V10.64V6.56V6.34318L23.2354 6.31251C22.1151 6.15247 20.8195 5.99 19.68 5.99C17.7896 5.99 16.1625 6.56603 15.0065 7.67998C13.849 8.79539 13.19 10.425 13.19 12.48V15.75H9.44H9.19V16V20.48V20.73H9.44H13.19V31.5541C5.81124 30.1309 0.25 23.7203 0.25 16C0.25 7.33807 7.33807 0.25 16 0.25C24.6619 0.25 31.75 7.33807 31.75 16ZM18.47 20.48V31.3779L17.9183 30.9265L17.8492 30.87H17.76H14.24H14.1508L14.0817 30.9265L13.69 31.247V20.48V20.23H13.44H9.69V16.25H13.44H13.69V16V12.48C13.69 10.535 14.311 9.04461 15.3535 8.04002C16.3975 7.03397 17.8904 6.49 19.68 6.49C20.7107 6.49 21.8853 6.62819 22.95 6.77713V10.39H21.12C20.1222 10.39 19.4399 10.6397 19.0142 11.1128C18.5929 11.5808 18.47 12.2165 18.47 12.88V16V16.25H18.72H22.6666L22.027 20.23H18.72H18.47V20.48Z" stroke="#F9F9FB" stroke-width="0.5"/>
<defs>
<linearGradient id="paint0_linear_6_468" x1="16.0008" y1="31.0423" x2="16.0008" y2="-0.00592384" gradientUnits="userSpaceOnUse">
<stop stop-color="#0062E0"/>
<stop offset="1" stop-color="#19AFFF"/>
</linearGradient>
</defs>
</svg>
