<svg width="25" height="20" viewBox="0 0 25 20" fill="none" xmlns="http://www.w3.org/2000/svg">
<path d="M2.00195 0H15.1367C16.2598 0 17.1875 0.989583 17.1875 2.1875C17.1875 2.70833 16.9922 3.22917 16.6504 3.64583L12.1094 8.85417V18.3333C12.1094 19.2708 11.377 20 10.498 20C10.2051 20 9.86328 19.9479 9.61914 19.7396L5.95703 17.1354C5.37109 16.7708 5.07812 16.0938 5.07812 15.4167V8.85417L0.537109 3.64583C0.146484 3.22917 0 2.70833 0 2.1875C0 0.989583 0.878906 0 2.00195 0ZM7.08008 7.5C7.27539 7.76042 7.42188 8.02083 7.42188 8.33333V15.2083L9.76562 16.8229V8.33333C9.76562 8.02083 9.86328 7.76042 10.0586 7.5L14.4043 2.5H2.73438L7.08008 7.5ZM16.7969 17.0833H23.8281C24.4629 17.0833 25 17.6562 25 18.3333C25 19.0625 24.4629 19.5833 23.8281 19.5833H16.7969C16.1133 19.5833 15.625 19.0625 15.625 18.3333C15.625 17.6562 16.1133 17.0833 16.7969 17.0833ZM15.625 10C15.625 9.32292 16.1133 8.75 16.7969 8.75H23.8281C24.4629 8.75 25 9.32292 25 10C25 10.7292 24.4629 11.25 23.8281 11.25H16.7969C16.1133 11.25 15.625 10.7292 15.625 10ZM19.9219 0.416667H23.8281C24.4629 0.416667 25 0.989583 25 1.66667C25 2.39583 24.4629 2.91667 23.8281 2.91667H19.9219C19.2383 2.91667 18.75 2.39583 18.75 1.66667C18.75 0.989583 19.2383 0.416667 19.9219 0.416667Z" fill="#F9F9FB"/>
</svg>
