<svg width="14" height="14" viewBox="0 0 14 14" fill="none" xmlns="http://www.w3.org/2000/svg">
<path d="M10.2812 6.45312C10.2812 7.39648 9.97363 8.27832 9.46094 8.97559L12.0449 11.5801C12.3115 11.8262 12.3115 12.2568 12.0449 12.5029C11.7988 12.7695 11.3682 12.7695 11.1221 12.5029L8.51758 9.89844C7.82031 10.4316 6.93848 10.7188 6.01562 10.7188C3.65723 10.7188 1.75 8.81152 1.75 6.45312C1.75 4.11523 3.65723 2.1875 6.01562 2.1875C8.35352 2.1875 10.2812 4.11523 10.2812 6.45312ZM6.01562 9.40625C7.06152 9.40625 8.02539 8.85254 8.55859 7.92969C9.0918 7.02734 9.0918 5.89941 8.55859 4.97656C8.02539 4.07422 7.06152 3.5 6.01562 3.5C4.94922 3.5 3.98535 4.07422 3.45215 4.97656C2.91895 5.89941 2.91895 7.02734 3.45215 7.92969C3.98535 8.85254 4.94922 9.40625 6.01562 9.40625Z" fill="#585A61"/>
</svg>
