<svg width="150" height="50" viewBox="0 0 150 50" fill="none" xmlns="http://www.w3.org/2000/svg"><path d="M8.488 49.046h.005c.381.008.756.013 1.139.013l129.356.003h.001l1.378-.003h.001c.374 0 .76-.005 1.129-.013h.006a15.35 15.35 0 002.301-.202 6.908 6.908 0 001.977-.657 6.378 6.378 0 001.651-1.214l.004-.004a6.53 6.53 0 001.198-1.647 6.876 6.876 0 00.64-1.992v-.003c.126-.76.197-1.53.211-2.3v-.002l.5.01c.005-.394.005-.775.005-1.192L8.488 49.046zm0 0c-.77-.01-1.54-.078-2.301-.202a6.948 6.948 0 01-1.964-.655 6.377 6.377 0 01-1.647-1.207h0l-.005-.005a6.314 6.314 0 01-1.203-1.657v-.001a6.866 6.866 0 01-.644-1.979h0a15.51 15.51 0 01-.205-2.327h0v-.009a58.9 58.9 0 01-.017-1.016L.5 39.883v-.036m7.988 9.199L.5 39.846m139.868 9.713c.378 0 .768-.005 1.141-.013.797-.01 1.592-.08 2.378-.21l-3.519.223zm0 0l-1.379.003 1.379-.003zM.5 39.847V10.226l.002-.104.004-.332.012-.663h0v-.009c.01-.778.078-1.555.205-2.323h0c.113-.691.33-1.36.644-1.985v-.001a6.381 6.381 0 011.198-1.66h0l.002-.003c.486-.49 1.045-.9 1.657-1.216a6.871 6.871 0 011.958-.65 15.402 15.402 0 012.309-.202h0l1.145-.016H140.36l1.155.016h.001c.766.01 1.53.077 2.287.202a7.03 7.03 0 011.981.653 6.641 6.641 0 012.853 2.88 6.94 6.94 0 01.634 1.968h0c.128.776.199 1.559.214 2.344v.002l.5-.01M.5 39.848l149.49-29.589c0-.388 0-.777-.004-1.14m0 0a16.74 16.74 0 00-.221-2.418l.221 2.418z" stroke="#43454C"/><path fill-rule="evenodd" clip-rule="evenodd" d="M15.74 25.427V13.92c0-.658.543-1.206 1.086-1.206s.76.11 1.086.33L38.874 24.66c.434.219.652.548.652.877 0 .328-.218.657-.652.876L17.912 38.03c-.217.11-.543.329-1.086.329s-1.086-.548-1.086-1.206V25.427z" fill="url(#paint0_linear_368_4322)"/><path fill-rule="evenodd" clip-rule="evenodd" d="M29.317 25.537L16.609 12.715h.218c.543 0 .76.11 1.086.33l15.422 8.546-4.018 3.945z" fill="url(#paint1_linear_368_4322)"/><path fill-rule="evenodd" clip-rule="evenodd" d="M33.226 29.372l-3.91-3.945 4.019-4.054 5.54 3.068c.434.219.65.548.65.877 0 .328-.216.657-.65.876l-5.649 3.178z" fill="url(#paint2_linear_368_4322)"/><path fill-rule="evenodd" clip-rule="evenodd" d="M16.718 38.138l12.599-12.711 3.91 3.945-15.314 8.438c-.326.219-.543.328-1.195.328.109 0 .109 0 0 0z" fill="url(#paint3_linear_368_4322)"/><path fill-rule="evenodd" clip-rule="evenodd" d="M129.237 39.344h-.108v-.11h.108-.108v.11h.108zm.217 0c0-.11 0-.11 0 0-.109-.11-.109-.11 0 0-.109 0-.109 0 0 0zm0-.11c0 .11 0 .11 0 0-.109.11 0 .11 0 0zm.109 0h-.108.108v.11-.11z" fill="#fff"/><path fill-rule="evenodd" clip-rule="evenodd" d="M82.319 40.408c-.544-.438-.978-1.205-1.195-1.643l1.738-.767c.108.219.325.548.543.876.434.439 1.086.877 1.737.877.652 0 1.412-.329 1.847-.877.325-.547.543-1.095.543-1.863v-.657c-1.304 1.644-4.019 1.425-5.54-.329-1.629-1.753-1.629-4.712 0-6.465 1.63-1.644 4.02-1.863 5.431-.329v-.767h1.846v8.219c0 2.082-.76 3.287-1.737 4.054-.652.548-1.63.767-2.498.767-.978-.11-1.955-.438-2.716-1.096zm45.507.439l1.846-4.383-3.258-7.562h1.846l2.281 5.37 2.281-5.37h1.846l-4.996 11.945h-1.846zm-8.797-4.164c-.544-.548-.761-1.315-.761-2.082 0-.658.217-1.315.652-1.754.76-.767 1.846-1.096 3.041-1.096.76 0 1.412.11 1.955.439 0-1.315-1.086-1.863-1.955-1.863-.76 0-1.521.438-1.846 1.205l-1.63-.657c.326-.767 1.195-2.192 3.367-2.192 1.086 0 2.173.329 2.824 1.096.652.767.869 1.644.869 2.85v4.602h-1.846v-.767c-.217.328-.652.547-.978.767-.434.219-.977.328-1.52.328-.652-.11-1.629-.328-2.172-.876zm-57.89-3.945c0-2.192 1.63-4.603 4.562-4.603 2.824 0 4.562 2.411 4.562 4.603 0 2.191-1.63 4.602-4.562 4.602-2.932 0-4.561-2.41-4.561-4.602zm9.776 0c0-2.192 1.629-4.603 4.561-4.603 2.824 0 4.562 2.411 4.562 4.603 0 2.191-1.63 4.602-4.562 4.602-2.824 0-4.561-2.41-4.561-4.602zm-22.048 2.41c-2.715-2.739-2.607-7.232.108-10.081 1.412-1.425 3.15-2.082 4.996-2.082a6.71 6.71 0 014.78 1.972l-1.304 1.425c-1.955-1.973-5.105-1.863-6.951.11a5.329 5.329 0 000 7.342c1.955 2.082 5.213 2.191 7.168.11.652-.658.869-1.535.978-2.412H54.08V29.56h6.408c.109.438.109.986.109 1.534 0 1.644-.652 3.288-1.738 4.383-1.195 1.206-2.933 1.863-4.67 1.863-1.955-.11-3.91-.767-5.322-2.191zm45.942.768c-1.63-1.754-1.63-4.712 0-6.575 1.629-1.754 4.344-1.754 5.865 0 .543.548.868 1.315 1.194 2.082l-5.973 2.52a2.317 2.317 0 002.172 1.425c.977 0 1.629-.329 2.281-1.315l1.629 1.096c-.217.219-.435.438-.543.657-1.847 1.863-4.996 1.863-6.625.11zm11.295 1.315V25.067h3.91c2.281 0 4.127 1.644 4.127 3.616 0 1.973-1.629 3.616-3.693 3.616h-2.389v4.822h-1.955v.11zm9.123 0V25.067h1.847V37.23h-1.847zm-24.546-.22V23.423h1.955v13.588h-1.955zm33.126-3.397c-.434-.328-1.086-.438-1.737-.438-1.304 0-2.064.658-2.064 1.425s.76 1.205 1.521 1.205c1.086 0 2.28-.877 2.28-2.192zm-55.608-.876c0-1.315-.869-2.74-2.498-2.74-1.629 0-2.498 1.425-2.498 2.74 0 1.315.87 2.74 2.498 2.74 1.52 0 2.498-1.425 2.498-2.74zm9.775 0c0-1.315-.869-2.74-2.498-2.74-1.63 0-2.498 1.425-2.498 2.74 0 1.315.869 2.74 2.498 2.74 1.63 0 2.498-1.425 2.498-2.74zm9.666.767c0-.11 0-.22.109-.329v-.987c0-.109-.109-.328-.109-.438-.326-1.095-1.303-1.862-2.28-1.862-1.304 0-2.39 1.315-2.39 2.74 0 1.533 1.086 2.739 2.498 2.739.869.11 1.738-.658 2.172-1.863zm7.929-.986l4.018-1.754c-.434-.767-1.086-.986-1.629-.986-1.629.11-2.606 1.863-2.39 2.74zm16.617-3.726c0-1.096-.869-1.863-2.063-1.863h-2.173v3.835h2.281a1.956 1.956 0 001.955-1.972z" fill="#111218"/><path d="M47.347 14.328c0-1.973 1.412-3.178 3.15-3.178 1.194 0 1.954.548 2.497 1.315l-.868.548c-.326-.438-.87-.767-1.63-.767-1.194 0-2.063.876-2.063 2.191s.869 2.192 2.063 2.192c.652 0 1.195-.329 1.412-.548v-.986H50.17v-.986h2.933v2.3c-.543.658-1.412 1.097-2.498 1.097-1.846 0-3.258-1.315-3.258-3.178zm7.059 3.068V11.26h4.127v.986h-3.15v1.534h3.041v.986h-3.04v1.754h3.149v.986l-4.127-.11zm7.167 0v-5.15h-1.846v-.986h4.779v.986H62.66v5.15h-1.087zm6.626 0V11.26h1.086v6.136h-1.086zm4.018 0v-5.15h-1.846v-.986h4.778v.986h-1.846v5.15h-1.086zm6.409-3.068c0-1.863 1.303-3.178 3.15-3.178 1.846 0 3.149 1.315 3.149 3.178s-1.303 3.178-3.15 3.178c-1.846 0-3.15-1.425-3.15-3.178zm5.104 0c0-1.315-.76-2.192-2.063-2.192-1.195 0-2.064.986-2.064 2.192 0 1.315.76 2.192 2.064 2.192 1.303 0 2.063-.987 2.063-2.192zm6.625 3.068l-3.15-4.383v4.383H86.12V11.26h1.086l3.15 4.274V11.26h1.086v6.136h-1.086z" fill="#111218"/><defs><linearGradient id="paint0_linear_368_4322" x1="23" y1="11" x2="29" y2="36" gradientUnits="userSpaceOnUse"><stop stop-color="#006884"/><stop offset="1" stop-color="#8AD1D0"/></linearGradient><linearGradient id="paint1_linear_368_4322" x1="15" y1="15" x2="32" y2="24" gradientUnits="userSpaceOnUse"><stop stop-color="#24BBB6"/><stop offset="1" stop-color="#DBE692"/></linearGradient><linearGradient id="paint2_linear_368_4322" x1="34" y1="30" x2="34" y2="21" gradientUnits="userSpaceOnUse"><stop stop-color="#FCC072"/><stop offset="1" stop-color="#F58A5B"/></linearGradient><linearGradient id="paint3_linear_368_4322" x1="19" y1="40" x2="32" y2="27" gradientUnits="userSpaceOnUse"><stop stop-color="#712B8F"/><stop offset="1" stop-color="#EA1D27"/></linearGradient></defs></svg>