<svg width="136" height="35" viewBox="0 0 136 35" fill="none" xmlns="http://www.w3.org/2000/svg"><path fill-rule="evenodd" clip-rule="evenodd" d="M0 16.182V3.14c0-.746.621-1.367 1.242-1.367s.87.125 1.242.373l23.97 13.165c.497.249.746.621.746.994 0 .372-.248.745-.745.993L2.484 30.465c-.248.124-.621.372-1.242.372S0 30.217 0 29.471v-13.29z" fill="url(#paint0_linear_220_824)"/><path fill-rule="evenodd" clip-rule="evenodd" d="M15.525 16.306L.994 1.774h.248c.621 0 .87.125 1.242.373l17.636 9.688-4.595 4.47z" fill="url(#paint1_linear_220_824)"/><path fill-rule="evenodd" clip-rule="evenodd" d="M19.996 20.653l-4.47-4.471 4.595-4.596 6.334 3.478c.497.248.745.621.745.994 0 .372-.248.745-.745.993l-6.459 3.602z" fill="url(#paint2_linear_220_824)"/><path fill-rule="evenodd" clip-rule="evenodd" d="M1.118 30.589l14.408-14.407 4.47 4.47-17.511 9.564c-.373.249-.621.373-1.367.373.125 0 .125 0 0 0z" fill="url(#paint3_linear_220_824)"/><path fill-rule="evenodd" clip-rule="evenodd" d="M129.79 31.955h-.125v-.124h.125-.125v.124h.125zm.247 0c0-.124 0-.124 0 0-.124-.124-.124-.124 0 0-.124 0-.124 0 0 0zm0-.124c0 .124 0 .124 0 0-.124.124 0 .124 0 0zm.125-.001h-.124.124v.125-.124z" fill="#fff"/><path fill-rule="evenodd" clip-rule="evenodd" d="M76.135 33.161c-.62-.496-1.118-1.366-1.366-1.863l1.987-.869c.124.248.373.621.621.994.497.496 1.242.993 1.987.993.745 0 1.615-.372 2.112-.993.372-.621.62-1.242.62-2.112v-.745c-1.49 1.863-4.595 1.615-6.334-.373-1.862-1.987-1.862-5.34 0-7.327 1.864-1.863 4.596-2.112 6.21-.373v-.87h2.112v9.316c0 2.36-.87 3.726-1.987 4.595-.745.621-1.863.87-2.857.87-1.118-.125-2.236-.497-3.105-1.243zm52.04.497l2.111-4.968-3.726-8.57h2.112l2.608 6.086 2.608-6.086H136l-5.714 13.538h-2.111zm-10.06-4.72c-.621-.62-.87-1.49-.87-2.36 0-.744.249-1.49.746-1.986.869-.87 2.111-1.242 3.477-1.242.87 0 1.615.124 2.236.496 0-1.49-1.242-2.111-2.236-2.111-.869 0-1.739.497-2.111 1.366l-1.863-.745c.372-.87 1.366-2.484 3.85-2.484 1.242 0 2.484.373 3.229 1.242.745.87.994 1.863.994 3.23v5.216h-2.112v-.87c-.248.373-.745.621-1.117.87-.497.248-1.118.372-1.739.372-.745-.124-1.863-.372-2.484-.993zm-66.199-4.47c0-2.485 1.863-5.217 5.216-5.217 3.23 0 5.217 2.732 5.217 5.216s-1.863 5.217-5.217 5.217c-3.353 0-5.216-2.733-5.216-5.217zm11.178 0c0-2.485 1.863-5.217 5.217-5.217 3.229 0 5.216 2.732 5.216 5.216s-1.863 5.217-5.216 5.217c-3.23 0-5.217-2.733-5.217-5.217zM37.881 27.2c-3.105-3.105-2.98-8.197.125-11.427 1.614-1.614 3.601-2.36 5.713-2.36 1.987 0 3.974.746 5.465 2.236l-1.49 1.615c-2.236-2.236-5.838-2.112-7.95.124a6 6 0 000 8.321c2.236 2.36 5.962 2.484 8.198.125.745-.746.993-1.74 1.117-2.733h-5.216v-2.235h7.328c.124.496.124 1.117.124 1.738 0 1.863-.745 3.726-1.987 4.968-1.366 1.367-3.354 2.112-5.34 2.112-2.236-.124-4.472-.87-6.087-2.484zm52.537.87c-1.863-1.988-1.863-5.341 0-7.453 1.863-1.987 4.968-1.987 6.707 0 .621.621.994 1.49 1.366 2.36l-6.83 2.857a2.65 2.65 0 002.483 1.614c1.118 0 1.863-.372 2.608-1.49l1.863 1.242c-.248.248-.496.497-.62.745-2.112 2.111-5.714 2.111-7.577.124zm12.917 1.49V15.773h4.471c2.608 0 4.72 1.863 4.72 4.099s-1.863 4.099-4.223 4.099h-2.732v5.464h-2.236v.125zm10.433 0V15.773h2.111V29.56h-2.111zm-28.07-.249v-15.4h2.236v15.4h-2.236zm37.882-3.85c-.497-.373-1.242-.497-1.988-.497-1.49 0-2.359.745-2.359 1.615s.869 1.366 1.738 1.366c1.242 0 2.609-.994 2.609-2.484zm-63.591-.994c0-1.49-.994-3.105-2.857-3.105-1.863 0-2.856 1.615-2.856 3.105s.993 3.105 2.856 3.105c1.74 0 2.857-1.614 2.857-3.105zm11.178 0c0-1.49-.993-3.105-2.856-3.105-1.864 0-2.857 1.615-2.857 3.105s.994 3.105 2.857 3.105c1.862 0 2.856-1.614 2.856-3.105zm11.054.87c0-.124 0-.249.124-.373v-1.118c0-.124-.124-.372-.124-.496-.373-1.242-1.49-2.112-2.608-2.112-1.49 0-2.733 1.49-2.733 3.105 0 1.739 1.242 3.105 2.857 3.105.994.124 1.987-.745 2.484-2.111zm9.066-1.118l4.596-1.987c-.497-.87-1.242-1.118-1.863-1.118-1.863.124-2.98 2.111-2.733 3.105zm19.003-4.223c0-1.242-.993-2.111-2.36-2.111h-2.484v4.347h2.609a2.226 2.226 0 002.235-2.236z" fill="#111218"/><path d="M36.143 3.602C36.143 1.366 37.758 0 39.745 0c1.366 0 2.236.621 2.857 1.49l-.994.621c-.373-.496-.994-.869-1.863-.869-1.366 0-2.36.994-2.36 2.484s.994 2.484 2.36 2.484c.745 0 1.366-.373 1.614-.621V4.471h-1.987V3.353h3.354v2.609c-.621.745-1.615 1.242-2.857 1.242-2.111 0-3.726-1.49-3.726-3.602zm8.073 3.478V.125h4.72v1.117h-3.603v1.74h3.478v1.117h-3.478v1.987h3.602v1.118l-4.72-.124zm8.196 0V1.242h-2.111V.125h5.465v1.117h-2.112V7.08h-1.242zm7.576 0V.125h1.242V7.08h-1.242zm4.596 0V1.242h-2.112V.125h5.465v1.117h-2.111V7.08h-1.242zm7.328-3.478C71.912 1.49 73.402 0 75.514 0c2.111 0 3.602 1.49 3.602 3.602 0 2.111-1.49 3.602-3.602 3.602-2.111 0-3.602-1.615-3.602-3.602zm5.837 0c0-1.49-.869-2.484-2.36-2.484-1.365 0-2.36 1.118-2.36 2.484 0 1.49.87 2.484 2.36 2.484 1.491 0 2.36-1.118 2.36-2.484zm7.576 3.478l-3.602-4.968V7.08h-1.242V.125h1.242l3.602 4.843V.125h1.242V7.08h-1.242z" fill="#111218"/><defs><linearGradient id="paint0_linear_220_824" x1="8" y1="0" x2="15" y2="29" gradientUnits="userSpaceOnUse"><stop stop-color="#006884"/><stop offset="1" stop-color="#8AD1D0"/></linearGradient><linearGradient id="paint1_linear_220_824" x1="0" y1="4" x2="19" y2="14" gradientUnits="userSpaceOnUse"><stop stop-color="#24BBB6"/><stop offset="1" stop-color="#DBE692"/></linearGradient><linearGradient id="paint2_linear_220_824" x1="21" y1="21" x2="21" y2="11" gradientUnits="userSpaceOnUse"><stop stop-color="#FCC072"/><stop offset="1" stop-color="#F58A5B"/></linearGradient><linearGradient id="paint3_linear_220_824" x1="3" y1="33" x2="18" y2="18" gradientUnits="userSpaceOnUse"><stop stop-color="#712B8F"/><stop offset="1" stop-color="#EA1D27"/></linearGradient></defs></svg>