<svg width="94" height="24" viewBox="0 0 94 24" fill="none" xmlns="http://www.w3.org/2000/svg">
<path fill-rule="evenodd" clip-rule="evenodd" d="M0.302124 11.2833V2.3601C0.302124 1.85021 0.726549 1.42529 1.15097 1.42529C1.5754 1.42529 1.74517 1.51027 1.99982 1.68024L18.3826 10.6884C18.7222 10.8584 18.8919 11.1133 18.8919 11.3683C18.8919 11.6232 18.7222 11.8782 18.3826 12.0481L1.99982 21.0563C1.83005 21.1413 1.5754 21.3112 1.15097 21.3112C0.726549 21.3112 0.302124 20.8863 0.302124 20.3764V11.2833Z" fill="url(#paint0_linear_2001_3794)"/>
<path fill-rule="evenodd" clip-rule="evenodd" d="M10.9127 11.3683L0.981201 1.42529C1.06609 1.42529 1.06608 1.42529 1.15097 1.42529C1.57539 1.42529 1.74516 1.51027 1.99982 1.68024L14.0535 8.30889L10.9127 11.3683Z" fill="url(#paint1_linear_2001_3794)"/>
<path fill-rule="evenodd" clip-rule="evenodd" d="M13.9686 14.3424L10.9127 11.283L14.0535 8.13867L18.3826 10.5182C18.7221 10.6882 18.8919 10.9431 18.8919 11.198C18.8919 11.453 18.7221 11.7079 18.3826 11.8779L13.9686 14.3424Z" fill="url(#paint2_linear_2001_3794)"/>
<path fill-rule="evenodd" clip-rule="evenodd" d="M1.06653 21.1412L10.9132 11.2832L13.969 14.3426L2.00027 20.8862C1.74561 21.0562 1.57584 21.1412 1.06653 21.1412C1.15141 21.1412 1.15141 21.1412 1.06653 21.1412Z" fill="url(#paint3_linear_2001_3794)"/>
<path fill-rule="evenodd" clip-rule="evenodd" d="M89.0074 22.0763H88.9221V21.9912H89.0074H88.9221V22.0763H89.0074Z" fill="#E6E7EB"/>
<path fill-rule="evenodd" clip-rule="evenodd" d="M89.1768 22.0763C89.1768 21.9912 89.1768 21.9912 89.1768 22.0763C89.0915 21.9912 89.0915 21.9912 89.1768 22.0763C89.0915 22.0763 89.0915 22.0763 89.1768 22.0763ZM89.1768 21.9912C89.1768 22.0763 89.1768 22.0763 89.1768 21.9912C89.0915 22.0763 89.1768 22.0763 89.1768 21.9912Z" fill="#E6E7EB"/>
<path fill-rule="evenodd" clip-rule="evenodd" d="M89.2621 21.9912H89.1768H89.2621V22.0763V21.9912Z" fill="#E6E7EB"/>
<path fill-rule="evenodd" clip-rule="evenodd" d="M52.3368 22.9014C51.9124 22.5615 51.5728 21.9666 51.4031 21.6267L52.7612 21.0318C52.8461 21.2017 53.0159 21.4567 53.1857 21.7116C53.5252 22.0516 54.0345 22.3915 54.5438 22.3915C55.0531 22.3915 55.6473 22.1366 55.9869 21.7116C56.2415 21.2867 56.4113 20.8618 56.4113 20.2669V19.757C55.3927 21.0318 53.2705 20.8618 52.0821 19.5021C50.8089 18.1424 50.8089 15.8478 52.0821 14.4881C53.3554 13.2134 55.2229 13.0434 56.3264 14.2332V13.6383H57.7694V20.012C57.7694 21.6267 57.1752 22.5615 56.4113 23.1564C55.902 23.5813 55.138 23.7512 54.4589 23.7512C53.695 23.6662 52.931 23.4113 52.3368 22.9014ZM87.9036 23.2413L89.3466 19.842L86.8001 13.9782H88.2431L90.0257 18.1424L91.8083 13.9782H93.2513L89.3466 23.2413H87.9036ZM81.0279 20.012C80.6035 19.5871 80.4337 18.9922 80.4337 18.3973C80.4337 17.8874 80.6035 17.3775 80.943 17.0376C81.5372 16.4427 82.3861 16.1878 83.3198 16.1878C83.914 16.1878 84.4233 16.2728 84.8477 16.5277C84.8477 15.5079 83.9989 15.083 83.3198 15.083C82.7256 15.083 82.1314 15.4229 81.8768 16.0178L80.6035 15.5079C80.8581 14.913 81.5372 13.8083 83.2349 13.8083C84.0838 13.8083 84.9326 14.0632 85.4419 14.6581C85.9512 15.253 86.121 15.9328 86.121 16.8676V20.4369H84.678V19.842C84.5082 20.097 84.1686 20.2669 83.914 20.4369C83.5744 20.6069 83.15 20.6919 82.7256 20.6919C82.2163 20.6069 81.4523 20.4369 81.0279 20.012ZM35.7842 16.9526C35.7842 15.253 37.0575 13.3833 39.3494 13.3833C41.5564 13.3833 42.9146 15.253 42.9146 16.9526C42.9146 18.6523 41.6413 20.5219 39.3494 20.5219C37.0575 20.5219 35.7842 18.6523 35.7842 16.9526ZM43.4239 16.9526C43.4239 15.253 44.6972 13.3833 46.9891 13.3833C49.1961 13.3833 50.5542 15.253 50.5542 16.9526C50.5542 18.6523 49.2809 20.5219 46.9891 20.5219C44.782 20.5219 43.4239 18.6523 43.4239 16.9526ZM26.1922 18.8222C24.0701 16.6977 24.155 13.2134 26.2771 11.0038C27.3806 9.89906 28.7388 9.38916 30.1818 9.38916C31.54 9.38916 32.8981 9.89906 33.9168 10.9188L32.8982 12.0236C31.3702 10.4939 28.9086 10.5789 27.4655 12.1086C25.9376 13.7233 25.9376 16.1878 27.4655 17.8024C28.9934 19.4171 31.54 19.5021 33.0679 17.8874C33.5772 17.3775 33.747 16.6977 33.8319 16.0178H30.2667V14.4881H35.2749C35.3598 14.8281 35.3598 15.253 35.3598 15.6779C35.3598 16.9526 34.8505 18.2274 34.0017 19.0772C33.0679 20.012 31.7098 20.5219 30.3516 20.5219C28.8237 20.4369 27.2958 19.927 26.1922 18.8222ZM62.0986 19.4171C60.8253 18.0574 60.8253 15.7629 62.0986 14.3182C63.3718 12.9584 65.494 12.9584 66.6824 14.3182C67.1068 14.7431 67.3614 15.3379 67.6161 15.9328L62.9474 17.8874C63.2021 18.4823 63.7963 18.9922 64.6451 18.9922C65.4091 18.9922 65.9184 18.7373 66.4277 17.9724L67.701 18.8222C67.5312 18.9922 67.3614 19.1622 67.2766 19.3321C65.8335 20.7768 63.3718 20.7768 62.0986 19.4171ZM70.9266 20.4369V11.0038H73.9825C75.765 11.0038 77.2081 12.2786 77.2081 13.8083C77.2081 15.3379 75.9348 16.6127 74.322 16.6127H72.4545V20.3519H70.9266V20.4369ZM78.0569 20.4369V11.0038H79.5V20.4369H78.0569ZM58.8729 20.2669V9.72909H60.4009V20.2669H58.8729ZM84.7628 17.6325C84.4233 17.3775 83.914 17.2925 83.4047 17.2925C82.3861 17.2925 81.7919 17.8024 81.7919 18.3973C81.7919 18.9922 82.3861 19.3321 82.9803 19.3321C83.8291 19.3321 84.7628 18.6523 84.7628 17.6325ZM41.3018 16.9526C41.3018 15.9328 40.6227 14.8281 39.3494 14.8281C38.0761 14.8281 37.3971 15.9328 37.3971 16.9526C37.3971 17.9724 38.0761 19.0772 39.3494 19.0772C40.5378 19.0772 41.3018 17.9724 41.3018 16.9526ZM48.9414 16.9526C48.9414 15.9328 48.2623 14.8281 46.9891 14.8281C45.7158 14.8281 45.0367 15.9328 45.0367 16.9526C45.0367 17.9724 45.7158 19.0772 46.9891 19.0772C48.2623 19.0772 48.9414 17.9724 48.9414 16.9526ZM56.4962 17.5475C56.4962 17.4625 56.4962 17.3775 56.5811 17.2925C56.5811 17.2076 56.5811 17.0376 56.5811 16.9526C56.5811 16.8676 56.5811 16.6977 56.5811 16.6127V16.5277C56.5811 16.4427 56.4962 16.2728 56.4962 16.1878C56.2415 15.3379 55.4775 14.7431 54.7136 14.7431C53.695 14.7431 52.8461 15.7629 52.8461 16.8676C52.8461 18.0574 53.695 18.9922 54.7985 18.9922C55.4775 19.0772 56.1566 18.4823 56.4962 17.5475ZM62.6928 16.7827L65.8335 15.4229C65.494 14.828 64.9847 14.6581 64.5602 14.6581C63.287 14.7431 62.523 16.1028 62.6928 16.7827ZM75.6802 13.8932C75.6802 13.0434 75.0011 12.4485 74.0674 12.4485H72.3697V15.4229H74.1522C75.0011 15.4229 75.6802 14.7431 75.6802 13.8932Z" fill="#E6E7EB"/>
<path d="M25.0044 2.67543C25.0044 1.14575 26.1079 0.210938 27.4661 0.210938C28.3998 0.210938 28.994 0.63585 29.4184 1.23073L28.7393 1.65564C28.4847 1.31571 28.0603 1.06076 27.4661 1.06076C26.5323 1.06076 25.8532 1.74063 25.8532 2.76042C25.8532 3.78021 26.5323 4.46007 27.4661 4.46007C27.9754 4.46007 28.3998 4.20512 28.5696 4.03516V3.27031H27.2114V2.50547H29.5033V4.2901C29.0789 4.8 28.3998 5.13993 27.5509 5.13993C26.1079 5.13993 25.0044 4.12014 25.0044 2.67543Z" fill="#E6E7EB"/>
<path d="M30.5216 5.05493V0.295898H33.7472V1.06074H31.2856V2.2505H33.6624V3.01534H31.2856V4.37507H33.7472V5.13991L30.5216 5.05493Z" fill="#E6E7EB"/>
<path d="M36.1236 5.05493V1.06074H34.6805V0.295898H38.4155V1.06074H36.9724V5.05493H36.1236Z" fill="#E6E7EB"/>
<path d="M41.3015 5.05493V0.295898H42.1504V5.05493H41.3015Z" fill="#E6E7EB"/>
<path d="M44.4421 5.05493V1.06074H42.999V0.295898H46.734V1.06074H45.2909V5.05493H44.4421Z" fill="#E6E7EB"/>
<path d="M49.4507 2.67543C49.4507 1.23073 50.4693 0.210938 51.9124 0.210938C53.3554 0.210938 54.374 1.23073 54.374 2.67543C54.374 4.12014 53.3554 5.13993 51.9124 5.13993C50.4693 5.13993 49.4507 4.03516 49.4507 2.67543ZM53.4403 2.67543C53.4403 1.65564 52.8461 0.975781 51.8275 0.975781C50.8937 0.975781 50.2147 1.74063 50.2147 2.67543C50.2147 3.69523 50.8088 4.37509 51.8275 4.37509C52.8461 4.37509 53.4403 3.61024 53.4403 2.67543Z" fill="#E6E7EB"/>
<path d="M58.6178 5.05493L56.1561 1.65562V5.05493H55.3073V0.295898H56.1561L58.6178 3.61022V0.295898H59.4666V5.05493H58.6178Z" fill="#E6E7EB"/>
<defs>
<linearGradient id="paint0_linear_2001_3794" x1="5.79197" y1="0.2131" x2="10.5543" y2="19.7489" gradientUnits="userSpaceOnUse">
<stop stop-color="#006884"/>
<stop offset="1" stop-color="#8AD1D0"/>
</linearGradient>
<linearGradient id="paint1_linear_2001_3794" x1="-0.0028696" y1="2.9922" x2="12.9539" y2="9.98867" gradientUnits="userSpaceOnUse">
<stop stop-color="#24BBB6"/>
<stop offset="1" stop-color="#DBE692"/>
</linearGradient>
<linearGradient id="paint2_linear_2001_3794" x1="14.8976" y1="14.6994" x2="14.8976" y2="7.94466" gradientUnits="userSpaceOnUse">
<stop stop-color="#FCC072"/>
<stop offset="1" stop-color="#F58A5B"/>
</linearGradient>
<linearGradient id="paint3_linear_2001_3794" x1="2.50507" y1="22.8996" x2="12.7471" y2="12.4881" gradientUnits="userSpaceOnUse">
<stop stop-color="#712B8F"/>
<stop offset="1" stop-color="#EA1D27"/>
</linearGradient>
</defs>
</svg>
