<svg width="32" height="32" viewBox="0 0 32 32" fill="none" xmlns="http://www.w3.org/2000/svg">
<mask id="mask0_6_501" style="mask-type:alpha" maskUnits="userSpaceOnUse" x="0" y="0" width="32" height="32">
<circle cx="16" cy="16" r="15.5" fill="#D9D9D9" stroke="#F9F9FB"/>
</mask>
<g mask="url(#mask0_6_501)">
<path d="M16.0052 0C9.32537 0 7.37177 0.00689289 6.99203 0.0384033C5.62121 0.152382 4.7682 0.368277 3.8389 0.831086C3.12272 1.18681 2.55791 1.59915 2.00047 2.17717C0.985278 3.23129 0.370009 4.52814 0.147282 6.06968C0.0389944 6.81805 0.00749261 6.97068 0.00109381 10.7933C-0.00136726 12.0675 0.00109381 13.7444 0.00109381 15.9937C0.00109381 22.67 0.00847704 24.6221 0.040471 25.0013C0.151219 26.3355 0.360411 27.175 0.803404 28.0932C1.65001 29.8509 3.26694 31.1704 5.17181 31.6627C5.83138 31.8326 6.55986 31.9262 7.49507 31.9705C7.8913 31.9877 11.9299 32 15.971 32C20.0121 32 24.0532 31.9951 24.4396 31.9754C25.5224 31.9244 26.1513 31.84 26.8465 31.6603C28.7637 31.1655 30.3511 29.8657 31.2149 28.0834C31.6493 27.1873 31.8696 26.3158 31.9692 25.0512C31.9909 24.7755 32 20.3796 32 15.9895C32 11.5988 31.9902 7.21095 31.9685 6.93523C31.8676 5.6502 31.6473 4.78613 31.1989 3.87282C30.831 3.12519 30.4224 2.56686 29.8293 1.99598C28.7708 0.984699 27.4763 0.369262 25.9337 0.14672C25.1863 0.0386494 25.0374 0.00664672 21.2129 0H16.0052Z" fill="url(#paint0_radial_6_501)"/>
<path d="M16.0052 0C9.32537 0 7.37177 0.00689289 6.99203 0.0384033C5.62121 0.152382 4.7682 0.368277 3.8389 0.831086C3.12272 1.18681 2.55791 1.59915 2.00047 2.17717C0.985278 3.23129 0.370009 4.52814 0.147282 6.06968C0.0389944 6.81805 0.00749261 6.97068 0.00109381 10.7933C-0.00136726 12.0675 0.00109381 13.7444 0.00109381 15.9937C0.00109381 22.67 0.00847704 24.6221 0.040471 25.0013C0.151219 26.3355 0.360411 27.175 0.803404 28.0932C1.65001 29.8509 3.26694 31.1704 5.17181 31.6627C5.83138 31.8326 6.55986 31.9262 7.49507 31.9705C7.8913 31.9877 11.9299 32 15.971 32C20.0121 32 24.0532 31.9951 24.4396 31.9754C25.5224 31.9244 26.1513 31.84 26.8465 31.6603C28.7637 31.1655 30.3511 29.8657 31.2149 28.0834C31.6493 27.1873 31.8696 26.3158 31.9692 25.0512C31.9909 24.7755 32 20.3796 32 15.9895C32 11.5988 31.9902 7.21095 31.9685 6.93523C31.8676 5.6502 31.6473 4.78613 31.1989 3.87282C30.831 3.12519 30.4224 2.56686 29.8293 1.99598C28.7708 0.984699 27.4763 0.369262 25.9337 0.14672C25.1863 0.0386494 25.0374 0.00664672 21.2129 0H16.0052Z" fill="url(#paint1_radial_6_501)"/>
<path d="M15.9979 4.18485C12.7896 4.18485 12.387 4.19888 11.1269 4.25624C9.86929 4.31385 9.01087 4.513 8.25974 4.80521C7.48278 5.10702 6.82371 5.51075 6.16709 6.16779C5.50998 6.82458 5.10637 7.48384 4.80366 8.26076C4.51079 9.01234 4.31144 9.87124 4.25484 11.1287C4.19848 12.3891 4.18371 12.7921 4.18371 16.0012C4.18371 19.2104 4.19799 19.6119 4.25508 20.8723C4.31292 22.1302 4.51202 22.9889 4.8039 23.7402C5.10588 24.5174 5.50949 25.1767 6.16635 25.8335C6.82272 26.4907 7.4818 26.8955 8.25827 27.1973C9.00988 27.4895 9.86855 27.6886 11.1259 27.7462C12.386 27.8036 12.7884 27.8176 15.9964 27.8176C19.2049 27.8176 19.6063 27.8036 20.8664 27.7462C22.124 27.6886 22.9834 27.4895 23.735 27.1973C24.5117 26.8955 25.1698 26.4907 25.8262 25.8335C26.4833 25.1767 26.8869 24.5174 27.1896 23.7405C27.48 22.9889 27.6794 22.13 27.7384 20.8725C27.795 19.6121 27.8098 19.2104 27.8098 16.0012C27.8098 12.7921 27.795 12.3894 27.7384 11.1289C27.6794 9.87099 27.48 9.01233 27.1896 8.26101C26.8869 7.48384 26.4833 6.82458 25.8262 6.16779C25.1691 5.5105 24.512 5.10677 23.7343 4.80521C22.9812 4.513 22.1222 4.31385 20.8646 4.25624C19.6046 4.19888 19.2034 4.18485 15.9942 4.18485H15.9979ZM14.9381 6.31426C15.2526 6.31377 15.6036 6.31426 15.9979 6.31426C19.152 6.31426 19.5258 6.32558 20.7714 6.38221C21.9231 6.43489 22.5483 6.6274 22.9647 6.78913C23.516 7.0033 23.909 7.25933 24.3222 7.6729C24.7357 8.08647 24.9916 8.48035 25.2062 9.03178C25.3679 9.44782 25.5606 10.0731 25.613 11.2252C25.6696 12.4708 25.6819 12.845 25.6819 15.9985C25.6819 19.152 25.6696 19.5262 25.613 20.7719C25.5604 21.924 25.3679 22.5492 25.2062 22.9653C24.9921 23.5167 24.7357 23.9094 24.3222 24.3227C23.9087 24.7363 23.5162 24.9923 22.9647 25.2064C22.5487 25.3689 21.9231 25.5609 20.7714 25.6136C19.5261 25.6702 19.152 25.6825 15.9979 25.6825C12.8435 25.6825 12.4697 25.6702 11.2244 25.6136C10.0726 25.5604 9.44746 25.3679 9.0308 25.2062C8.47952 24.992 8.08575 24.736 7.67229 24.3224C7.25882 23.9089 7.00287 23.516 6.78827 22.9643C6.62658 22.5483 6.43387 21.923 6.38145 20.7709C6.32485 19.5252 6.31353 19.151 6.31353 15.9956C6.31353 12.8401 6.32485 12.4679 6.38145 11.2222C6.43412 10.0701 6.62658 9.44487 6.78827 9.02834C7.00238 8.47691 7.25882 8.08303 7.67229 7.66945C8.08575 7.25588 8.47952 6.99986 9.0308 6.78519C9.44721 6.62272 10.0726 6.4307 11.2244 6.37777C12.3141 6.32854 12.7364 6.31377 14.9381 6.31131V6.31426ZM22.3036 8.27627C21.521 8.27627 20.886 8.91066 20.886 9.69375C20.886 10.4766 21.521 11.1117 22.3036 11.1117C23.0862 11.1117 23.7212 10.4766 23.7212 9.69375C23.7212 8.91091 23.0862 8.27627 22.3036 8.27627ZM15.9979 9.93303C12.6476 9.93303 9.93131 12.6501 9.93131 16.0012C9.93131 19.3524 12.6476 22.0682 15.9979 22.0682C19.3481 22.0682 22.0634 19.3524 22.0634 16.0012C22.0634 12.6501 19.3481 9.93303 15.9979 9.93303ZM15.9979 12.0624C18.1725 12.0624 19.9356 13.8258 19.9356 16.0012C19.9356 18.1764 18.1725 19.94 15.9979 19.94C13.823 19.94 12.0601 18.1764 12.0601 16.0012C12.0601 13.8258 13.823 12.0624 15.9979 12.0624Z" fill="white"/>
</g>
<defs>
<radialGradient id="paint0_radial_6_501" cx="0" cy="0" r="1" gradientUnits="userSpaceOnUse" gradientTransform="translate(8.50004 34.4647) rotate(-90) scale(31.7144 29.4969)">
<stop stop-color="#FFDD55"/>
<stop offset="0.1" stop-color="#FFDD55"/>
<stop offset="0.5" stop-color="#FF543E"/>
<stop offset="1" stop-color="#C837AB"/>
</radialGradient>
<radialGradient id="paint1_radial_6_501" cx="0" cy="0" r="1" gradientUnits="userSpaceOnUse" gradientTransform="translate(-5.36017 2.30523) rotate(78.6806) scale(14.1765 58.4359)">
<stop stop-color="#3771C8"/>
<stop offset="0.128" stop-color="#3771C8"/>
<stop offset="1" stop-color="#6600FF" stop-opacity="0"/>
</radialGradient>
</defs>
</svg>
