<svg width="13" height="12" viewBox="0 0 13 12" fill="none" xmlns="http://www.w3.org/2000/svg">
<rect x="0.5" width="12" height="12" rx="6" fill="#111218"/>
<path d="M9.26562 4.03711L7.31055 6.375L9.26562 8.72656C9.41602 8.91797 9.40234 9.19141 9.21094 9.3418C9.01953 9.49219 8.74609 9.47852 8.5957 9.28711L6.75 7.05859L4.89062 9.28711C4.74023 9.47852 4.4668 9.49219 4.27539 9.3418C4.08398 9.19141 4.07031 8.91797 4.2207 8.72656L6.17578 6.375L4.2207 4.03711C4.07031 3.8457 4.08398 3.57227 4.27539 3.42188C4.4668 3.27148 4.74023 3.28516 4.89062 3.47656L6.75 5.69141L8.5957 3.47656C8.74609 3.28516 9.01953 3.27148 9.21094 3.42188C9.40234 3.57227 9.41602 3.8457 9.26562 4.03711Z" fill="white"/>
</svg>
