<svg width="22" height="23" viewBox="0 0 22 23" fill="none" xmlns="http://www.w3.org/2000/svg">
<path d="M8.547 3.06296L9.35825 4.44394C10.0904 5.6902 9.7965 7.32508 8.64337 8.42053C8.64337 8.42053 7.24485 9.74934 9.78062 12.1584C12.3156 14.5667 13.7152 13.2388 13.7152 13.2388C14.8684 12.1433 16.5892 11.8642 17.9011 12.5597L19.3547 13.3304C21.3357 14.3806 21.5696 17.0197 19.8285 18.6739C18.7822 19.6678 17.5005 20.4413 16.0836 20.4922C13.6985 20.5782 9.64787 20.0047 5.58462 16.1446C1.52141 12.2845 0.917765 8.43647 1.00819 6.17056C1.0619 4.82453 1.876 3.6069 2.92226 2.61296C4.66345 0.958831 7.44146 1.18108 8.547 3.06296Z" fill="#F4991A"/>
</svg>
