<svg width="12" height="12" viewBox="0 0 12 12" fill="none" xmlns="http://www.w3.org/2000/svg">
<g clip-path="url(#clip0_677_22820)">
<path d="M11.202 6.15547C11.1537 6.05668 11.1537 5.94339 11.202 5.84462L11.6495 4.92904C11.8987 4.41925 11.7013 3.81164 11.2 3.5457L10.2998 3.06804C10.2027 3.01653 10.1361 2.92484 10.1171 2.81658L9.94103 1.81278C9.84299 1.2539 9.32601 0.878336 8.76429 0.957812L7.75524 1.10055C7.64633 1.11592 7.53863 1.08091 7.45962 1.00448L6.72718 0.295917C6.31935 -0.0986274 5.68045 -0.0986508 5.27264 0.295917L4.54017 1.00455C4.46114 1.081 4.35345 1.11594 4.24456 1.10062L3.23551 0.957883C2.6736 0.87836 2.1568 1.25397 2.05877 1.81285L1.8827 2.81661C1.8637 2.92489 1.79711 3.01655 1.70001 3.06809L0.799782 3.54574C0.298551 3.81166 0.101114 4.41933 0.3503 4.92911L0.797837 5.84467C0.846118 5.94346 0.846118 6.05675 0.797837 6.15552L0.350277 7.07108C0.101091 7.58086 0.298527 8.18848 0.799758 8.45442L1.69999 8.93207C1.79711 8.98359 1.8637 9.07528 1.8827 9.18353L2.05877 10.1873C2.14802 10.6961 2.58428 11.0529 3.08567 11.0529C3.13506 11.0529 3.18517 11.0494 3.23553 11.0423L4.24458 10.8995C4.3534 10.8841 4.46117 10.9192 4.5402 10.9956L5.27264 11.7042C5.47659 11.9015 5.7382 12.0001 5.9999 12.0001C6.26153 12.0001 6.5233 11.9014 6.72716 11.7042L7.45962 10.9956C7.53865 10.9192 7.64637 10.8843 7.75524 10.8995L8.76429 11.0423C9.32627 11.1218 9.84299 10.7462 9.94103 10.1873L10.1171 9.18356C10.1361 9.07528 10.2027 8.98361 10.2998 8.93207L11.2 8.45442C11.7013 8.1885 11.8987 7.58084 11.6495 7.07105L11.202 6.15547ZM4.61566 2.88556C5.31532 2.88556 5.88454 3.45478 5.88454 4.15444C5.88454 4.85409 5.31532 5.42331 4.61566 5.42331C3.91601 5.42331 3.34679 4.85409 3.34679 4.15444C3.34679 3.45478 3.91601 2.88556 4.61566 2.88556ZM3.96073 8.52858C3.89316 8.59615 3.80459 8.62994 3.71605 8.62994C3.6275 8.62994 3.53891 8.59617 3.47136 8.52858C3.33622 8.39344 3.33622 8.17432 3.47136 8.03918L8.03904 3.47149C8.17416 3.33635 8.3933 3.33635 8.52844 3.47149C8.66358 3.60663 8.66358 3.82575 8.52844 3.96089L3.96073 8.52858ZM7.38408 9.11456C6.68443 9.11456 6.11521 8.54533 6.11521 7.84568C6.11521 7.14603 6.68443 6.57681 7.38408 6.57681C8.08374 6.57681 8.65296 7.14603 8.65296 7.84568C8.65296 8.54533 8.08374 9.11456 7.38408 9.11456Z" fill="#F41A1A"/>
<path d="M7.38439 7.26855C7.06637 7.26855 6.80762 7.52728 6.80762 7.8453C6.80762 8.16332 7.06634 8.42205 7.38439 8.42205C7.70241 8.42205 7.96113 8.16332 7.96113 7.8453C7.96113 7.52728 7.70241 7.26855 7.38439 7.26855Z" fill="#F41A1A"/>
<path d="M4.61581 3.57715C4.29779 3.57715 4.03906 3.83587 4.03906 4.15389C4.03906 4.47192 4.29779 4.73066 4.61581 4.73066C4.93383 4.73066 5.19258 4.47194 5.19258 4.15389C5.19256 3.8359 4.93383 3.57715 4.61581 3.57715Z" fill="#F41A1A"/>
</g>
<defs>
<clipPath id="clip0_677_22820">
<rect width="12" height="12" fill="white"/>
</clipPath>
</defs>
</svg>
