<svg width="147" height="24" viewBox="0 0 147 24" fill="none" xmlns="http://www.w3.org/2000/svg">
<path d="M8.5 3.68091C13.1816 3.68091 17 7.49927 17 12.1809C17 16.8958 13.1816 20.6809 8.5 20.6809C3.78516 20.6809 0 16.8958 0 12.1809C0 7.49927 3.78516 3.68091 8.5 3.68091ZM8.5 19.0872C12.2852 19.0872 15.4062 15.9993 15.4062 12.1809C15.4062 8.39575 12.2852 5.27466 8.5 5.27466C4.68164 5.27466 1.59375 8.39575 1.59375 12.1809C1.59375 15.9993 4.68164 19.0872 8.5 19.0872ZM8.5 14.8372C9.06445 14.8372 9.5625 15.302 9.5625 15.8997C9.5625 16.4973 9.06445 16.9622 8.5 16.9622C7.86914 16.9622 7.4375 16.4973 7.4375 15.8997C7.4375 15.302 7.90234 14.8372 8.5 14.8372ZM9.5957 7.93091C10.9238 7.93091 11.9531 8.96021 11.9199 10.2551C11.9199 11.052 11.4883 11.8157 10.791 12.2473L9.29688 13.177V13.2434C9.29688 13.675 8.93164 14.0403 8.5 14.0403C8.06836 14.0403 7.70312 13.675 7.70312 13.2434V12.7122C7.70312 12.4465 7.83594 12.1809 8.10156 12.0149L9.99414 10.886C10.2266 10.7532 10.3594 10.5208 10.3594 10.2551C10.3594 9.85669 9.99414 9.52466 9.5625 9.52466H7.86914C7.4707 9.52466 7.17188 9.85669 7.17188 10.2551C7.17188 10.6868 6.80664 11.052 6.375 11.052C5.94336 11.052 5.57812 10.6868 5.57812 10.2551C5.57812 8.96021 6.60742 7.93091 7.90234 7.93091H9.5957Z" fill="#F4991A"/>
<path d="M24.664 6.26091V11.0309C24.652 11.6309 24.784 12.0689 25.06 12.3449C25.336 12.6089 25.786 12.7409 26.41 12.7409C26.866 12.7409 27.292 12.7109 27.688 12.6509C28.084 12.5789 28.492 12.4649 28.912 12.3089C29.344 12.1409 29.824 11.9249 30.352 11.6609L30.46 12.7949C29.932 13.1189 29.392 13.3829 28.84 13.5869C28.3 13.7909 27.772 13.9409 27.256 14.0369C26.752 14.1209 26.284 14.1629 25.852 14.1629C24.904 14.1629 24.202 13.9349 23.746 13.4789C23.302 13.0109 23.08 12.3029 23.08 11.3549V6.26091H24.664ZM31.684 6.26091V18.6809H30.118V6.26091H31.684ZM39.37 9.69891C40.018 9.69891 40.564 9.78891 41.008 9.96891C41.452 10.1369 41.788 10.4249 42.016 10.8329C42.244 11.2409 42.358 11.7989 42.358 12.5069V18.6809H41.152L40.918 16.7729L40.828 16.5749V12.5069C40.816 11.9669 40.69 11.5829 40.45 11.3549C40.21 11.1149 39.742 10.9949 39.046 10.9949C38.578 10.9949 37.996 11.0189 37.3 11.0669C36.616 11.1149 35.938 11.1689 35.266 11.2289L35.122 10.0949C35.53 10.0229 35.98 9.95691 36.472 9.89691C36.964 9.83691 37.462 9.78891 37.966 9.75291C38.47 9.71691 38.938 9.69891 39.37 9.69891ZM41.638 13.2809L41.62 14.4329L37.444 14.4509C37.024 14.4629 36.724 14.5769 36.544 14.7929C36.376 14.9969 36.292 15.2849 36.292 15.6569V16.2149C36.292 16.6709 36.4 17.0069 36.616 17.2229C36.844 17.4269 37.192 17.5289 37.66 17.5289C37.996 17.5289 38.374 17.4689 38.794 17.3489C39.226 17.2169 39.658 17.0189 40.09 16.7549C40.522 16.4909 40.918 16.1549 41.278 15.7469V16.8809C41.158 17.0489 40.972 17.2469 40.72 17.4749C40.48 17.6909 40.186 17.9069 39.838 18.1229C39.502 18.3269 39.124 18.5009 38.704 18.6449C38.284 18.7769 37.834 18.8429 37.354 18.8429C36.838 18.8429 36.382 18.7529 35.986 18.5729C35.59 18.3809 35.284 18.1049 35.068 17.7449C34.852 17.3729 34.744 16.9229 34.744 16.3949V15.4409C34.744 14.7569 34.954 14.2289 35.374 13.8569C35.806 13.4729 36.406 13.2809 37.174 13.2809H41.638ZM49.4276 9.69891C49.6916 9.69891 49.9856 9.71091 50.3096 9.73491C50.6456 9.75891 50.9816 9.80091 51.3176 9.86091C51.6536 9.92091 51.9656 10.0049 52.2536 10.1129L52.0556 11.1029C51.6596 11.0669 51.2396 11.0429 50.7956 11.0309C50.3636 11.0069 49.9916 10.9949 49.6796 10.9949C48.9956 10.9949 48.4436 11.0909 48.0236 11.2829C47.6156 11.4749 47.3216 11.8109 47.1416 12.2909C46.9616 12.7709 46.8716 13.4369 46.8716 14.2889C46.8716 15.1409 46.9616 15.8129 47.1416 16.3049C47.3216 16.7849 47.6156 17.1209 48.0236 17.3129C48.4436 17.5049 48.9956 17.6009 49.6796 17.6009C49.8596 17.6009 50.0936 17.5949 50.3816 17.5829C50.6816 17.5709 50.9936 17.5529 51.3176 17.5289C51.6536 17.5049 51.9716 17.4689 52.2716 17.4209L52.4156 18.4469C51.9836 18.6029 51.5036 18.7169 50.9756 18.7889C50.4596 18.8609 49.9436 18.8969 49.4276 18.8969C48.4196 18.8969 47.6096 18.7469 46.9976 18.4469C46.3856 18.1469 45.9416 17.6609 45.6656 16.9889C45.4016 16.3169 45.2696 15.4169 45.2696 14.2889C45.2696 13.1609 45.4016 12.2609 45.6656 11.5889C45.9416 10.9169 46.3856 10.4369 46.9976 10.1489C47.6096 9.84891 48.4196 9.69891 49.4276 9.69891ZM58.845 9.91491V18.6809H57.315V9.91491H58.845ZM62.013 9.91491V11.1749H54.129V9.91491H62.013ZM66.0492 9.91491V18.6809H64.5192V9.91491H66.0492ZM65.6532 6.18891C65.9532 6.18891 66.1032 6.34491 66.1032 6.65691V7.68291C66.1032 7.99491 65.9532 8.15091 65.6532 8.15091H64.9332C64.6212 8.15091 64.4652 7.99491 64.4652 7.68291V6.65691C64.4652 6.34491 64.6212 6.18891 64.9332 6.18891H65.6532ZM81.5586 9.91491V18.6809H80.0466V9.91491H81.5586ZM75.5466 9.91491V18.6809H74.0526V9.91491H75.5466ZM80.2086 9.91491L80.1906 11.1569H75.4566V9.91491H80.2086ZM92.6501 9.91491V18.6809H91.2641V12.8669C91.2641 12.6749 91.2701 12.4889 91.2821 12.3089C91.2941 12.1169 91.3061 11.9129 91.3181 11.6969H91.2821C91.2101 11.8649 91.1141 12.0449 90.9941 12.2369C90.8861 12.4169 90.7781 12.5789 90.6701 12.7229L86.2061 18.6809H84.9461V9.91491H86.3321V15.7289C86.3321 15.9209 86.3261 16.1129 86.3141 16.3049C86.3141 16.4849 86.3021 16.6829 86.2781 16.8989H86.3141C86.4101 16.7189 86.5121 16.5389 86.6201 16.3589C86.7281 16.1789 86.8361 16.0229 86.9441 15.8909L91.4081 9.91491H92.6501ZM99.8126 9.91491V18.6809H98.2826V9.91491H99.8126ZM102.981 9.91491V11.1749H95.0966V9.91491H102.981ZM109.573 9.69891C110.221 9.69891 110.767 9.78891 111.211 9.96891C111.655 10.1369 111.991 10.4249 112.219 10.8329C112.447 11.2409 112.561 11.7989 112.561 12.5069V18.6809H111.355L111.121 16.7729L111.031 16.5749V12.5069C111.019 11.9669 110.893 11.5829 110.653 11.3549C110.413 11.1149 109.945 10.9949 109.249 10.9949C108.781 10.9949 108.199 11.0189 107.503 11.0669C106.819 11.1149 106.141 11.1689 105.469 11.2289L105.325 10.0949C105.733 10.0229 106.183 9.95691 106.675 9.89691C107.167 9.83691 107.665 9.78891 108.169 9.75291C108.673 9.71691 109.141 9.69891 109.573 9.69891ZM111.841 13.2809L111.823 14.4329L107.647 14.4509C107.227 14.4629 106.927 14.5769 106.747 14.7929C106.579 14.9969 106.495 15.2849 106.495 15.6569V16.2149C106.495 16.6709 106.603 17.0069 106.819 17.2229C107.047 17.4269 107.395 17.5289 107.863 17.5289C108.199 17.5289 108.577 17.4689 108.997 17.3489C109.429 17.2169 109.861 17.0189 110.293 16.7549C110.725 16.4909 111.121 16.1549 111.481 15.7469V16.8809C111.361 17.0489 111.175 17.2469 110.923 17.4749C110.683 17.6909 110.389 17.9069 110.041 18.1229C109.705 18.3269 109.327 18.5009 108.907 18.6449C108.487 18.7769 108.037 18.8429 107.557 18.8429C107.041 18.8429 106.585 18.7529 106.189 18.5729C105.793 18.3809 105.487 18.1049 105.271 17.7449C105.055 17.3729 104.947 16.9229 104.947 16.3949V15.4409C104.947 14.7569 105.157 14.2289 105.577 13.8569C106.009 13.4729 106.609 13.2809 107.377 13.2809H111.841ZM117.398 9.91491V18.6809H115.886V9.91491H117.398ZM122.168 13.4429V14.6129H117.29V13.4429H122.168ZM123.518 9.91491V18.6809H122.006V9.91491H123.518ZM128.415 9.91491V18.6809H126.903V9.91491H128.415ZM133.185 13.4429V14.6129H128.307V13.4429H133.185ZM134.535 9.91491V18.6809H133.023V9.91491H134.535ZM140.98 9.82491C141.64 9.82491 142.186 9.83091 142.618 9.84291C143.05 9.84291 143.434 9.85491 143.77 9.87891C144.118 9.89091 144.478 9.91491 144.85 9.95091L144.634 11.1209C144.502 11.0969 144.106 11.0789 143.446 11.0669C142.798 11.0549 141.988 11.0489 141.016 11.0489C140.284 11.0489 139.798 11.1749 139.558 11.4269C139.33 11.6669 139.216 12.0689 139.216 12.6329C139.216 13.2209 139.336 13.6469 139.576 13.9109C139.828 14.1629 140.326 14.2889 141.07 14.2889H144.652L144.688 15.4229C144.556 15.4229 144.334 15.4289 144.022 15.4409C143.71 15.4409 143.302 15.4409 142.798 15.4409C142.294 15.4409 141.694 15.4409 140.998 15.4409C140.578 15.4409 140.236 15.5189 139.972 15.6749C139.72 15.8309 139.552 16.0529 139.468 16.3409L138.802 18.6809H137.218L138.01 16.0529C138.094 15.8009 138.226 15.5969 138.406 15.4409C138.598 15.2849 138.808 15.1709 139.036 15.0989C139.276 15.0149 139.504 14.9609 139.72 14.9369V14.8649C139.24 14.7929 138.85 14.6549 138.55 14.4509C138.262 14.2469 138.052 13.9769 137.92 13.6409C137.788 13.2929 137.722 12.8849 137.722 12.4169C137.722 12.0089 137.77 11.6429 137.866 11.3189C137.974 10.9949 138.154 10.7249 138.406 10.5089C138.658 10.2809 138.994 10.1129 139.414 10.0049C139.834 9.88491 140.356 9.82491 140.98 9.82491ZM144.85 9.95091V18.6809H143.356V9.95091H144.85Z" fill="#F4991A"/>
</svg>
