<svg width="17" height="18" viewBox="0 0 17 18" fill="none" xmlns="http://www.w3.org/2000/svg">
<path d="M8.5 0.5C13.1816 0.5 17 4.31836 17 9C17 13.7148 13.1816 17.5 8.5 17.5C3.78516 17.5 0 13.7148 0 9C0 4.31836 3.78516 0.5 8.5 0.5ZM8.5 15.9062C12.2852 15.9062 15.4062 12.8184 15.4062 9C15.4062 5.21484 12.2852 2.09375 8.5 2.09375C4.68164 2.09375 1.59375 5.21484 1.59375 9C1.59375 12.8184 4.68164 15.9062 8.5 15.9062ZM8.5 11.6562C9.06445 11.6562 9.5625 12.1211 9.5625 12.7188C9.5625 13.3164 9.06445 13.7812 8.5 13.7812C7.86914 13.7812 7.4375 13.3164 7.4375 12.7188C7.4375 12.1211 7.90234 11.6562 8.5 11.6562ZM9.5957 4.75C10.9238 4.75 11.9531 5.7793 11.9199 7.07422C11.9199 7.87109 11.4883 8.63477 10.791 9.06641L9.29688 9.99609V10.0625C9.29688 10.4941 8.93164 10.8594 8.5 10.8594C8.06836 10.8594 7.70312 10.4941 7.70312 10.0625V9.53125C7.70312 9.26562 7.83594 9 8.10156 8.83398L9.99414 7.70508C10.2266 7.57227 10.3594 7.33984 10.3594 7.07422C10.3594 6.67578 9.99414 6.34375 9.5625 6.34375H7.86914C7.4707 6.34375 7.17188 6.67578 7.17188 7.07422C7.17188 7.50586 6.80664 7.87109 6.375 7.87109C5.94336 7.87109 5.57812 7.50586 5.57812 7.07422C5.57812 5.7793 6.60742 4.75 7.90234 4.75H9.5957Z" fill="#F4991A"/>
</svg>
