<svg width="13" height="13" viewBox="0 0 13 13" fill="none" xmlns="http://www.w3.org/2000/svg">
<path d="M6.5 0.5C9.80469 0.5 12.5 3.19531 12.5 6.5C12.5 9.82812 9.80469 12.5 6.5 12.5C3.17188 12.5 0.5 9.82812 0.5 6.5C0.5 3.19531 3.17188 0.5 6.5 0.5ZM6.5 11.375C9.17188 11.375 11.375 9.19531 11.375 6.5C11.375 3.82812 9.17188 1.625 6.5 1.625C3.80469 1.625 1.625 3.82812 1.625 6.5C1.625 9.19531 3.80469 11.375 6.5 11.375ZM6.5 8.375C6.89844 8.375 7.25 8.70312 7.25 9.125C7.25 9.54688 6.89844 9.875 6.5 9.875C6.05469 9.875 5.75 9.54688 5.75 9.125C5.75 8.70312 6.07812 8.375 6.5 8.375ZM7.27344 3.5C8.21094 3.5 8.9375 4.22656 8.91406 5.14062C8.91406 5.70312 8.60938 6.24219 8.11719 6.54688L7.0625 7.20312V7.25C7.0625 7.55469 6.80469 7.8125 6.5 7.8125C6.19531 7.8125 5.9375 7.55469 5.9375 7.25V6.875C5.9375 6.6875 6.03125 6.5 6.21875 6.38281L7.55469 5.58594C7.71875 5.49219 7.8125 5.32812 7.8125 5.14062C7.8125 4.85938 7.55469 4.625 7.25 4.625H6.05469C5.77344 4.625 5.5625 4.85938 5.5625 5.14062C5.5625 5.44531 5.30469 5.70312 5 5.70312C4.69531 5.70312 4.4375 5.44531 4.4375 5.14062C4.4375 4.22656 5.16406 3.5 6.07812 3.5H7.27344Z" fill="#585A61"/>
</svg>
