<svg width="14" height="15" viewBox="0 0 14 15" fill="none" xmlns="http://www.w3.org/2000/svg">
<path d="M13.7812 3.3999C13.7812 5.03027 12.4585 6.35303 10.8281 6.35303C9.93604 6.35303 9.13623 5.98389 8.58252 5.33789L5.81396 6.72217C5.87549 6.9375 5.90625 7.15283 5.90625 7.3374C5.90625 7.55273 5.87549 7.76807 5.81396 7.9834L8.58252 9.33691C9.13623 8.72168 9.93604 8.32178 10.8281 8.32178C12.4585 8.32178 13.7812 9.64453 13.7812 11.2749C13.7812 12.9053 12.4585 14.228 10.8281 14.228C9.19775 14.228 7.875 12.9053 7.875 11.2749C7.875 11.0903 7.875 10.875 7.93652 10.6597L5.16797 9.27539C4.61426 9.92139 3.81445 10.2905 2.95312 10.2905C1.32275 10.2905 0 8.96777 0 7.3374C0 5.70703 1.32275 4.38428 2.95312 4.38428C3.81445 4.38428 4.61426 4.78418 5.16797 5.39941L7.93652 4.0459C7.875 3.83057 7.875 3.61523 7.875 3.3999C7.875 1.76953 9.19775 0.446777 10.8281 0.446777C12.4585 0.446777 13.7812 1.76953 13.7812 3.3999ZM2.95312 8.81396C3.47607 8.81396 3.9375 8.53711 4.21436 8.07568C4.49121 7.64502 4.49121 7.06055 4.21436 6.59912C3.9375 6.16846 3.47607 5.86084 2.95312 5.86084C2.39941 5.86084 1.93799 6.16846 1.66113 6.59912C1.38428 7.06055 1.38428 7.64502 1.66113 8.07568C1.93799 8.53711 2.39941 8.81396 2.95312 8.81396ZM12.3047 3.3999C12.3047 2.87695 11.9971 2.41553 11.5664 2.13867C11.105 1.86182 10.5205 1.86182 10.0898 2.13867C9.62842 2.41553 9.35156 2.87695 9.35156 3.3999C9.35156 3.95361 9.62842 4.41504 10.0898 4.69189C10.5205 4.96875 11.105 4.96875 11.5664 4.69189C11.9971 4.41504 12.3047 3.95361 12.3047 3.3999ZM10.8281 12.7515C11.3511 12.7515 11.8125 12.4746 12.0894 12.0132C12.3662 11.5825 12.3662 10.998 12.0894 10.5366C11.8125 10.106 11.3511 9.79834 10.8281 9.79834C10.2744 9.79834 9.81299 10.106 9.53613 10.5366C9.25928 10.998 9.25928 11.5825 9.53613 12.0132C9.81299 12.4746 10.2744 12.7515 10.8281 12.7515Z" fill="#F4991A"/>
</svg>
