<svg width="9" height="9" viewBox="0 0 9 9" fill="none" xmlns="http://www.w3.org/2000/svg">
<path d="M8.58984 2.125C8.58984 3.05664 7.83398 3.8125 6.90234 3.8125C6.39258 3.8125 5.93555 3.60156 5.61914 3.23242L4.03711 4.02344C4.07227 4.14648 4.08984 4.26953 4.08984 4.375C4.08984 4.49805 4.07227 4.62109 4.03711 4.74414L5.61914 5.51758C5.93555 5.16602 6.39258 4.9375 6.90234 4.9375C7.83398 4.9375 8.58984 5.69336 8.58984 6.625C8.58984 7.55664 7.83398 8.3125 6.90234 8.3125C5.9707 8.3125 5.21484 7.55664 5.21484 6.625C5.21484 6.51953 5.21484 6.39648 5.25 6.27344L3.66797 5.48242C3.35156 5.85156 2.89453 6.0625 2.40234 6.0625C1.4707 6.0625 0.714844 5.30664 0.714844 4.375C0.714844 3.44336 1.4707 2.6875 2.40234 2.6875C2.89453 2.6875 3.35156 2.91602 3.66797 3.26758L5.25 2.49414C5.21484 2.37109 5.21484 2.24805 5.21484 2.125C5.21484 1.19336 5.9707 0.4375 6.90234 0.4375C7.83398 0.4375 8.58984 1.19336 8.58984 2.125ZM2.40234 5.21875C2.70117 5.21875 2.96484 5.06055 3.12305 4.79688C3.28125 4.55078 3.28125 4.2168 3.12305 3.95312C2.96484 3.70703 2.70117 3.53125 2.40234 3.53125C2.08594 3.53125 1.82227 3.70703 1.66406 3.95312C1.50586 4.2168 1.50586 4.55078 1.66406 4.79688C1.82227 5.06055 2.08594 5.21875 2.40234 5.21875ZM7.74609 2.125C7.74609 1.82617 7.57031 1.5625 7.32422 1.4043C7.06055 1.24609 6.72656 1.24609 6.48047 1.4043C6.2168 1.5625 6.05859 1.82617 6.05859 2.125C6.05859 2.44141 6.2168 2.70508 6.48047 2.86328C6.72656 3.02148 7.06055 3.02148 7.32422 2.86328C7.57031 2.70508 7.74609 2.44141 7.74609 2.125ZM6.90234 7.46875C7.20117 7.46875 7.46484 7.31055 7.62305 7.04688C7.78125 6.80078 7.78125 6.4668 7.62305 6.20312C7.46484 5.95703 7.20117 5.78125 6.90234 5.78125C6.58594 5.78125 6.32227 5.95703 6.16406 6.20312C6.00586 6.4668 6.00586 6.80078 6.16406 7.04688C6.32227 7.31055 6.58594 7.46875 6.90234 7.46875Z" fill="#585A61"/>
</svg>
