<svg width="12" height="12" viewBox="0 0 12 12" fill="none" xmlns="http://www.w3.org/2000/svg">
<g id="mobile-phone-svgrepo-com" clip-path="url(#clip0_396_4870)">
<path id="Vector" d="M8.625 0H3.375C2.75625 0 2.25 0.50625 2.25 1.125V10.875C2.25 11.4937 2.75625 12 3.375 12H8.625C9.24375 12 9.75 11.4937 9.75 10.875V1.125C9.75 0.50625 9.24375 0 8.625 0ZM6 11.25C5.58525 11.25 5.25 10.9148 5.25 10.5C5.25 10.0852 5.58525 9.75 6 9.75C6.41475 9.75 6.75 10.0852 6.75 10.5C6.75 10.9148 6.41475 11.25 6 11.25ZM9 9H3V1.5H9V9Z" fill="#ADAFB8"/>
</g>
<defs>
<clipPath id="clip0_396_4870">
<rect width="12" height="12" fill="white"/>
</clipPath>
</defs>
</svg>
