<svg width="12" height="13" viewBox="0 0 12 13" fill="none" xmlns="http://www.w3.org/2000/svg">
<g clip-path="url(#clip0_396_4436)">
<path d="M8.625 0.5H3.375C2.75625 0.5 2.25 1.00625 2.25 1.625V11.375C2.25 11.9937 2.75625 12.5 3.375 12.5H8.625C9.24375 12.5 9.75 11.9937 9.75 11.375V1.625C9.75 1.00625 9.24375 0.5 8.625 0.5ZM6 11.75C5.58525 11.75 5.25 11.4148 5.25 11C5.25 10.5852 5.58525 10.25 6 10.25C6.41475 10.25 6.75 10.5852 6.75 11C6.75 11.4148 6.41475 11.75 6 11.75ZM9 9.5H3V2H9V9.5Z" fill="#585A61"/>
</g>
<defs>
<clipPath id="clip0_396_4436">
<rect width="12" height="12" fill="white" transform="translate(0 0.5)"/>
</clipPath>
</defs>
</svg>
