<svg width="13" height="13" viewBox="0 0 13 13" fill="none" xmlns="http://www.w3.org/2000/svg">
<g clip-path="url(#clip0_1_159)">
<path d="M6.5 13C10.0899 13 13 10.0899 13 6.5C13 2.91015 10.0899 0 6.5 0C2.91015 0 0 2.91015 0 6.5C0 10.0899 2.91015 13 6.5 13Z" fill="#F0F0F0"/>
<path d="M6.21729 6.49986H12.9999C12.9999 5.91319 12.9217 5.34484 12.776 4.8042H6.21729V6.49986Z" fill="#D80027"/>
<path d="M6.21729 3.10875H12.0459C11.648 2.45946 11.1392 1.88555 10.546 1.41309H6.21729V3.10875Z" fill="#D80027"/>
<path d="M6.50001 13C8.02977 13 9.43582 12.4712 10.5462 11.5869H2.45386C3.56419 12.4712 4.97025 13 6.50001 13Z" fill="#D80027"/>
<path d="M0.953984 9.89146H12.0459C12.3654 9.37022 12.6131 8.80045 12.776 8.1958H0.223877C0.386809 8.80045 0.634545 9.37022 0.953984 9.89146Z" fill="#D80027"/>
<path d="M3.01092 1.01507H3.60326L3.05228 1.41535L3.26275 2.06304L2.71179 1.66276L2.16084 2.06304L2.34264 1.50351C1.85753 1.9076 1.43234 2.38103 1.08195 2.90855H1.27174L0.921019 3.16334C0.866379 3.25449 0.813973 3.34709 0.76375 3.44106L0.931227 3.95652L0.61877 3.7295C0.5411 3.89406 0.470057 4.06232 0.406199 4.23409L0.590713 4.80203H1.27174L0.720764 5.20231L0.931227 5.85L0.380275 5.44972L0.050248 5.68951C0.0172148 5.95504 0 6.2255 0 6.5H6.5C6.5 2.91017 6.5 2.48696 6.5 0C5.21595 0 4.01896 0.37248 3.01092 1.01507ZM3.26275 5.85L2.71179 5.44972L2.16084 5.85L2.37131 5.20231L1.82033 4.80203H2.50136L2.71179 4.15434L2.92223 4.80203H3.60326L3.05228 5.20231L3.26275 5.85ZM3.05228 3.30883L3.26275 3.95652L2.71179 3.55624L2.16084 3.95652L2.37131 3.30883L1.82033 2.90855H2.50136L2.71179 2.26086L2.92223 2.90855H3.60326L3.05228 3.30883ZM5.59427 5.85L5.04331 5.44972L4.49236 5.85L4.70283 5.20231L4.15185 4.80203H4.83288L5.04331 4.15434L5.25375 4.80203H5.93478L5.3838 5.20231L5.59427 5.85ZM5.3838 3.30883L5.59427 3.95652L5.04331 3.55624L4.49236 3.95652L4.70283 3.30883L4.15185 2.90855H4.83288L5.04331 2.26086L5.25375 2.90855H5.93478L5.3838 3.30883ZM5.3838 1.41535L5.59427 2.06304L5.04331 1.66276L4.49236 2.06304L4.70283 1.41535L4.15185 1.01507H4.83288L5.04331 0.367377L5.25375 1.01507H5.93478L5.3838 1.41535Z" fill="#0052B4"/>
</g>
<defs>
<clipPath id="clip0_1_159">
<rect width="13" height="13" fill="white"/>
</clipPath>
</defs>
</svg>
