<svg width="13" height="12" viewBox="0 0 13 12" fill="none" xmlns="http://www.w3.org/2000/svg">
<g id="tablet-material-4-svgrepo-com">
<g id="Group">
<path id="Vector" d="M10.0646 0H2.40346C1.97021 0 1.61865 0.351562 1.61865 0.785156V11.2148C1.61865 11.6484 1.97021 12 2.40343 12H10.0646C10.4982 12 10.8493 11.6484 10.8493 11.2148V0.785156C10.8494 0.351562 10.4982 0 10.0646 0ZM6.32631 11.5074C6.13953 11.5074 5.98792 11.3562 5.98792 11.1687C5.98792 10.9819 6.13953 10.8303 6.32631 10.8303C6.51343 10.8303 6.6647 10.9819 6.6647 11.1687C6.66468 11.3562 6.51343 11.5074 6.32631 11.5074ZM9.92615 10.3385H2.54188V0.922852H9.92617V10.3385H9.92615Z" fill="#ADAFB8"/>
</g>
</g>
</svg>
