<svg width="12" height="13" viewBox="0 0 12 13" fill="none" xmlns="http://www.w3.org/2000/svg">
<g clip-path="url(#clip0_396_4442)">
<path d="M9.83058 0.5H2.16945C1.73621 0.5 1.38464 0.851562 1.38464 1.28516V11.7148C1.38464 12.1484 1.73621 12.5 2.16942 12.5H9.83056C10.2642 12.5 10.6153 12.1484 10.6153 11.7148V1.28516C10.6154 0.851562 10.2642 0.5 9.83058 0.5ZM6.0923 12.0074C5.90553 12.0074 5.75391 11.8562 5.75391 11.6687C5.75391 11.4819 5.90553 11.3303 6.0923 11.3303C6.27942 11.3303 6.43069 11.4819 6.43069 11.6687C6.43067 11.8562 6.27942 12.0074 6.0923 12.0074ZM9.69214 10.8385H2.30787V1.42285H9.69216V10.8385H9.69214Z" fill="#585A61"/>
</g>
<defs>
<clipPath id="clip0_396_4442">
<rect width="12" height="12" fill="white" transform="translate(0 0.5)"/>
</clipPath>
</defs>
</svg>
