<svg width="32" height="32" viewBox="0 0 32 32" fill="none" xmlns="http://www.w3.org/2000/svg">
<circle cx="16" cy="16" r="15.75" fill="#00AAEC" stroke="#F9F9FB" stroke-width="0.5"/>
<path fill-rule="evenodd" clip-rule="evenodd" d="M27.6 10.1309C26.8063 10.4923 25.9518 10.7367 25.0555 10.8459C25.9708 10.2843 26.6732 9.39372 27.0041 8.33283C26.1471 8.85287 25.2 9.2312 24.1883 9.43402C23.3819 8.55124 22.2295 8 20.954 8C18.5084 8 16.5242 10.0347 16.5242 12.5439C16.5242 12.9001 16.5623 13.2459 16.6384 13.5788C12.9553 13.389 9.69065 11.5818 7.50364 8.82947C7.12203 9.50292 6.90396 10.2843 6.90396 11.1164C6.90396 12.6921 7.68621 14.0832 8.87544 14.8984C8.15024 14.8763 7.46561 14.6696 6.86719 14.3315V14.3874C6.86719 16.5898 8.39493 18.4269 10.4235 18.8429C10.052 18.9495 9.66022 19.0028 9.25578 19.0028C8.97052 19.0028 8.6916 18.9755 8.42155 18.9222C8.98574 20.7268 10.6212 22.0412 12.561 22.0763C11.0447 23.2958 9.1328 24.0225 7.05737 24.0225C6.69984 24.0225 6.34612 24.0017 6 23.9601C7.96133 25.2472 10.2916 26 12.793 26C20.9452 26 25.4016 19.0769 25.4016 13.0717C25.4016 12.8741 25.3978 12.6765 25.3902 12.4828C26.2561 11.8418 27.0079 11.0423 27.6 10.1309Z" fill="white"/>
</svg>
