<svg width="12" height="14" viewBox="0 0 12 14" fill="none" xmlns="http://www.w3.org/2000/svg">
<path d="M6 7.125C4.83203 7.125 3.76562 6.51562 3.18164 5.5C2.59766 4.50977 2.59766 3.26562 3.18164 2.25C3.76562 1.25977 4.83203 0.625 6 0.625C7.14258 0.625 8.20898 1.25977 8.79297 2.25C9.37695 3.26562 9.37695 4.50977 8.79297 5.5C8.20898 6.51562 7.14258 7.125 6 7.125ZM4.83203 8.34375H7.14258C9.65625 8.34375 11.6875 10.375 11.6875 12.8887C11.6875 13.2949 11.332 13.625 10.9258 13.625H1.04883C0.642578 13.625 0.3125 13.2949 0.3125 12.8887C0.3125 10.375 2.31836 8.34375 4.83203 8.34375Z" fill="#F4991A"/>
</svg>
