<svg width="32" height="32" viewBox="0 0 32 32" fill="none" xmlns="http://www.w3.org/2000/svg">
<circle cx="16" cy="16" r="15.75" fill="#CE1312" stroke="#F9F9FB" stroke-width="0.5"/>
<path fill-rule="evenodd" clip-rule="evenodd" d="M14.3084 18.8606L14.3078 12.935L19.9658 15.908L14.3084 18.8606ZM26.7318 11.9082C26.7318 11.9082 26.5269 10.455 25.8994 9.81505C25.1029 8.97476 24.2103 8.9708 23.8013 8.92203C20.8709 8.70849 16.4752 8.7085 16.4752 8.7085H16.466C16.466 8.7085 12.0703 8.70849 9.13987 8.92203C8.73021 8.9708 7.83824 8.97476 7.04117 9.81505C6.41359 10.455 6.20941 11.9082 6.20941 11.9082C6.20941 11.9082 6 13.6152 6 15.3214V16.9216C6 18.6286 6.20941 20.3349 6.20941 20.3349C6.20941 20.3349 6.41359 21.7881 7.04117 22.428C7.83824 23.2683 8.88464 23.242 9.35059 23.3296C11.0259 23.4917 16.4706 23.5418 16.4706 23.5418C16.4706 23.5418 20.8709 23.5352 23.8013 23.3217C24.2103 23.2723 25.1029 23.2683 25.8994 22.428C26.5269 21.7881 26.7318 20.3349 26.7318 20.3349C26.7318 20.3349 26.9412 18.6286 26.9412 16.9216V15.3214C26.9412 13.6152 26.7318 11.9082 26.7318 11.9082Z" fill="white"/>
</svg>
